<?xml version="1.0" encoding="utf-8"?>
<!-- Generator: Adobe Illustrator 25.1.0, SVG Export Plug-In . SVG Version: 6.00 Build 0)  -->
<svg version="1.1" id="Layer_1" xmlns="http://www.w3.org/2000/svg" xmlns:xlink="http://www.w3.org/1999/xlink" x="0px" y="0px"
	 viewBox="0 0 1920 1080" style="enable-background:new 0 0 1920 1080;" xml:space="preserve">
<style type="text/css">
	.st0{fill-rule:evenodd;clip-rule:evenodd;fill:#FFFFFF;}
	.st1{opacity:0.29;fill-rule:evenodd;clip-rule:evenodd;fill:#ACD5F3;}
	.st2{opacity:0.42;}
	.st3{fill:#5A6BB8;}
	.st4{fill:#FFC4BE;}
	.st5{fill:#5A5AB6;}
	.st6{fill-rule:evenodd;clip-rule:evenodd;fill:#5A6BB8;}
	.st7{fill-rule:evenodd;clip-rule:evenodd;fill:#A35885;}
	.st8{fill-rule:evenodd;clip-rule:evenodd;fill:#FFE7FF;}
	.st9{fill-rule:evenodd;clip-rule:evenodd;fill:#F2A8D6;}
	.st10{fill-rule:evenodd;clip-rule:evenodd;fill:#8C406C;}
	.st11{fill-rule:evenodd;clip-rule:evenodd;fill:#FFB7D3;}
	.st12{fill-rule:evenodd;clip-rule:evenodd;fill:#FFEAFB;}
	.st13{fill-rule:evenodd;clip-rule:evenodd;fill:#6E1E4A;}
	.st14{fill-rule:evenodd;clip-rule:evenodd;fill:#9A4E7B;}
	.st15{fill-rule:evenodd;clip-rule:evenodd;fill:#823B84;}
	.st16{fill-rule:evenodd;clip-rule:evenodd;fill:#9955AB;}
	.st17{fill-rule:evenodd;clip-rule:evenodd;fill:#FFC72B;}
	.st18{fill-rule:evenodd;clip-rule:evenodd;fill:#8A3963;}
	.st19{fill-rule:evenodd;clip-rule:evenodd;fill:#FF6959;}
	.st20{fill-rule:evenodd;clip-rule:evenodd;fill:#FFB9CC;}
	.st21{fill-rule:evenodd;clip-rule:evenodd;fill:#875EFF;}
	.st22{fill-rule:evenodd;clip-rule:evenodd;fill:#7B4FFF;}
	.st23{fill-rule:evenodd;clip-rule:evenodd;fill:#A385FF;}
	.st24{fill-rule:evenodd;clip-rule:evenodd;fill:#FF9498;}
	.st25{fill-rule:evenodd;clip-rule:evenodd;fill:#8F69FF;}
	.st26{fill-rule:evenodd;clip-rule:evenodd;fill:#FFB0BB;}
	.st27{fill:#8A3963;}
	.st28{fill-rule:evenodd;clip-rule:evenodd;fill:#FFA0A7;}
	.st29{fill-rule:evenodd;clip-rule:evenodd;fill:#FFFEFF;}
	.st30{fill-rule:evenodd;clip-rule:evenodd;fill:#623491;}
	.st31{fill-rule:evenodd;clip-rule:evenodd;fill:#571A5F;}
	.st32{fill-rule:evenodd;clip-rule:evenodd;fill:#FF7E97;}
	.st33{fill-rule:evenodd;clip-rule:evenodd;fill:#FFE0FF;}
	.st34{fill-rule:evenodd;clip-rule:evenodd;fill:#8C1A37;}
	.st35{fill-rule:evenodd;clip-rule:evenodd;fill:#716CF7;}
	.st36{fill-rule:evenodd;clip-rule:evenodd;fill:#FFC7F6;}
	.st37{fill-rule:evenodd;clip-rule:evenodd;fill:#FF2E40;}
	.st38{fill-rule:evenodd;clip-rule:evenodd;fill:#FFCDB3;}
	.st39{fill-rule:evenodd;clip-rule:evenodd;fill:#4C338E;}
	.st40{fill-rule:evenodd;clip-rule:evenodd;fill:#FF5F55;}
	.st41{fill-rule:evenodd;clip-rule:evenodd;fill:#FF786E;}
	.st42{fill-rule:evenodd;clip-rule:evenodd;fill:#5C2575;}
	.st43{fill-rule:evenodd;clip-rule:evenodd;fill:#FF756B;}
	.st44{fill-rule:evenodd;clip-rule:evenodd;fill:#6E2756;}
	.st45{fill-rule:evenodd;clip-rule:evenodd;fill:#7A3566;}
	.st46{fill-rule:evenodd;clip-rule:evenodd;fill:#E8546B;}
</style>
<g>
	<rect x="1" y="1" class="st0" width="1920" height="1077"/>
	<path class="st1" d="M1921,1078V352.15c-94.65-49.56-231.5-102.52-354.73-84.11c-160.77,24.01-201.32,147.95-286.62,245.09
		c-46.76,53.25-95.85,66.83-169.7,47.74C977.08,526.53,865.5,571.34,817.19,679.1c-20.63,46.03-36.74,95.77-77.4,131.12
		c-38.05,33.08-93.36,48.97-147.9,52.56c-111.03,7.31-221.14-36.58-328.98,2.57C163.51,901.43,96.37,1007.74,61.45,1078H1921z"/>
	<g>
		<g class="st2">
			<g>
				<g>
					<path class="st3" d="M1478.71,609.62c-3.39-11.32-2.38-17.49,0.71-25.23c3.09-7.75,10.81-14.5,20.4-15.78
						c3.51-0.47,7.13-0.22,10.59-0.91c10.63-2.13,16.16-12.65,15.28-21.82c-0.88-9.17-6.36-17.49-10.53-25.99
						c-4.18-8.5-7.09-18.28-2.81-26.75c7.66-15.17,32.62-17.32,46.13-29.24c9.3-8.2,12.13-20.19,12.48-31.52
						c0.35-11.33-1.36-22.75,0.62-33.96c1.99-11.21,8.61-22.71,20.78-27.56c12.78-5.1,29.09-1.98,40.78-8.67
						c16-9.16,14.24-31.09,29.38-41.23c7.02-4.7,16.51-5.93,25.48-5.67c14.67,0.42,30.49,5.37,37.21,16.35
						c6.69,10.93,2.36,24.54-5.48,34.91c-7.84,10.37-18.86,18.8-27.11,28.95c-8.25,10.15-13.62,23.29-8.25,34.72
						c3.31,7.05,10.41,12.82,11.84,20.31c1.66,8.67-4.91,17.06-12.93,22.68c-8.02,5.61-17.66,9.41-25.64,15.07
						c-12,8.5-19.84,21.78-17.8,34.86c1.51,9.64,8.04,18.32,9.69,27.94c1.7,9.86-2.13,20.29-10.14,27.62
						c-5.08,4.65-11.58,7.99-17.88,11.41c-23.72,12.89-55.05,26.82-56.9,50.53c-1.07,13.65-14.69,44.73-24.18,57.66
						C1540.46,698.3,1496.74,669.92,1478.71,609.62z"/>
				</g>
				<path class="st4" d="M1498.68,587.22c18.13,8.17,31.9,20.7,42.89,35.13c2.51-20.33,5.77-40.74,12.96-60.19
					c0.45-1.21,0.91-2.42,1.38-3.62c-8.9-13.57-15.9-27.86-20.96-42.76c-0.33-0.98,1.5-1.33,1.83-0.35
					c4.85,14.29,11.53,27.98,19.94,41.03c7.34-18.69,16.54-37.05,25.86-55.18c-9.4-13.49-13.25-27.72-14.48-43.23
					c-0.08-1.01,1.8-0.94,1.88,0.07c1.18,14.82,4.83,28.42,13.53,41.34c2.03-3.94,4.06-7.88,6.08-11.8
					c2.95-5.74,5.98-11.46,9.08-17.15c-0.03-0.26,0.08-0.53,0.37-0.69c3.06-5.6,6.2-11.18,9.4-16.72
					c-6.31-11.6-8.56-24.21-8.16-36.91c0.03-1.02,1.91-0.95,1.88,0.07c-0.38,12.02,1.64,23.95,7.36,34.99
					c3.84-6.61,7.79-13.17,11.83-19.69c-0.05-0.22,0.02-0.46,0.3-0.65c0.06-0.04,0.12-0.07,0.17-0.11c2.75-4.42,5.52-8.82,8.36-13.2
					c0.96-1.48,1.95-2.96,2.92-4.43c-6.04-11.52-9.68-23.84-10.75-36.39c-0.09-1.01,1.79-0.94,1.88,0.07
					c1.01,11.9,4.44,23.62,10.03,34.57c10.24-15.48,21.07-30.68,32.44-45.58c-0.2-11.05-0.01-22.09,1.23-33.1
					c0.11-1.01,1.99-0.95,1.88,0.07c-1.14,10.18-1.39,20.4-1.26,30.62c5.31-6.91,10.73-13.76,16.27-20.55
					c0.01-0.04,0.03-0.08,0.04-0.12c-1.47-2.89-2.23-5.88-2.28-9.02c-0.01-1.02,1.86-0.95,1.88,0.07c0.04,2.7,0.67,5.29,1.87,7.78
					c0.27,0,0.52,0.09,0.72,0.23c5.19-1.31,10.37-2.62,15.56-3.92c1.16-0.29,1.57,1.25,0.42,1.54c-5.51,1.39-11.02,2.78-16.53,4.17
					c-13.19,16.14-25.72,32.66-37.57,49.51c13.7-10.18,29.6-16.75,46.07-23.64c1.08-0.45,1.98,0.94,0.89,1.39
					c-18.18,7.61-35.74,14.82-50.3,27.04c-6.98,10.07-13.7,20.27-20.18,30.57c10.55-6.68,21.92-12.18,34.46-15.88
					c1.14-0.34,1.55,1.21,0.42,1.54c-13.57,4.01-25.75,10.2-36.98,17.69c-7.67,12.34-14.99,24.85-21.93,37.5
					c20.25-3.87,39.82-7.97,57.53-17.38c1.03-0.54,1.91,0.85,0.89,1.39c-18.27,9.7-38.47,13.81-59.4,17.79
					c-1.09,1.99-2.18,3.99-3.24,5.99c-8.56,16.05-16.91,32.31-24.7,48.72c16.85-7.25,34.98-11.7,53.74-13.83
					c1.19-0.14,1.62,1.41,0.42,1.54c-19.32,2.2-37.96,6.84-55.21,14.53c-3.7,7.85-7.28,15.73-10.68,23.65
					c-6.03,14.07-9.85,28.42-12.66,42.96c17.93-12.81,38.64-19.02,61.69-22.95c1.18-0.2,1.61,1.34,0.42,1.54
					c-23.46,4-44.47,10.33-62.56,23.82c-1.7,9.17-3.03,18.42-4.28,27.71c0.02,0.12,0.01,0.24-0.05,0.34
					c-0.16,1.19-0.32,2.37-0.47,3.56c-4.01,30.32-6.75,61.17,1.68,91.15c0.28,0.99-1.55,1.34-1.83,0.35
					c-7.36-26.14-6.31-53.04-3.23-79.59c0.61-5.22,1.2-10.47,1.84-15.73c-11.05-14.96-24.97-27.95-43.58-36.33
					C1496.61,588.08,1497.62,586.74,1498.68,587.22z"/>
			</g>
			<g>
				<g>
					<path class="st3" d="M1543.67,641.11c2.88-10.08,6.68-14.58,12.9-19.6c6.22-5.02,15.59-7.66,23.76-5.34
						c2.99,0.85,5.72,2.3,8.77,2.95c9.41,2,18.9-4.35,22.69-11.86c3.79-7.52,3.56-15.96,4.43-24.09
						c0.87-8.13,3.37-16.83,10.87-22.01c13.44-9.27,34.12-2.32,50.58-7.02c11.32-3.23,19.42-11.67,25.24-20.46
						c5.82-8.79,10.06-18.36,17.1-26.49c7.05-8.13,17.88-14.87,29.83-14.48c12.54,0.41,23.85,8.52,36.31,7.3
						c17.06-1.66,26.41-19.51,43.27-22.25c7.82-1.27,15.89,1.05,22.82,4.36c11.33,5.41,21.35,14.78,21.26,25.74
						c-0.09,10.91-10.14,20.11-21.39,25.55c-11.24,5.44-24.03,8.25-35.48,13.38c-11.45,5.12-22.1,13.6-23.47,24.45
						c-0.85,6.69,1.92,13.69-0.62,20.07c-2.94,7.39-12.21,11.72-21.26,13.35c-9.05,1.63-18.49,1.29-27.53,2.97
						c-13.59,2.53-26.26,10.26-31.05,21.25c-3.53,8.1-2.64,17.19-6.04,25.33c-3.49,8.34-11.6,15.22-21.49,18.21
						c-6.27,1.9-13.01,2.27-19.64,2.78c-24.96,1.92-56.41,2.03-69.47,20.03c-7.51,10.36-33.43,30.09-47.22,36.97
						C1548.85,732.24,1528.35,694.79,1543.67,641.11z"/>
				</g>
				<path class="st4" d="M1570.33,630.42c10.26,12.71,14.96,27.33,16.54,42.48c11.92-15.12,24.47-30.04,39.64-42.84
					c0.94-0.8,1.9-1.59,2.85-2.37c-0.36-13.76,1.12-27.41,4.43-40.89c0.22-0.89,1.83-0.53,1.61,0.36c-3.17,12.92-4.62,26-4.39,39.17
					c14.92-12.16,31.13-23.41,47.32-34.44c-0.79-13.86,3.14-26.39,9.76-39.01c0.43-0.82,1.87-0.11,1.44,0.71
					c-6.33,12.06-10.1,24.02-9.58,37.2c3.52-2.4,7.05-4.79,10.55-7.17c5.13-3.49,10.31-6.94,15.53-10.34
					c0.11-0.22,0.32-0.39,0.63-0.41c5.15-3.35,10.34-6.64,15.57-9.9c0.71-11.31,5.11-22.01,11.63-31.85
					c0.52-0.79,1.97-0.09,1.44,0.71c-6.17,9.32-10.43,19.4-11.33,30.06c6.25-3.87,12.57-7.66,18.94-11.39
					c0.07-0.19,0.24-0.35,0.55-0.41c0.06-0.01,0.13-0.02,0.19-0.03c4.32-2.52,8.66-5.02,13.03-7.48c1.48-0.83,2.98-1.65,4.47-2.48
					c0.88-11.15,4.04-22.1,9.35-32.35c0.43-0.83,1.87-0.12,1.44,0.71c-5.02,9.71-8.06,20.11-9.02,30.66
					c15.63-8.62,31.57-16.83,47.81-24.61c5.25-8.76,10.8-17.38,17.16-25.61c0.58-0.75,2.03-0.06,1.44,0.71
					c-5.88,7.61-11.07,15.56-15.97,23.64c7.56-3.6,15.17-7.11,22.85-10.52c0.03-0.03,0.06-0.06,0.09-0.08
					c0.26-2.78,1.12-5.39,2.62-7.88c0.49-0.81,1.93-0.1,1.44,0.71c-1.29,2.14-2.06,4.39-2.34,6.77c0.21,0.09,0.37,0.25,0.45,0.43
					c4.72,0.77,9.44,1.54,14.16,2.3c1.06,0.17,0.63,1.53-0.42,1.36c-5.01-0.82-10.03-1.63-15.04-2.45
					c-18.27,8.13-36.2,16.77-53.77,25.93c15.75-3.26,31.47-2.92,47.8-2.64c1.07,0.02,1.09,1.42,0.02,1.4
					c-18.02-0.31-35.36-0.73-52.79,3.84c-10.41,5.51-20.69,11.19-30.83,17.06c11.57-1.6,23.2-1.99,34.87-0.56
					c1.06,0.13,0.63,1.49-0.42,1.36c-12.63-1.55-25.23-0.9-37.74,1.1c-12.07,7.05-23.94,14.35-35.59,21.9
					c17.82,3.97,35.21,7.52,53.74,6.26c1.07-0.07,1.08,1.33,0.02,1.4c-19.11,1.3-37.01-2.46-55.42-6.58
					c-1.83,1.19-3.66,2.38-5.48,3.59c-14.59,9.66-29.1,19.55-43.26,29.76c16.8,0.13,33.23,2.91,49.03,7.73
					c1,0.31,0.59,1.67-0.42,1.36c-16.27-4.96-33.2-7.77-50.53-7.69c-6.75,4.89-13.42,9.85-19.96,14.9
					c-11.63,8.98-21.65,18.94-30.97,29.4c20.37-3.86,39.69-1.58,59.74,3.31c1.03,0.25,0.61,1.61-0.42,1.36
					c-20.41-4.98-40.03-7.27-60.85-2.93c-5.82,6.62-11.39,13.43-16.92,20.31c-0.04,0.1-0.11,0.19-0.2,0.25
					c-0.71,0.88-1.41,1.76-2.12,2.64c-17.98,22.45-35.23,45.76-43.26,72.26c-0.27,0.88-1.88,0.52-1.61-0.36
					c7-23.1,20.98-43.9,36.39-63.71c3.03-3.9,6.07-7.82,9.14-11.73c-1.37-15.59-5.97-30.63-16.5-43.66
					C1568.28,630.37,1569.73,629.67,1570.33,630.42z"/>
			</g>
			<g>
				<g>
					<path class="st3" d="M1377.94,662.72c-10.99-9.08-14.27-15.41-16.68-24.25c-2.4-8.84,0.28-18.99,8.48-24.88
						c3-2.15,6.61-3.68,9.41-6.02c8.61-7.2,6.62-19.85-0.52-28.1c-7.14-8.26-18.04-13.48-27.85-19.5
						c-9.8-6.02-19.28-13.87-21.05-23.97c-3.17-18.1,19-32.28,23.6-50.15c3.17-12.29-2.38-25.03-9.84-35.93
						c-7.46-10.9-16.93-20.89-22.75-32.47c-5.82-11.59-7.45-25.7,0.74-36.23c8.6-11.05,26.19-16.03,32.67-28.06
						c8.86-16.46-7.88-36.38-0.5-53.35c3.42-7.87,11.57-13.66,20.24-17.78c14.19-6.74,32.57-9.75,46.49-2.62
						c13.85,7.1,19.1,22.09,18.8,35.74c-0.3,13.64-4.94,26.99-5.78,40.62c-0.84,13.63,3.11,28.69,16.05,36.91
						c7.98,5.07,18.68,7.08,25.18,13.48c7.53,7.4,7.08,18.56,3.34,27.78s-10.26,17.51-13.93,26.75c-5.53,13.89-3.82,30.29,7.1,41.69
						c8.05,8.4,20.2,13.44,28.39,21.75c8.39,8.51,11.93,20.26,9.38,31.1c-1.61,6.87-5.47,13.2-9.09,19.51
						c-13.61,23.76-33.71,52.2-19.17,75.56c8.37,13.45,16.83,49.52,16.73,66.4C1497.39,716.68,1436.48,711.08,1377.94,662.72z"/>
				</g>
				<path class="st4" d="M1381.46,631.79c22.8-1.08,44.45,4.09,64.78,12.41c-11.6-20.48-22.54-41.41-29.09-63.32
					c-0.41-1.36-0.8-2.73-1.19-4.1c-17.76-8.53-34.21-18.65-49.25-30.31c-0.99-0.77,0.51-1.99,1.49-1.23
					c14.42,11.17,30.15,20.9,47.09,29.17c-5.9-21.28-9.8-43.15-13.44-64.85c-18.18-8.2-31.6-19.81-43.43-33.91
					c-0.77-0.92,1.06-1.76,1.83-0.85c11.3,13.47,24.11,24.57,41.24,32.58c-0.79-4.72-1.57-9.44-2.35-14.13
					c-1.15-6.88-2.21-13.77-3.19-20.66c-0.21-0.24-0.28-0.54-0.12-0.83c-0.95-6.8-1.81-13.6-2.59-20.42
					c-13.95-7.92-24.75-18.77-33.1-30.99c-0.67-0.98,1.16-1.83,1.83-0.85c7.9,11.57,18.01,21.89,31.02,29.56
					c-0.91-8.13-1.68-16.27-2.33-24.42c-0.2-0.19-0.3-0.44-0.16-0.76c0.03-0.06,0.06-0.13,0.09-0.19
					c-0.44-5.52-0.83-11.04-1.15-16.57c-0.11-1.87-0.18-3.75-0.28-5.62c-13.64-7.97-25.56-17.87-35.21-29.24
					c-0.78-0.92,1.05-1.76,1.83-0.85c9.14,10.78,20.44,20.21,33.27,27.87c-0.93-19.65-1.13-39.31-0.6-58.97
					c-7.79-10.37-15.19-20.93-21.59-31.95c-0.59-1.01,1.24-1.87,1.83-0.85c5.92,10.2,12.71,20,19.85,29.62
					c0.28-9.13,0.7-18.26,1.29-27.38c-0.02-0.04-0.03-0.09-0.05-0.14c-3.37-2.02-6.15-4.48-8.35-7.43c-0.71-0.96,1.11-1.8,1.83-0.85
					c1.9,2.54,4.27,4.68,7.12,6.46c0.25-0.13,0.55-0.17,0.84-0.13c4.01-3.76,8.03-7.53,12.04-11.29c0.9-0.84,2.35,0.42,1.46,1.26
					c-4.26,4-8.53,8-12.79,11.99c-1.4,21.71-1.92,43.46-1.56,65.19c5.98-16.31,16.53-30.27,27.39-44.82
					c0.71-0.96,2.52-0.07,1.8,0.89c-11.99,16.06-23.68,31.43-29.07,50.1c0.32,12.94,0.95,25.87,1.9,38.79
					c5.41-11.46,12.39-22.21,21.73-31.82c0.85-0.87,2.3,0.39,1.46,1.26c-10.1,10.4-17.38,22.19-22.87,34.76
					c1.22,15.43,2.88,30.83,5.01,46.2c16.53-13.52,32.24-26.93,42.55-44.46c0.6-1.01,2.4-0.12,1.8,0.89
					c-10.64,18.08-26.95,31.8-44.04,45.76c0.34,2.42,0.68,4.84,1.04,7.25c2.92,19.38,6.19,38.84,10.09,58.17
					c10.98-15.07,25.09-28.11,41.4-39.26c1.03-0.71,2.5,0.54,1.46,1.26c-16.79,11.48-31.26,24.95-42.32,40.64
					c1.89,9.24,3.91,18.45,6.14,27.6c3.96,16.26,10.2,31.72,17.54,46.86c8.18-20.86,23.53-36.82,42.66-51.77
					c0.98-0.77,2.44,0.49,1.46,1.26c-19.48,15.21-35.03,31.43-42.89,53.01c4.69,9.52,9.79,18.92,15,28.34
					c0.11,0.1,0.17,0.22,0.19,0.35c0.67,1.2,1.33,2.4,2,3.61c17.04,30.67,35.65,61.23,64.25,85.53c0.95,0.8-0.55,2.03-1.49,1.23
					c-24.94-21.18-42.44-47.18-57.77-73.83c-3.01-5.24-6.06-10.5-9.07-15.79c-20.75-8.8-42.87-14.32-66.26-13.21
					C1380.09,633.61,1380.12,631.85,1381.46,631.79z"/>
			</g>
			<g>
				<g>
					<path class="st4" d="M1529.3,627.78c-8.84-20.69-13.76-41.32-16.78-61.58c-2.86-19.22-4.32-38.22-4.64-56.92
						c-0.62-37.28,3.64-73.36,12.67-107.54c5.07-19.16,11.64-37.71,19.66-55.55c0.32-0.72,1.9,0.13,1.58,0.84
						c-14.2,31.57-23.8,65.37-28.62,100.79c-4.84,35.49-4.93,72.57-0.1,110.51c2.89,22.75,7.79,45.97,17.76,69.31
						C1531.2,628.5,1529.68,628.66,1529.3,627.78L1529.3,627.78z"/>
				</g>
				<g>
					<path class="st5" d="M1540.41,346.98c-8.87-15.98-7.94-32.27-1.83-45.33c6.11-13.06,16.96-23.41,27.69-33.61
						c2.59,15.93,5,32.06,2.14,46.59c-2.86,14.53-11.64,27.5-27.64,32.66"/>
				</g>
				<path class="st5" d="M1525.32,391.14c-0.42-13.42,12.64-24.18,29.99-26.99c17.26-3.03,37.27,0.58,55.48,6.73
					c-16.14,2.8-28.99,8.24-41.93,12.63c-13.09,4.39-26.86,8.01-43.37,7.93"/>
				<path class="st5" d="M1512.97,446.75c-0.42-13.42,12.64-24.18,29.99-26.99c17.26-3.03,37.27,0.58,55.48,6.73
					c-16.14,2.8-28.99,8.24-41.93,12.63c-13.1,4.39-26.86,8.01-43.37,7.93"/>
				<path class="st5" d="M1507.99,508.91c-0.42-13.42,12.64-24.18,29.99-26.99c17.26-3.03,37.27,0.58,55.48,6.73
					c-16.14,2.8-28.99,8.24-41.93,12.63c-13.09,4.39-26.86,8.01-43.37,7.93"/>
				<path class="st5" d="M1513.66,568.88c-0.42-13.42,12.64-24.18,29.99-26.99c17.26-3.03,37.27,0.58,55.48,6.73
					c-16.14,2.8-28.99,8.24-41.93,12.63c-13.09,4.39-26.86,8.01-43.37,7.93"/>
				<path class="st5" d="M1521.72,405.44c1.07-12.44-9.14-27.06-23.31-35.71c-14.09-8.82-30.81-12.38-46.17-12.94
					c13.18,8.22,23.5,17.78,33.94,26.39c10.58,8.66,21.74,16.83,35.39,22.48"/>
				<path class="st5" d="M1510.1,475c1.07-12.44-9.14-27.06-23.31-35.71c-14.09-8.82-30.81-12.38-46.17-12.94
					c13.18,8.22,23.5,17.78,33.94,26.39c10.58,8.66,21.74,16.83,35.39,22.48"/>
				<path class="st5" d="M1509.74,538.08c1.07-12.44-9.14-27.06-23.31-35.71c-14.09-8.82-30.81-12.38-46.17-12.94
					c13.18,8.22,23.5,17.78,33.94,26.39c10.58,8.66,21.75,16.83,35.39,22.48"/>
			</g>
			<g>
				<g>
					<path class="st4" d="M1590.15,639.49c8.57-20.77,20.15-39.42,32.93-56.78c12.12-16.46,25.18-32.02,38.9-46.73
						c27.35-29.33,57.61-55.15,90.16-76.96c18.25-12.23,37.22-23.19,56.78-32.83c0.79-0.39,1.38,1.1,0.6,1.49
						c-34.62,17.05-67.33,38.28-97.54,63.28c-30.26,25.05-58.03,53.85-82.6,85.92c-14.73,19.23-28.27,39.88-37.94,63.31
						C1591.08,641.05,1589.78,640.37,1590.15,639.49L1590.15,639.49z"/>
				</g>
				<g>
					<path class="st5" d="M1808.48,426.91c5.03-17.12,17.92-29.31,32.42-36.24c14.5-6.93,30.67-9.25,46.64-11.51
						c-9.89,13.76-20.05,27.59-33.12,37.38c-13.07,9.79-29.59,15.24-45.89,10.79"/>
				</g>
				<path class="st5" d="M1763.75,453.28c9.7-10.66,27.89-12.13,43.49-5.14c15.68,6.77,28.56,20.16,38.14,34.57
					c-14.65-6.36-28.71-8.92-42.05-12.34c-13.46-3.51-26.87-7.97-39.67-16.76"/>
				<path class="st5" d="M1712.62,490.02c9.7-10.66,27.89-12.13,43.49-5.14c15.68,6.77,28.56,20.16,38.14,34.57
					c-14.65-6.36-28.71-8.92-42.05-12.34c-13.46-3.51-26.87-7.97-39.67-16.76"/>
				<path class="st5" d="M1662.33,535.74c9.7-10.66,27.89-12.13,43.49-5.14c15.68,6.77,28.56,20.16,38.14,34.57
					c-14.65-6.36-28.71-8.92-42.05-12.34c-13.46-3.51-26.87-7.97-39.67-16.76"/>
				<path class="st5" d="M1621.95,585.39c9.7-10.66,27.89-12.13,43.49-5.14c15.68,6.77,28.56,20.16,38.14,34.57
					c-14.65-6.36-28.71-8.92-42.05-12.34c-13.46-3.51-26.87-7.97-39.67-16.76"/>
				<path class="st5" d="M1750.28,462.5c10.12-9.11,13.09-25.88,8.53-40.11c-4.37-14.31-14.72-25.92-26.26-34.48
					c4.11,13.36,5,26.25,6.7,38.47c1.76,12.33,4.35,24.59,10.74,36.2"/>
				<path class="st5" d="M1689.29,510.48c10.12-9.11,13.09-25.88,8.53-40.11c-4.37-14.31-14.72-25.92-26.26-34.48
					c4.11,13.37,5,26.25,6.7,38.47c1.76,12.33,4.35,24.59,10.74,36.2"/>
				<path class="st5" d="M1641.91,559.36c10.12-9.11,13.09-25.88,8.53-40.11c-4.37-14.31-14.72-25.92-26.26-34.48
					c4.11,13.36,5,26.25,6.7,38.47c1.76,12.33,4.35,24.59,10.74,36.2"/>
			</g>
		</g>
		<g class="st2">
			<g>
				<g>
					<path class="st3" d="M1128.45,887.92c-13.16-3.61-18.81-7.61-24.94-13.92s-8.79-15.38-4.98-22.88
						c1.39-2.74,3.57-5.18,4.71-8.01c3.51-8.69-4.1-18.2-13.76-22.45c-9.67-4.25-20.93-4.78-31.67-6.34
						c-10.75-1.55-22.11-4.69-28.33-12.22c-11.14-13.5-0.03-32.37-4.81-48.31c-3.29-10.96-13.8-19.35-24.98-25.62
						c-11.18-6.27-23.55-11.12-33.74-18.49c-10.19-7.37-18.2-18.18-16.6-29.41c1.68-11.78,13.47-21.71,12.98-33.57
						c-0.68-16.23-23.61-26.64-25.74-42.78c-0.99-7.49,2.83-14.88,7.85-21.12c8.22-10.2,21.59-18.8,36.18-17.73
						c14.52,1.06,25.87,11.36,32.11,22.45c6.24,11.08,8.84,23.39,14.63,34.64c5.8,11.25,16.13,22.05,30.45,24.32
						c8.83,1.4,18.4-0.58,26.67,2.38c9.57,3.43,14.51,12.56,15.87,21.24c1.36,8.68,0.06,17.54,1.48,26.22
						c2.14,13.04,11.3,25.67,25.51,31.17c10.47,4.05,22.65,4.03,33.18,7.97c10.79,4.03,19.22,12.3,22.32,21.89
						c1.96,6.08,1.86,12.47,1.95,18.76c0.32,23.7-2.36,53.35,20.45,67.27c13.12,8.01,37.06,34.21,44.99,47.83
						C1250.23,891.21,1198.54,907.17,1128.45,887.92z"/>
				</g>
				<path class="st4" d="M1116.6,861.84c17.84-8.54,37.72-11.65,58.04-11.79c-19.06-12.59-37.81-25.75-53.49-41.2
					c-0.98-0.96-1.94-1.93-2.9-2.9c-18.35-0.89-36.4-3.52-54.04-7.84c-1.16-0.28-0.54-1.77,0.62-1.49
					c16.91,4.15,34.2,6.69,51.76,7.65c-14.85-15.15-28.37-31.44-41.61-47.69c-18.53-0.49-34.85-5.32-51.07-12.7
					c-1.06-0.48,0.02-1.78,1.07-1.3c15.49,7.04,31.07,11.67,48.67,12.36c-2.88-3.54-5.74-7.07-8.61-10.59
					c-4.19-5.15-8.32-10.34-12.37-15.56c-0.28-0.12-0.49-0.34-0.49-0.63c-3.99-5.15-7.92-10.34-11.78-15.57
					c-14.99-1.68-28.84-6.79-41.36-13.82c-1-0.56,0.06-1.86,1.07-1.3c11.85,6.65,24.89,11.57,39.01,13.37
					c-4.59-6.24-9.07-12.53-13.47-18.87c-0.25-0.08-0.45-0.25-0.49-0.56c-0.01-0.06-0.01-0.12-0.02-0.18
					c-2.97-4.3-5.91-8.61-8.79-12.95c-0.98-1.47-1.93-2.96-2.9-4.43c-14.77-1.83-29.06-5.79-42.23-11.71
					c-1.06-0.48,0.01-1.77,1.07-1.3c12.47,5.6,26.05,9.4,40.01,11.25c-10.08-15.5-19.57-31.27-28.48-47.27
					c-11.19-5.73-22.17-11.74-32.55-18.47c-0.95-0.62,0.11-1.92,1.07-1.3c9.61,6.22,19.73,11.83,30.05,17.17
					c-4.11-7.45-8.11-14.94-11.96-22.48c-0.04-0.03-0.07-0.06-0.1-0.1c-3.67-0.49-7.08-1.54-10.25-3.18
					c-1.03-0.53,0.04-1.83,1.07-1.3c2.73,1.41,5.66,2.33,8.8,2.81c0.14-0.19,0.36-0.33,0.62-0.38c1.44-4.38,2.89-8.76,4.33-13.14
					c0.32-0.98,2.09-0.45,1.77,0.52c-1.53,4.65-3.07,9.3-4.6,13.96c9.18,17.95,19.09,35.63,29.7,53
					c-2.93-15.14-1.07-29.92,0.77-45.29c0.12-1.01,1.99-0.9,1.87,0.11c-2.03,16.96-4.13,33.26,0.39,50.1
					c6.4,10.31,13.05,20.51,19.94,30.58c-1.09-11.04-0.57-22.05,2.39-32.92c0.27-0.99,2.04-0.46,1.77,0.52
					c-3.2,11.77-3.46,23.7-1.91,35.67c8.3,12.01,16.96,23.85,25.96,35.51c6.89-16.44,13.17-32.51,13.15-50.09
					c0-1.02,1.87-0.9,1.87,0.11c0.02,18.13-6.59,34.66-13.72,51.64c1.42,1.83,2.84,3.66,4.28,5.49
					c11.55,14.62,23.42,29.19,35.74,43.44c1.68-15.82,6.85-31.06,14.69-45.52c0.5-0.92,2.27-0.4,1.77,0.52
					c-8.07,14.89-13.32,30.59-14.77,46.94c5.91,6.8,11.91,13.53,18.05,20.15c10.91,11.76,23.27,22.1,36.37,31.82
					c-3.32-19.55,1.46-37.55,9.76-56.01c0.43-0.95,2.2-0.43,1.77,0.52c-8.45,18.79-13.27,37.08-9.36,57.09
					c8.3,6.08,16.86,11.94,25.53,17.77c0.14,0.05,0.24,0.12,0.32,0.21c1.11,0.74,2.21,1.49,3.32,2.23
					c28.28,18.96,57.77,37.31,92.33,47.25c1.14,0.33,0.52,1.82-0.62,1.49c-30.13-8.67-56.57-23.71-81.56-40.01
					c-4.92-3.21-9.86-6.42-14.8-9.66c-20.88-0.11-41.31,2.88-59.61,11.64C1116.36,863.76,1115.55,862.34,1116.6,861.84z"/>
			</g>
			<g>
				<g>
					<path class="st3" d="M1194.58,858.53c-8.58-7.4-11.07-12.49-12.8-19.58c-1.74-7.09,0.61-15.14,7.27-19.72
						c2.44-1.67,5.35-2.84,7.62-4.66c7.01-5.62,5.68-15.73,0.16-22.42c-5.52-6.69-14.12-11.01-21.81-15.95
						c-7.69-4.94-15.1-11.34-16.3-19.42c-2.16-14.48,15.81-25.47,19.85-39.66c2.78-9.76-1.39-20-7.12-28.8
						c-5.73-8.8-13.08-16.9-17.48-26.23c-4.41-9.32-5.42-20.6,1.33-28.88c7.08-8.69,21.22-12.41,26.63-21.91
						c7.4-13-5.54-29.13,0.68-42.56c2.89-6.23,9.5-10.73,16.5-13.89c11.45-5.17,26.18-7.31,37.13-1.42
						c10.9,5.86,14.79,17.9,14.27,28.77c-0.52,10.88-4.49,21.45-5.44,32.31c-0.94,10.86,1.9,22.92,12.05,29.67
						c6.26,4.16,14.75,5.92,19.81,11.11c5.85,6.01,5.27,14.9,2.09,22.2c-3.17,7.3-8.54,13.82-11.66,21.13
						c-4.69,11-3.67,24.1,4.82,33.35c6.25,6.81,15.84,11.01,22.2,17.76c6.51,6.91,9.1,16.33,6.85,24.94
						c-1.43,5.46-4.64,10.45-7.65,15.43c-11.34,18.75-27.95,41.14-16.83,59.98c6.4,10.85,12.41,39.74,11.99,53.19
						C1288.74,903.29,1240.28,897.94,1194.58,858.53z"/>
				</g>
				<path class="st4" d="M1198.02,833.91c18.2-0.53,35.37,3.9,51.41,10.83c-8.83-16.5-17.14-33.35-21.91-50.92
					c-0.3-1.09-0.58-2.19-0.86-3.29c-13.99-7.06-26.9-15.37-38.66-24.88c-0.77-0.63,0.45-1.58,1.22-0.96
					c11.27,9.12,23.62,17.1,36.96,23.94c-4.27-17.06-6.94-34.55-9.39-51.91c-14.33-6.8-24.8-16.26-33.95-27.67
					c-0.6-0.75,0.88-1.39,1.47-0.65c8.74,10.9,18.73,19.94,32.23,26.58c-0.53-3.78-1.06-7.55-1.59-11.31
					c-0.78-5.5-1.48-11.01-2.12-16.52c-0.16-0.19-0.22-0.44-0.08-0.66c-0.62-5.44-1.17-10.88-1.65-16.32
					c-10.96-6.51-19.36-15.33-25.77-25.19c-0.51-0.79,0.96-1.44,1.47-0.65c6.07,9.34,13.92,17.72,24.14,24.02
					c-0.56-6.5-1-13-1.36-19.51c-0.16-0.15-0.23-0.36-0.11-0.61c0.02-0.05,0.05-0.1,0.07-0.15c-0.24-4.41-0.44-8.82-0.58-13.23
					c-0.05-1.5-0.07-2.99-0.11-4.49c-10.72-6.55-20.02-14.62-27.48-23.83c-0.6-0.74,0.88-1.39,1.47-0.65
					c7.07,8.73,15.89,16.41,25.96,22.71c-0.35-15.68-0.1-31.37,0.72-47.04c-6-8.38-11.69-16.91-16.57-25.8
					c-0.45-0.81,1.02-1.47,1.48-0.65c4.51,8.22,9.73,16.13,15.23,23.91c0.41-7.28,0.93-14.55,1.59-21.82
					c-0.02-0.04-0.02-0.07-0.03-0.11c-2.65-1.66-4.81-3.66-6.51-6.05c-0.55-0.77,0.93-1.42,1.47-0.65c1.46,2.05,3.31,3.8,5.55,5.26
					c0.2-0.1,0.45-0.13,0.67-0.09c3.28-2.94,6.56-5.89,9.84-8.83c0.73-0.66,1.87,0.37,1.14,1.02c-3.48,3.13-6.96,6.25-10.45,9.38
					c-1.56,17.29-2.42,34.63-2.57,51.97c5.1-12.92,13.8-23.9,22.76-35.35c0.59-0.75,2.01-0.02,1.42,0.73
					c-9.89,12.64-19.52,24.73-24.2,39.53c-0.01,10.32,0.23,20.64,0.72,30.96c4.55-9.06,10.34-17.53,17.98-25.06
					c0.69-0.68,1.83,0.34,1.14,1.02c-8.27,8.15-14.31,17.45-18.95,27.39c0.65,12.32,1.67,24.63,3.05,36.91
					c13.46-10.55,26.26-21.01,34.84-34.84c0.5-0.8,1.91-0.06,1.42,0.73c-8.85,14.27-22.14,24.98-36.05,35.86
					c0.22,1.93,0.44,3.87,0.68,5.8c1.94,15.5,4.15,31.06,6.86,46.54c9.06-11.86,20.58-22.05,33.82-30.71
					c0.84-0.55,1.98,0.47,1.14,1.02c-13.63,8.91-25.44,19.45-34.58,31.8c1.32,7.39,2.75,14.77,4.33,22.1
					c2.82,13.03,7.49,25.44,13.03,37.62c6.95-16.52,19.52-29.03,35.08-40.67c0.8-0.6,1.94,0.42,1.14,1.02
					c-15.84,11.85-28.57,24.56-35.28,41.66c3.55,7.66,7.42,15.23,11.38,22.81c0.08,0.09,0.13,0.18,0.15,0.28
					c0.51,0.97,1.01,1.94,1.52,2.9c12.97,24.71,27.18,49.35,49.5,69.13c0.74,0.65-0.48,1.61-1.22,0.96
					c-19.46-17.25-32.89-38.24-44.57-59.71c-2.3-4.22-4.62-8.46-6.91-12.72c-16.37-7.32-33.9-12.04-52.57-11.49
					C1196.89,835.34,1196.95,833.94,1198.02,833.91z"/>
			</g>
			<g>
				<g>
					<path class="st3" d="M1128.16,987.72c-14.95,2.98-23.04,1.95-33.19-1.05c-10.15-2.99-18.91-10.29-20.45-19.25
						c-0.56-3.28-0.18-6.65-1.04-9.88c-2.65-9.94-16.39-15.25-28.47-14.57c-12.08,0.68-23.11,5.65-34.36,9.41
						c-11.25,3.76-24.17,6.32-35.24,2.21c-19.84-7.37-22.28-30.65-37.77-43.42c-10.65-8.79-26.38-11.61-41.28-12.11
						c-14.9-0.5-29.95,0.92-44.67-1.1c-14.72-2.02-29.74-8.37-35.95-19.78c-6.51-11.98-2.16-27.13-10.79-38.12
						c-11.8-15.04-40.68-13.74-53.79-28c-6.08-6.61-7.55-15.47-7.08-23.83c0.78-13.66,7.53-28.32,22.08-34.41
						c14.49-6.06,32.32-1.82,45.85,5.64c13.53,7.47,24.45,17.86,37.67,25.69c13.23,7.84,30.43,13.04,45.56,8.22
						c9.33-2.97,17.03-9.5,26.9-10.72c11.43-1.41,22.38,4.84,29.64,12.39c7.26,7.56,12.12,16.59,19.43,24.11
						c10.99,11.31,28.35,18.82,45.6,17.11c12.71-1.26,24.23-7.2,36.91-8.6c13-1.43,26.66,2.3,36.19,9.87
						c6.04,4.8,10.33,10.9,14.74,16.83c16.6,22.3,34.44,51.69,65.61,53.78c17.94,1.2,58.62,14.37,75.5,23.41
						C1245.79,931.57,1207.79,971.85,1128.16,987.72z"/>
				</g>
				<path class="st4" d="M1099,968.78c11.03-16.77,27.73-29.4,46.88-39.41c-26.71-2.65-53.52-6-78.99-13
					c-1.58-0.44-3.17-0.89-4.75-1.34c-18,8.08-36.9,14.38-56.59,18.87c-1.29,0.29-1.73-1.42-0.44-1.71
					c18.87-4.3,36.99-10.31,54.29-17.94c-24.48-7.13-48.49-15.97-72.2-24.93c-17.89,8.55-36.67,11.92-57.1,12.82
					c-1.33,0.06-1.21-1.69,0.12-1.75c19.52-0.87,37.46-4.06,54.61-11.97c-5.16-1.95-10.3-3.9-15.43-5.84
					c-7.51-2.84-14.98-5.75-22.42-8.72c-0.35,0.02-0.69-0.09-0.9-0.36c-7.33-2.94-14.61-5.94-21.86-9.01
					c-15.36,5.7-31.99,7.6-48.69,7.04c-1.34-0.05-1.22-1.79,0.12-1.75c15.8,0.54,31.53-1.16,46.14-6.32
					c-8.64-3.68-17.21-7.46-25.73-11.32c-0.29,0.04-0.6-0.02-0.85-0.29c-0.05-0.05-0.1-0.11-0.14-0.16
					c-5.77-2.62-11.52-5.28-17.23-7.99c-1.94-0.92-3.86-1.86-5.79-2.79c-15.25,5.45-31.51,8.66-48.05,9.46
					c-1.33,0.06-1.21-1.68,0.12-1.75c15.67-0.76,31.14-3.77,45.64-8.81c-20.21-9.78-40.04-20.1-59.48-30.92
					c-14.54,0.02-29.07-0.33-43.53-1.65c-1.33-0.12-1.22-1.87,0.12-1.75c13.38,1.22,26.82,1.6,40.27,1.64
					c-9.01-5.05-17.95-10.21-26.79-15.47c-0.06-0.01-0.11-0.03-0.16-0.04c-3.82,1.32-7.76,1.99-11.9,1.98
					c-1.34,0-1.22-1.75,0.12-1.75c3.56,0.01,6.97-0.54,10.27-1.62c0-0.25,0.12-0.49,0.32-0.66c-1.64-4.85-3.28-9.7-4.92-14.56
					c-0.37-1.08,1.67-1.45,2.04-0.37c1.74,5.15,3.49,10.31,5.23,15.46c21.04,12.53,42.57,24.46,64.57,35.76
					c-13.18-12.92-21.58-27.83-30.4-43.28c-0.58-1.02,1.27-1.83,1.85-0.81c9.74,17.06,18.95,33.52,34.81,47.27
					c13.15,6.65,26.46,13.08,39.92,19.27c-8.62-9.93-15.69-20.61-20.37-32.35c-0.43-1.07,1.61-1.43,2.04-0.37
					c5.06,12.7,13.02,24.14,22.71,34.72c16.12,7.34,32.46,14.34,49,21c-4.78-18.93-9.88-37.21-21.98-53.85
					c-0.7-0.96,1.15-1.77,1.85-0.81c12.48,17.17,17.58,36.05,22.5,55.6c2.61,1.04,5.21,2.09,7.83,3.11
					c20.99,8.22,42.25,16.25,63.72,23.76c-9.28-15.81-14.86-32.76-17.38-50.27c-0.16-1.11,1.87-1.49,2.04-0.37
					c2.59,18.03,8.41,35.46,18.27,51.65c10.27,3.57,20.59,7.02,30.95,10.31c18.42,5.83,37.24,9.61,56.33,12.45
					c-16.58-16.9-24.43-36.29-29.26-57.82c-0.25-1.11,1.79-1.48,2.04-0.37c4.91,21.92,12.91,41.58,30.38,58.64
					c12.04,1.72,24.18,3.11,36.4,4.41c0.16-0.02,0.31,0,0.45,0.05c1.56,0.17,3.12,0.33,4.68,0.5c39.83,4.2,80.37,7.23,119.95-0.17
					c1.31-0.24,1.75,1.47,0.44,1.71c-34.5,6.45-69.89,5.07-104.77,1.79c-6.86-0.64-13.76-1.28-20.66-1.95
					c-19.86,10.06-37.15,22.83-48.47,40.04C1100.1,970.72,1098.36,969.76,1099,968.78z"/>
			</g>
			<g>
				<g>
					<path class="st4" d="M1173.57,861.65c-25.46-4.72-48.76-12.19-70.69-20.82c-20.8-8.18-40.64-17.25-59.57-26.96
						c-37.72-19.37-71.67-41.58-101.15-66.16c-16.53-13.78-31.65-28.31-45.28-43.49c-0.55-0.61,1.14-1.28,1.68-0.67
						c24.12,26.86,52.93,51.65,85.9,73.91c33.03,22.3,70.18,42.08,110.8,58.81c24.36,10.03,50.25,18.9,78.97,24.22
						C1175.3,860.68,1174.65,861.85,1173.57,861.65L1173.57,861.65z"/>
				</g>
				<g>
					<path class="st5" d="M897.78,704.5c-20.74-2.2-36.6-11.51-46.45-22.79c-9.85-11.28-14.47-24.49-18.99-37.53
						c17.36,6.63,34.82,13.49,47.87,23.24c13.05,9.75,21.4,22.89,18.07,36.99"/>
				</g>
				<path class="st5" d="M934.05,738.7c-13.69-6.84-17.54-21.83-11.14-35.65c6.14-13.86,20.4-26.16,36.24-35.83
					c-5.77,12.95-7.15,24.97-9.61,36.49c-2.56,11.63-6.24,23.33-15.1,35.02"/>
				<path class="st5" d="M983.28,777.03c-13.69-6.84-17.54-21.83-11.14-35.65c6.14-13.86,20.4-26.16,36.24-35.83
					c-5.77,12.95-7.15,24.97-9.61,36.49c-2.56,11.63-6.24,23.33-15.1,35.02"/>
				<path class="st5" d="M1042.99,813.6c-13.69-6.84-17.54-21.83-11.14-35.65c6.14-13.86,20.4-26.16,36.24-35.83
					c-5.77,12.95-7.15,24.97-9.61,36.49c-2.56,11.63-6.24,23.33-15.1,35.02"/>
				<path class="st5" d="M1106.16,841.46c-13.69-6.84-17.54-21.83-11.14-35.65c6.14-13.86,20.4-26.16,36.24-35.83
					c-5.77,12.95-7.15,24.97-9.61,36.49c-2.56,11.63-6.24,23.33-15.1,35.02"/>
				<path class="st5" d="M946.49,748.85c-11.91-7.37-32-7.89-48.22-2.42c-16.34,5.31-28.8,15.3-37.52,25.91
					c15.26-4.99,30.33-7.24,44.51-10.08c14.31-2.91,28.44-6.5,41.36-13.18"/>
				<path class="st5" d="M1010.1,794.08c-11.91-7.37-32-7.89-48.22-2.42c-16.34,5.31-28.8,15.3-37.53,25.91
					c15.26-4.99,30.33-7.24,44.51-10.08c14.31-2.91,28.44-6.5,41.36-13.18"/>
				<path class="st5" d="M1073.18,827.86c-11.91-7.37-32-7.89-48.22-2.42c-16.34,5.31-28.8,15.3-37.53,25.91
					c15.25-4.99,30.33-7.24,44.51-10.08c14.31-2.91,28.44-6.5,41.36-13.18"/>
			</g>
			<g>
				<g>
					<path class="st4" d="M1217.65,824.66c-16.28-17.13-28.83-35.26-39.45-53.57c-10.07-17.36-18.74-34.9-26.21-52.47
						c-14.88-35.02-24.7-70.23-29.29-104.94c-2.57-19.46-3.48-38.76-2.75-57.77c0.03-0.76,1.84-0.39,1.81,0.36
						c-1.29,33.65,2.61,68.17,11.64,102.91c9.04,34.81,23.17,69.83,42.28,104.33c11.46,20.68,24.98,41.27,43.34,60.59
						C1219.72,824.83,1218.34,825.39,1217.65,824.66L1217.65,824.66z"/>
				</g>
				<g>
					<path class="st5" d="M1120.45,556.61c-14.5-12.67-19.87-28.31-19.12-42.29c0.76-13.98,7.03-26.7,13.25-39.24
						c8.55,14.34,17.02,28.9,19.89,43.39s-0.44,29.12-13.56,38.33"/>
				</g>
				<path class="st5" d="M1123.13,602.38c-5.54-12.56,2.66-26.26,17.96-33.62c15.13-7.54,35.4-9.57,54.95-8.72
					c-14.16,7.03-24.21,15.65-34.73,23.31c-10.68,7.7-22.28,14.85-37.9,19.26"/>
				<path class="st5" d="M1132.8,658.23c-5.54-12.56,2.66-26.26,17.96-33.62c15.13-7.54,35.4-9.57,54.95-8.72
					c-14.16,7.03-24.21,15.65-34.73,23.31c-10.68,7.7-22.28,14.85-37.9,19.26"/>
				<path class="st5" d="M1151.94,718.25c-5.54-12.56,2.66-26.26,17.96-33.62c15.13-7.54,35.4-9.57,54.95-8.72
					c-14.16,7.03-24.21,15.65-34.73,23.31c-10.68,7.7-22.28,14.85-37.9,19.26"/>
				<path class="st5" d="M1180.29,773.32c-5.54-12.56,2.66-26.26,17.96-33.62c15.13-7.54,35.4-9.57,54.95-8.72
					c-14.16,7.03-24.21,15.65-34.73,23.31c-10.68,7.7-22.28,14.85-37.9,19.26"/>
				<path class="st5" d="M1125.22,616.86c-3.76-12.03-19.01-23.06-35.7-27.37c-16.68-4.5-33.83-3.32-48.54,0.32
					c15.59,4.18,29,10.4,42.16,15.69c13.3,5.3,26.98,9.98,42.02,11.61"/>
				<path class="st5" d="M1140.93,685.67c-3.76-12.03-19.01-23.06-35.7-27.37c-16.68-4.5-33.83-3.32-48.54,0.32
					c15.59,4.18,29,10.4,42.16,15.69c13.3,5.3,26.98,9.98,42.02,11.61"/>
				<path class="st5" d="M1164.78,745.3c-3.76-12.03-19.01-23.06-35.7-27.37c-16.68-4.5-33.83-3.32-48.54,0.32
					c15.59,4.18,29,10.4,42.16,15.69c13.3,5.3,26.98,9.98,42.02,11.61"/>
			</g>
		</g>
		<g>
			<rect x="1463.97" y="441.62" class="st6" width="55.9" height="195.13"/>
			<path class="st7" d="M1467.49,441.62h1.26v195.13h-1.26V441.62z M1515.06,441.62L1515.06,441.62h1.26v195.13h-1.26V441.62z"/>
			<rect x="1471.59" y="447.85" class="st8" width="40.64" height="101.52"/>
			<path class="st9" d="M1491.91,626.99c4.81,0,8.74-3.21,8.74-7.15c0-3.93-3.93-7.13-8.74-7.13c-4.81,0-8.72,3.21-8.72,7.13
				C1483.18,623.79,1487.1,626.99,1491.91,626.99L1491.91,626.99z"/>
			<rect x="1475.38" y="526.78" class="st7" width="33.04" height="3.89"/>
			<rect x="1475.38" y="534.17" class="st7" width="33.04" height="3.89"/>
			<rect x="1475.38" y="541.58" class="st7" width="33.04" height="3.89"/>
			<path class="st10" d="M1491.91,625.11c3.55,0,6.42-2.37,6.42-5.26c0-2.88-2.87-5.25-6.42-5.25c-3.53,0-6.42,2.37-6.42,5.25
				C1485.49,622.74,1488.38,625.11,1491.91,625.11L1491.91,625.11z"/>
			<rect x="1521.68" y="441.62" class="st6" width="55.9" height="195.13"/>
			<path class="st7" d="M1525.23,441.62h1.26v195.13h-1.26V441.62z M1572.8,441.62L1572.8,441.62h1.26v195.13h-1.26V441.62z"/>
			<rect x="1529.3" y="447.85" class="st8" width="40.66" height="101.52"/>
			<path class="st9" d="M1549.64,626.99c4.81,0,8.72-3.21,8.72-7.15c0-3.93-3.91-7.13-8.72-7.13c-4.81,0-8.74,3.21-8.74,7.13
				C1540.9,623.79,1544.83,626.99,1549.64,626.99L1549.64,626.99z"/>
			<rect x="1533.12" y="526.78" class="st7" width="33.04" height="3.89"/>
			<rect x="1533.12" y="534.17" class="st7" width="33.04" height="3.89"/>
			<rect x="1533.12" y="541.58" class="st7" width="33.04" height="3.89"/>
			<path class="st10" d="M1549.64,625.11c3.53,0,6.42-2.37,6.42-5.26c0-2.88-2.89-5.25-6.42-5.25c-3.55,0-6.42,2.37-6.42,5.25
				C1543.22,622.74,1546.1,625.11,1549.64,625.11L1549.64,625.11z"/>
			<rect x="1579.32" y="441.62" class="st6" width="55.9" height="195.13"/>
			<path class="st7" d="M1582.84,441.62h1.28v195.13h-1.28V441.62z M1630.41,441.62L1630.41,441.62h1.28v195.13h-1.28V441.62z"/>
			<rect x="1586.94" y="447.85" class="st8" width="40.66" height="101.52"/>
			<path class="st9" d="M1607.28,626.99c4.81,0,8.72-3.21,8.72-7.15c0-3.93-3.91-7.13-8.72-7.13c-4.83,0-8.74,3.21-8.74,7.13
				C1598.54,623.79,1602.45,626.99,1607.28,626.99L1607.28,626.99z"/>
			<rect x="1590.75" y="526.78" class="st7" width="33.04" height="3.89"/>
			<rect x="1590.75" y="534.17" class="st7" width="33.04" height="3.89"/>
			<rect x="1590.75" y="541.58" class="st7" width="33.04" height="3.89"/>
			<path class="st10" d="M1607.28,625.11c3.53,0,6.42-2.37,6.42-5.26c0-2.88-2.89-5.25-6.42-5.25c-3.55,0-6.44,2.37-6.44,5.25
				C1600.84,622.74,1603.73,625.11,1607.28,625.11L1607.28,625.11z"/>
			<rect x="1637.44" y="441.62" class="st6" width="55.9" height="195.13"/>
			<path class="st7" d="M1640.99,441.62h1.26v195.13h-1.26V441.62z M1688.53,441.62L1688.53,441.62h1.28v195.13h-1.28V441.62z"/>
			<rect x="1645.06" y="447.85" class="st8" width="40.66" height="101.52"/>
			<path class="st9" d="M1665.4,626.99c4.81,0,8.72-3.21,8.72-7.15c0-3.93-3.91-7.13-8.72-7.13s-8.74,3.21-8.74,7.13
				C1656.66,623.79,1660.59,626.99,1665.4,626.99L1665.4,626.99z"/>
			<rect x="1648.87" y="526.78" class="st7" width="33.04" height="3.89"/>
			<rect x="1648.87" y="534.17" class="st7" width="33.04" height="3.89"/>
			<rect x="1648.87" y="541.58" class="st7" width="33.04" height="3.89"/>
			<path class="st10" d="M1665.4,625.11c3.53,0,6.42-2.37,6.42-5.26c0-2.88-2.89-5.25-6.42-5.25c-3.55,0-6.44,2.37-6.44,5.25
				C1658.96,622.74,1661.86,625.11,1665.4,625.11L1665.4,625.11z"/>
			<rect x="1695.18" y="441.62" class="st6" width="55.9" height="195.13"/>
			<path class="st7" d="M1698.7,441.62h1.28v195.13h-1.28V441.62z M1746.27,441.62L1746.27,441.62h1.26v195.13h-1.26V441.62z"/>
			<rect x="1702.8" y="447.85" class="st8" width="40.66" height="101.52"/>
			<path class="st9" d="M1723.12,626.99c4.81,0,8.74-3.21,8.74-7.15c0-3.93-3.93-7.13-8.74-7.13c-4.81,0-8.72,3.21-8.72,7.13
				C1714.4,623.79,1718.31,626.99,1723.12,626.99L1723.12,626.99z"/>
			<rect x="1706.61" y="526.78" class="st7" width="33.02" height="3.89"/>
			<rect x="1706.61" y="534.17" class="st7" width="33.02" height="3.89"/>
			<rect x="1706.61" y="541.58" class="st7" width="33.02" height="3.89"/>
			<path class="st10" d="M1723.12,625.11c3.55,0,6.44-2.37,6.44-5.26c0-2.88-2.89-5.25-6.44-5.25c-3.53,0-6.42,2.37-6.42,5.25
				C1716.7,622.74,1719.59,625.11,1723.12,625.11L1723.12,625.11z"/>
			<rect x="1752.79" y="441.62" class="st6" width="55.9" height="195.13"/>
			<path class="st7" d="M1756.34,441.62h1.26v195.13h-1.26V441.62z M1803.91,441.62L1803.91,441.62h1.26v195.13h-1.26V441.62z"/>
			<rect x="1760.41" y="447.85" class="st8" width="40.66" height="101.52"/>
			<path class="st9" d="M1780.75,626.99c4.81,0,8.74-3.21,8.74-7.15c0-3.93-3.93-7.13-8.74-7.13c-4.81,0-8.74,3.21-8.74,7.13
				C1772.01,623.79,1775.94,626.99,1780.75,626.99L1780.75,626.99z"/>
			<rect x="1764.23" y="526.78" class="st7" width="33.04" height="3.89"/>
			<rect x="1764.23" y="534.17" class="st7" width="33.04" height="3.89"/>
			<rect x="1764.23" y="541.58" class="st7" width="33.04" height="3.89"/>
			<path class="st10" d="M1780.75,625.11c3.55,0,6.42-2.37,6.42-5.26c0-2.88-2.87-5.25-6.42-5.25c-3.55,0-6.42,2.37-6.42,5.25
				C1774.33,622.74,1777.21,625.11,1780.75,625.11L1780.75,625.11z"/>
			<rect x="1436.17" y="636.75" class="st11" width="414.27" height="377.44"/>
			<rect x="1464.9" y="668.88" class="st12" width="356.79" height="199.57"/>
			<rect x="1464.9" y="877.44" class="st12" width="356.79" height="136.75"/>
			<rect x="1578.3" y="710.28" class="st11" width="125.48" height="49.44"/>
			<path class="st13" d="M1595.78,729.9h90.53c3.53,0,6.42,2.37,6.42,5.25v12.98c0,2.9-2.89,5.26-6.42,5.26h-90.53
				c-3.53,0-6.44-2.37-6.44-5.26v-12.98C1589.34,732.26,1592.26,729.9,1595.78,729.9L1595.78,729.9z"/>
			<rect x="1578.3" y="910.48" class="st14" width="125.48" height="49.44"/>
			<path class="st13" d="M1593.32,930.1h90.53c3.53,0,6.42,2.37,6.42,5.25v12.98c0,2.9-2.89,5.25-6.42,5.25h-90.53
				c-3.55,0-6.42-2.35-6.42-5.25v-12.98C1586.9,932.46,1589.77,930.1,1593.32,930.1L1593.32,930.1z"/>
			<path class="st15" d="M1338.51,651.07L1338.51,651.07h240.5l-113.15,343.82h-204.29h-36.19h-36.19l103.12-313.36
				C1297.81,664.77,1318.59,651.07,1338.51,651.07L1338.51,651.07z"/>
			<path class="st16" d="M1579.01,651.07L1579.01,651.07c19.89,0,31.67,13.7,26.17,30.45l-103.12,313.36h-72.39l103.12-313.36
				C1538.29,664.77,1559.1,651.07,1579.01,651.07L1579.01,651.07z"/>
			<path class="st17" d="M1231.08,497.25c26.86,0,48.99,20.51,49.42,45.82c0.41,25.29-21.03,45.8-47.89,45.8
				c-26.88,0-48.99-20.51-49.42-45.8C1182.76,517.76,1204.2,497.25,1231.08,497.25L1231.08,497.25z"/>
			<path class="st18" d="M1243.35,499.24c26.86,0,48.99,20.51,49.4,45.8c0.43,25.31-21.01,45.82-47.87,45.82
				c-26.88,0-48.99-20.51-49.42-45.82C1195.03,519.75,1216.47,499.24,1243.35,499.24L1243.35,499.24z"/>
			<path class="st19" d="M1319.12,402.63c-17.47-4.25-14.49,24.73-61.93,22c-113.33-6.5-41.64,110.6-47.42,122.88
				c-10.03,21.25-57.8,27.97-66.44,54.74c-8.62,26.77,27.51,44.02,28.04,50.83c0.55,6.81-18.87,20.87-14.02,35.38
				c4.85,14.52,38.29,20.42,41.53,19.98c3.22-0.46,198.97,20.87,198.97,20.87s-7.56-64.42,24.8-137.03
				c32.34-72.59,6.46-137.92-28.04-161.52C1360.11,407.16,1319.12,402.63,1319.12,402.63L1319.12,402.63z"/>
			<path class="st20" d="M966.14,730.67c0,0-2.81-7.1-14.8-16.96c-11.98-9.86-40.37-28.71-42.45-24.11
				c-2.08,4.61,20.32,24.33,20.32,24.33s-70.31-14.94-72.66-12.5c-4.85,5.04,2.73,7.37,4.87,8.71c0,0-11.98-2.67-14.84-0.5
				c-8.27,6.33,14.02,12.29,18.87,13.7c0,0-17.3-6.34-19.01-0.1c-1.69,6.24,31.39,11.39,31.39,11.39s-21.81-1.87-22.26,2.97
				c-0.61,6.38,93.75,21.31,100.15,20.23c13.39-2.28,14.98-12.09,14.98-12.09C972.09,740.34,968.73,735.78,966.14,730.67
				L966.14,730.67z"/>
			<path class="st21" d="M1231.76,738.99c-2.16-9.98-4.93-75.95-4.93-75.95s-10.1-5.46-50,22.68
				c-39.9,28.12-80.86,172.37-80.86,172.37l-121.4-120.02l-31.28,19.51c0,0,149.37,206.94,175.25,186.72
				C1144.41,924.1,1231.76,738.99,1231.76,738.99L1231.76,738.99z"/>
			<path class="st19" d="M1456.08,483.38c4.54,30.57-50.85,52.11,4.85,104.81c0,0,31.81,16.34,27.51,77.59
				c-4.32,61.25-52.91,71.97-45,110.71c7.91,38.74-64.2,50.59-91.16,44.22c-224.55-52.9-14.27-159.18-23.6-247.99
				c-7.4-70.27-6.32-104.76,37.89-109.3C1410.79,458.89,1456.08,483.38,1456.08,483.38L1456.08,483.38z"/>
			<path class="st22" d="M1435.15,698.03c-12.23-34.6-76.43-36.1-154.3-40.71c-7.63-0.45-14.4-0.3-20.5,0.34
				c-11.77-2.95-34.06-3.32-41.8,6.06c-41.03,49.71-82.04,91.49-92.93,123.35c-10.09,29.58-0.22,62.95,29.84,78.76l6.59,110.43
				c-0.76,9.48-24.32,11.91-25.39,20.54l190.78,11.47C1380.65,924.07,1450.58,741.67,1435.15,698.03z"/>
			<path class="st23" d="M1251.3,651.91c-1.63,23.05-27.47,96.9-19.75,159.9l-46.08-105.72l28.98-12.21c0,0-23.25-16-23.27-18.42
				C1191.14,673.05,1251.34,652.01,1251.3,651.91L1251.3,651.91z"/>
			<path class="st24" d="M1307.53,585.82L1307.53,585.82c24.56,0,77.36-2.52,71.86,15.42l-18.04,58.92
				c-5.5,17.94-25.96,39.77-72.84,39.77c-66.54,0-35.44-47.72-25.64-80.54C1268.28,601.37,1282.97,585.82,1307.53,585.82
				L1307.53,585.82z"/>
			<path class="st23" d="M1368.26,646.58c-2.14,1.13-12.98,23.08-50.64,59.59c-37.68,36.49-86.07,105.65-86.07,105.65l115.03-61.12
				l-6.93-24.3c0,0,63.97-47.26,65.56-49.27C1406.8,675.11,1368.26,646.58,1368.26,646.58L1368.26,646.58z"/>
			<path class="st25" d="M1447.5,702.1c-1.16-2.87-2.78-5.45-4.7-7.79l0,0c0,0,0,0,0,0c-2.9-3.53-6.55-6.44-10.67-8.74
				c-0.14-0.08-0.27-0.16-0.41-0.24c-0.89-0.49-1.8-0.94-2.73-1.37c-0.25-0.12-0.5-0.23-0.75-0.34c-0.89-0.39-1.79-0.76-2.71-1.11
				c-0.3-0.11-0.61-0.22-0.92-0.33c-0.9-0.32-1.81-0.62-2.73-0.89c-0.31-0.09-0.63-0.16-0.94-0.25c-2.83-0.77-5.71-1.31-8.61-1.62
				c-0.58-0.06-1.15-0.14-1.73-0.18c-0.65-0.05-1.3-0.07-1.95-0.09c-0.69-0.03-1.37-0.06-2.06-0.06c-0.6,0-1.2,0.02-1.8,0.04
				c-0.73,0.02-1.45,0.06-2.17,0.11c-0.56,0.04-1.11,0.09-1.67,0.15c-0.76,0.08-1.5,0.19-2.24,0.3c-0.5,0.08-1,0.15-1.5,0.25
				c-0.82,0.16-1.61,0.35-2.4,0.55c-0.4,0.1-0.8,0.19-1.19,0.3c-1.17,0.33-2.31,0.71-3.41,1.14
				c-18.73,7.39-104.73,171.03-106.89,198.71c-1.19,15.23-3.51,26.71-1.04,35.88c1.2,1.34,2.63,2.63,4.29,3.88
				c3.27,4.45,8.55,8.32,17,12.07c23.63,10.5,73.61-53.52,89.24-88.01C1408.46,809.98,1452.35,714.12,1447.5,702.1z"/>
			<path class="st26" d="M1315.23,428.45c61.04,0,103.06,48.56,93.83,108.44c-9.23,59.88-66.19,108.43-127.25,108.43
				c-61.04,0-78.24-49.45-69.03-109.33C1222.01,476.11,1254.17,428.45,1315.23,428.45L1315.23,428.45z"/>
			<path class="st19" d="M1263.59,422.13c-5.4,6.36-3.79,37.21,18.87,66.71c22.64,29.49,74.41,41.29,92.73,57.17
				c18.34,15.88-14.29,81.88-14.29,99.13c0,17.23,23.33,30.33,41.99,33.94c52.86,10.2,32.15-22.82,50.49-33.27
				c18.32-10.43,18.32-40.83,7.54-57.62c-10.78-16.79-15.1-33.11,1.08-55.35c16.18-22.22,9.72-54.89-15.63-86.65
				c-25.35-31.76-66.87-48.55-111.62-51.74C1290,391.28,1263.59,422.13,1263.59,422.13L1263.59,422.13z"/>
			<path class="st17" d="M1364.14,511.52c4.12-60.46-58.21-102.03-106.42-85.81c-2.96-9.19,18.4-18.85,23.21-17.71
				c119.41-9.83,113.42,105.34,107.75,103.28C1386.79,510.61,1364.14,511.52,1364.14,511.52L1364.14,511.52z"/>
			<path class="st18" d="M1375.33,498.38c26.86,0,48.99,20.51,49.4,45.82c0.43,25.29-21.01,45.8-47.87,45.8
				c-26.88,0-49.01-20.51-49.42-45.8C1327.01,518.89,1348.45,498.38,1375.33,498.38L1375.33,498.38z"/>
			<path class="st17" d="M1384.85,502.16c23.44,0,42.72,17.89,43.1,39.95c0.37,22.07-18.34,39.95-41.78,39.95
				s-42.74-17.89-43.1-39.95C1342.7,520.04,1361.41,502.16,1384.85,502.16L1384.85,502.16z"/>
			<path class="st18" d="M1398.57,514.45c14.59,0,26.62,11.15,26.84,24.88c0.22,13.74-11.41,24.88-26.01,24.88
				c-14.59,0-26.62-11.15-26.84-24.88C1372.34,525.6,1383.97,514.45,1398.57,514.45L1398.57,514.45z"/>
			<path class="st27" d="M1368.61,582.27c-0.02,0.05-2.32,15.96-25.13,30.2c-23.07,14.37-53.25,5.35-53.33,5.33l1.85-4.56
				c0.08,0.03,27.45,8.2,48.06-4.65c20.85-13,22.85-26.92,22.87-26.97L1368.61,582.27z"/>
			<path class="st18" d="M1289.37,621.8c4.32,0,7.83-2.95,7.83-6.58c0-3.62-3.51-6.57-7.83-6.57c-4.3,0-7.81,2.95-7.81,6.57
				C1281.56,618.85,1285.07,621.8,1289.37,621.8L1289.37,621.8z"/>
			<path class="st18" d="M1295.63,519.42c5.54,0,10.05,3.79,10.05,8.45c0,4.66-4.5,8.45-10.05,8.45c-5.54,0-10.05-3.79-10.05-8.45
				c0-1.39,0.41-2.71,1.12-3.86c-0.29-0.19-0.59-0.38-0.92-0.6c-4.77-3.22-4.5-5.56-4.5-5.56s-0.08,0.12,4.65,1.03
				c3.04,0.58,6.32,0.65,8.27,0.62C1294.67,519.46,1295.14,519.42,1295.63,519.42L1295.63,519.42z"/>
			<path class="st18" d="M1232.55,519.89c5.54,0,10.03,3.77,10.03,8.44c0,4.68-4.48,8.45-10.03,8.45c-5.56,0-10.05-3.77-10.05-8.45
				c0-1.34,0.37-2.59,1.02-3.72c-0.37-0.22-0.75-0.48-1.16-0.75c-4.79-3.22-4.5-5.56-4.5-5.56s-0.08,0.12,4.65,1.03
				c3.46,0.67,7.28,0.65,9.03,0.6C1231.88,519.89,1232.2,519.89,1232.55,519.89L1232.55,519.89z"/>
			<path class="st28" d="M1248.75,564.32c-9.84-0.69-11.88,3.29-3.53,6.02c8.36,2.73,20.77,2.71,18.89,0.89
				C1262.22,569.41,1256.7,565.33,1248.75,564.32L1248.75,564.32z"/>
			<path class="st29" d="M1238.91,585.7c0,1.43,1.09,30.01,16.89,31.41c15.12,1.34,21.6-29.89,20.08-30.05
				C1274.36,586.88,1238.91,585.7,1238.91,585.7L1238.91,585.7z"/>
			<path class="st29" d="M1266.26,697.37c-13.82-3.96-18.79-12.16-19.2-22.36c-2.36,10.53-5.4,23.25-8.23,37.26
				c-6.11,30.18-11.33,66.36-7.28,99.54c0,0,10.9-15.57,26.35-35.82c1.85-2.42,3.77-4.9,5.73-7.44l0,0
				c4.95-6.36,10.23-13.03,15.69-19.72c1.16-11.78,2.32-22.74,3.36-31.95c0.77-6.72,1.45-12.5,2-17.01
				c-7.03-0.22-12.86-1.01-17.67-2.3C1266.75,697.5,1266.5,697.44,1266.26,697.37L1266.26,697.37z"/>
			<path class="st20" d="M1320.54,695.22c0.55-4.54,17.56-40.86,16.03-44.84c-0.86-2.18-7.85-21.33-11.66-30.2
				c-2-4.66-18.59-13-21.24-9.62c-3.32,4.25,9.74,14.4,9.74,14.4c3.08,9.33,1.24,22.29,0.77,19.86
				c-0.75-3.81-5.26-25.26-10.46-27.21c-5.2-1.94-13.21-13.79-17.26-7.79c-4.04,6.02,10.05,16.51,10.05,16.51l3.83,19.6
				c0,0-9.48-5.3-13.74-3.79c-4.26,1.51-8.25,8.49-8.25,8.49c-10.9,0.86-11.8,8.28-10.94,14.82c0.29,2.04,13.19,25.16,18.55,23.97
				c2.67-0.58,0.69,5.5,9.64,8.11c2.65,0.79,9.05,9.17,9.05,9.17L1320.54,695.22z"/>
			<path class="st21" d="M1283.75,689.27c0,0-11.72,105.9-9.74,154.08c1.97,48.2-7.8,90.34,42.4,82.84
				c37.71-5.63,32.33-55.22,28.05-110.89c-4.3-55.68-23.92-120.09-23.92-120.09L1283.75,689.27z"/>
			<path class="st30" d="M868.18,961.02H1081v6.62c0,3.64-3.55,6.62-7.89,6.62H868.18V961.02z"/>
			<path class="st30" d="M593.05,775.74h228.34c4.08,0,8.13,2.8,9.01,6.22l47.24,182.23c1.47,5.68-2.83,10.31-9.58,10.31H640.58
				c-6.73,0-13.45-4.63-14.92-10.31l-45.3-174.79C578.4,781.88,584.13,775.74,593.05,775.74L593.05,775.74z"/>
			<path class="st31" d="M585.21,775.93H805.7c8.66,0,17.28,5.95,19.18,13.24l44.65,172.29c1.9,7.29-3.65,13.24-12.31,13.24H636.73
				c-8.66,0-17.28-5.95-19.18-13.24L572.9,789.17C571,781.88,576.55,775.93,585.21,775.93L585.21,775.93z"/>
			<path class="st32" d="M1231.86,553.82c8.74,0,15.9-1.95,15.9-4.37c0-2.4-7.15-4.36-15.9-4.36c-8.76,0-15.92,1.95-15.92,4.36
				C1215.94,551.87,1223.09,553.82,1231.86,553.82L1231.86,553.82z"/>
			<path class="st32" d="M1297.62,554.85c8.76,0,15.92-1.97,15.92-4.37s-7.15-4.37-15.92-4.37c-8.74,0-15.9,1.97-15.9,4.37
				S1288.88,554.85,1297.62,554.85L1297.62,554.85z"/>
			<path class="st18" d="M1307.49,513.83c-3.49-1.05-15-4.24-26.13-3.58c-8.34,0.48-8.97-4.8-2.28-6
				c8.56-1.54,23.42,2.76,28.35,4.56C1312.36,510.63,1311.56,515.38,1307.49,513.83L1307.49,513.83z"/>
			<path class="st18" d="M1221.28,509.1c2.87-0.67,12.31-2.59,21.44-0.74c6.83,1.39,7.36-3.82,1.88-5.76
				c-7.03-2.47-19.22,0.22-23.25,1.49C1217.29,505.36,1217.94,510.2,1221.28,509.1L1221.28,509.1z"/>
			<path class="st33" d="M1515.2,949.89h233.27v20.8H1515.2v-2.33c1.28-2.21,2.02-4.8,2.02-7.58c0-2.8-0.73-5.38-2.02-7.6V949.89z"
				/>
			<polygon class="st34" points="1509.39,947.66 1745.29,947.66 1753.32,947.66 1753.32,954.41 1753.32,967.5 1753.32,974.25 
				1745.29,974.25 1509.39,974.25 1509.39,967.5 1745.29,967.5 1745.29,954.41 1509.39,954.41 			"/>
			<path class="st33" d="M1729.99,923.29h-233.25v20.8h233.25v-2.33c-1.26-2.21-2-4.82-2-7.6c0-2.78,0.73-5.38,2-7.6V923.29z"/>
			<polygon class="st35" points="1735.8,921.04 1499.9,921.04 1491.87,921.04 1491.87,927.8 1491.87,940.9 1491.87,947.66 
				1499.9,947.66 1735.8,947.66 1735.8,940.9 1499.9,940.9 1499.9,927.8 1735.8,927.8 			"/>
			<path class="st33" d="M1506.42,871.81h209.2c-1.92,6.6-3.04,14.4-3.04,22.77c0,8.35,1.12,16.15,3.04,22.76h-209.2V871.81z"/>
			<path class="st36" d="M1714.27,877.23c-0.14,0.74-0.29,1.49-0.43,2.26h-199.48v-2.26H1714.27z"/>
			<path class="st36" d="M1713.11,884.64c-0.08,0.74-0.14,1.49-0.2,2.25h-198.54v-2.25H1713.11z"/>
			<path class="st36" d="M1712.62,892.05c-0.02,0.74-0.04,1.49-0.04,2.25h-198.22v-2.25H1712.62z"/>
			<path class="st36" d="M1712.7,899.46c0.04,0.75,0.1,1.51,0.16,2.25h-198.5v-2.25H1712.7z"/>
			<path class="st36" d="M1713.42,906.86c0.1,0.75,0.22,1.51,0.35,2.25h-199.4v-2.25H1713.42z"/>
			<polygon class="st37" points="1501.93,865.35 1510.47,865.35 1721.96,865.35 1721.96,872.43 1510.47,872.43 1510.47,913.96 
				1721.96,913.96 1721.96,921.04 1510.47,921.04 1501.93,921.04 1501.93,913.96 1501.93,872.43 			"/>
			<rect x="1485.67" y="847.14" class="st15" width="230.74" height="18.21"/>
			<rect x="1504.6" y="838.03" class="st19" width="230.74" height="9.11"/>
			<rect x="1492.36" y="814.13" class="st38" width="230.74" height="23.9"/>
			<path class="st33" d="M1477.03,789.81h230.4v21.57h-230.4c1.24-3.22,1.96-6.89,1.96-10.8
				C1478.99,796.69,1478.27,793.02,1477.03,789.81L1477.03,789.81z"/>
			<polygon class="st39" points="1468.45,787.07 1711.07,787.07 1711.07,814.13 1468.45,814.13 1468.45,808.95 1703.59,808.95 
				1703.59,792.38 1468.45,792.38 			"/>
			<rect x="439.85" y="974.25" class="st40" width="1373.94" height="39.94"/>
			<rect x="439.85" y="974.25" class="st41" width="1373.94" height="20.63"/>
			<path class="st0" d="M1302.45,525.32c0,1.95-1.88,3.53-4.2,3.53c-2.32,0-4.2-1.58-4.2-3.53c0-1.95,1.88-3.53,4.2-3.53
				C1300.58,521.79,1302.45,523.37,1302.45,525.32z"/>
			<path class="st0" d="M1239.21,525.32c0,1.95-1.88,3.53-4.2,3.53c-2.32,0-4.2-1.58-4.2-3.53c0-1.95,1.88-3.53,4.2-3.53
				C1237.33,521.79,1239.21,523.37,1239.21,525.32z"/>
			<path class="st42" d="M824.88,789.17c-1.9-7.29-10.52-13.24-19.18-13.24H585.21c-8.66,0-14.2,5.95-12.31,13.24l33.42,128.93
				c16.75,2.63,34.35,4.05,52.52,4.05c80.9,0,150.65-27.79,182.91-67.9L824.88,789.17z"/>
			<path class="st43" d="M1270.9,432.73c0,0.58-6.49,2.34,7.65,28.85c14.13,26.51,53.05,48.38,52.13,47.68
				c-0.93-0.7-17.58-23.51-17.13-24.29c0.45-0.78,27.32,19.57,26.86,18.95c-0.46-0.62-7.41-9.79-14.6-22.65
				c-7.18-12.87-6.95-13.84-6.95-13.84s12.74,6.82,22.7,17.15c9.96,10.33,12.51,14.79,12.05,14.02
				c-0.46-0.77,2.32-22.21-16.22-41.51c-18.53-19.3-51.43-30.02-49.81-29.43c1.62,0.58,26.18,21.66,25.02,20.19
				c-1.16-1.47-24.79-14.34-24.33-13.75c0.46,0.58,15.99,20.08,15.29,20.08s-14.48-4.87-21.84-15.4
				c-7.35-10.53-9.21-14.04-9.21-14.04s12.05,25.93,10.19,24.17C1280.86,447.15,1270.9,432.73,1270.9,432.73z"/>
			<path class="st43" d="M1392.55,631.67c0.72,14.32,7.35,27.57,21.99,36.4c-6.3-5.49-8.44-14.09-5.27-21.24
				c0.94,5.43,5.21,10.07,10.12,13.67c4.91,3.6,10.57,6.43,15.55,9.97c12.09,8.59,19.8,21.41,20.86,34.7
				c-1.9-8.77,0.06-17.85-1.35-26.68c-1.26-7.88-5.27-15.44-11.4-21.5c7.19,2.42,12.16,8.05,15.58,13.89
				c5.43,9.28,7.88,19.79,7.03,30.11c0.75-3.7,1.59-7.39,2.54-11.07c2.57-9.95,5.88-19.78,7.82-29.84
				c1.53-7.96,2.2-16.05,1.98-24.11c-0.22-8.23-1.37-16.5-4.53-24.29c-3.16-7.79-8.42-15.09-15.93-20.36
				c4.48,10.9,5.75,22.73,3.66,34.13c-5.67-15.76-26.67-25.81-29.45-42.11c-4,21.73,3.77,44.8,20.74,61.52
				c-9.35-5.85-17.66-13.14-22.79-21.95c-1.92,8.29,1.27,16.75,4.41,24.78c-14.63-14.43-21.22-34.41-17.53-53.12
				c-4.99,9.79-10.09,20.25-8.06,30.77c-6.88-11.81-1.36-25.91-3.05-38.99c0.22,1.73-4.44,6.01-5.37,7.74
				c-1.43,2.67-2.06,5.57-2.88,8.41c-1.95,6.77-3.68,13.61-4.41,20.57C1392.49,625.97,1392.4,628.84,1392.55,631.67z"/>
			<g>
				<path class="st44" d="M1225.08,886.46H1327v9h12.88c5.65,0,10.8,1.94,14.51,5.08c3.73,3.12,6.05,7.46,6.05,12.21v29.72
					c0,4.77-2.32,9.09-6.05,12.23c-3.71,3.12-8.87,5.08-14.51,5.08H1327v1.54c0,6.84-6.64,12.43-14.78,12.43h-72.39
					c-8.11,0-14.76-5.59-14.76-12.43V886.46z M1327,903.59v48.03h12.88c2.98,0,5.71-1.03,7.68-2.69c1.98-1.66,3.2-3.94,3.2-6.46
					v-29.72c0-2.5-1.22-4.8-3.2-6.46c-1.98-1.66-4.71-2.69-7.68-2.69H1327z"/>
				<path class="st45" d="M1252.36,960.96h-12.81c-1.6,0-2.91-1.31-2.91-2.91v-61.96c0-1.6,1.31-2.91,2.91-2.91h12.81
					c1.6,0,2.91,1.31,2.91,2.91v61.96C1255.27,959.65,1253.96,960.96,1252.36,960.96z"/>
			</g>
			<path class="st28" d="M1242.34,564.73c0,0,8.33-0.01,15.16-5.7c6.83-5.69,9.44-15.66,9.69-14.39c0.24,1.27-2.69,26.91-2.98,27.14
				C1263.92,571.99,1242.34,564.73,1242.34,564.73z"/>
		</g>
	</g>
	<g>
		<line class="st46" x1="1127.08" y1="130.73" x2="1127.08" y2="133.05"/>
		<line class="st46" x1="1285.63" y1="133.05" x2="1285.63" y2="130.73"/>
	</g>
</g>
</svg>
