<?xml version="1.0" encoding="utf-8"?>
<!-- Generator: Adobe Illustrator 25.1.0, SVG Export Plug-In . SVG Version: 6.00 Build 0)  -->
<svg version="1.1" xmlns="http://www.w3.org/2000/svg" xmlns:xlink="http://www.w3.org/1999/xlink" x="0px" y="0px"
	 viewBox="0 0 750 500" style="enable-background:new 0 0 750 500;" xml:space="preserve">
<g id="BACKGROUND">
	<rect style="fill:#F4FBFF;" width="750" height="500"/>
</g>
<g id="OBJECTS">
	<g>
		<g>
			<g>
				<path style="fill:#D6F5FF;" d="M676.61,446.76c4.2-8,14.42-31.57,20.16-80.03c7.35-62.06-26.13-102.89-34.3-124.94
					c-8.17-22.05,17.97-68.6-19.6-114.33c-37.56-45.73-100.44-44.91-135.56-26.95s-80.03,36.75-115.96,2.45
					c-35.93-34.3-61.06-50.65-118.89-57.74C211.91,37.8,115.6,76.34,122.42,157.98c6.73,80.53-50.06,69.89-65.88,146.69
					c-18.75,91,28.6,134.37,33.74,142.09H676.61z"/>
				<g>
					<rect x="109.85" y="293.35" style="fill:#65BFCE;" width="457.56" height="156.64"/>
					<g>
						<g>
							<polygon style="fill:#91D3E2;" points="575.52,449.99 566.18,449.99 566.18,293.35 111.07,293.35 111.07,449.99 
								101.73,449.99 101.73,284.01 575.52,284.01 							"/>
						</g>
						<g>
							<rect x="106.4" y="363.71" style="fill:#91D3E2;" width="464.45" height="9.34"/>
						</g>
						<g>
							<g>
								<rect x="249.91" y="288.68" style="fill:#91D3E2;" width="9.34" height="158.08"/>
							</g>
							<g>
								<rect x="418.01" y="288.68" style="fill:#91D3E2;" width="9.34" height="158.08"/>
							</g>
						</g>
					</g>
				</g>
				<g>
					<g>
						<path style="fill:#0055AA;" d="M137.53,449.49c0,0-46.69-101.55-29.18-134.23c17.51-32.68,91.04-24.51,107.38,5.84
							c16.34,30.35,40.85,128.4,40.85,128.4H137.53z"/>
						<path style="fill:#1A78C6;" d="M215.74,321.1c-2.4-4.45-6.03-8.42-10.54-11.86c-13.61-5.49-41.09-13.34-58.18,3.75
							c-18.93,18.93,20.24,103.03,40.07,136.51h69.5C256.59,449.49,232.08,351.45,215.74,321.1z"/>
						<g>
							<path style="fill:#1A78C6;" d="M632.44,449.49c0,0,46.69-101.55,29.18-134.23c-17.51-32.68-91.04-24.51-107.38,5.84
								c-16.34,30.35-40.85,128.4-40.85,128.4H632.44z"/>
							<path style="fill:#0055AA;" d="M571.24,304.99c-7.51,4.26-13.54,9.69-17,16.11c-16.34,30.35-40.85,128.4-40.85,128.4h76.97
								c16.09-34.68,47.33-107.65,36.22-129.34C618.64,304.67,593.12,303.12,571.24,304.99z"/>
						</g>
						<g>
							<g>
								<path style="fill:#B56167;" d="M396.61,389.95c0,0,9.15,1.99,13.93,1.99c4.77,0,18.45-7.25,21.12-4.58
									c2.67,2.67-10.38,6.17-7.59,8.95c2.79,2.79,25.86,3.78,23.67,5.97c-2.19,2.19-15.12,1.19-15.12,1.19s16.11,1.59,16.11,3.78
									c0,2.19-15.92,0.8-15.92,0.8s14.05,2.01,12.14,3.93c-1.92,1.92-13.3,0-13.3,0s10.06,1.5,7.53,4.03
									c-0.8,0.8-16.51,0.2-23.48-2.98c-6.96-3.18-10.01-6.76-11.27-6.76s-14.59-2.39-14.59-2.39L396.61,389.95z"/>
								<path style="fill:#F0EDF2;" d="M308.01,276.58c0,0,11.02,73.67,26.46,83.96s64.67,24.25,64.67,24.25s2.94,17.64-8.82,27.19
									c0,0-55.85-11.02-75.69-24.99c-19.84-13.96-43.36-98.47-40.42-107.29C277.15,270.88,308.01,276.58,308.01,276.58z"/>
							</g>
							<g>
								<g>
									<path style="fill:#39657D;" d="M321.06,262.51c-0.41,0-0.66-0.05-0.69-0.06l0.46-2.14c0.06,0.01,1.45,0.24,3.01-1.31
										c3.2-3.17,7.61-14.1,1.19-51.72l2.15-0.37c6.31,36.92,2.44,49.61-1.92,53.76C323.59,262.25,321.96,262.51,321.06,262.51z"
										/>
								</g>
								<g>
									<path style="fill:#F4B3BD;" d="M348.1,214.87c0.82-8.75,0.8-18.11,0.03-26.17c-1.63-17.03-19.73-21.03-19.73-21.03
										s-31.32-14.26-44.48,12.55c-13.16,26.81-1.19,45.06-2.14,51.15c-0.95,6.09-7.5,23.01-7.5,23.01l28.14,14.74
										c0,0,2.5-11.13,3.27-16.08c0.77-4.95,6.4-6.02,6.4-6.02c10.3,3.95,22.07,6.64,30.07-7.84c1.65-2.99,2.97-6.96,3.99-11.5
										c1.54-0.09,4.72-0.43,5.85-1.56C353.19,224.95,349.67,217.87,348.1,214.87z"/>
									<path style="fill:#FFFFFF;" d="M343.09,232.13l-8.92-2.53c0,0,0.34,8.42,3.12,8.42
										C340.06,238.02,343.09,232.13,343.09,232.13z"/>
									<circle style="fill:#39657D;" cx="341.49" cy="209.76" r="2.86"/>
									<path style="fill:#39657D;" d="M334.17,203.46c0,0,6.02-1.16,12.24,0c0,0,1.19-4.82-3.61-4.82
										C337.99,198.64,334.17,203.46,334.17,203.46z"/>
									<path style="fill:#0055AA;" d="M350.18,161.67c6-1.04,11.83,2.42,13.59,8.25c1.2,3.97,1.95,8.52,1.28,12.85
										c-1.79,11.42-14.02,14.12-23.85,11.94c-8.01-1.78-14.74-7.58-14.74-7.58s0.22,11.43-5.73,15.76
										c-5.94,4.34-3.7,9.66-6.36,9.25c-2.67-0.42,1.47-11.19-5.37-13.05c-6.76-1.84-8.5,10.64-3.99,14.59l-1.54,4.91
										c0,0-6.73,9.8-14.59,10.13c-7.85,0.33-11.82-3.44-16.41-18.98c-4.59-15.54-6.24-33.41,2.26-45.35
										c8.5-11.93,18.98-7.18,19.28-9.08c0.3-1.9,11.23-12.02,26.83-4.02C330.47,156.22,339.24,163.56,350.18,161.67z"/>
									<path style="opacity:0.5;fill:#F7BFC5;" d="M301.68,231.44c-3.12,3.76,4.01,21.62,4.01,21.62c0.77-4.95,6.4-6.02,6.4-6.02
										S299.08,237.08,301.68,231.44z"/>
									<path style="opacity:0.5;fill:#0055AA;" d="M364.88,183.63c-22.04,8.53-47.52-5.64-51.62-10.26
										c-0.86,6.98-1.01,13.54-9.63,22.63c-14.02,14.17-26.92,6.66-34.28-0.48c0.66,4.8,1.75,9.61,3.12,14.22
										c4.59,15.54,8.56,19.31,16.41,18.98c7.85-0.33,14.59-10.13,14.59-10.13l1.54-4.91c-4.51-3.95-2.76-16.43,3.99-14.59
										c6.84,1.87,2.71,12.63,5.37,13.05c2.67,0.42,0.42-4.91,6.36-9.25c5.94-4.34,5.73-15.76,5.73-15.76s6.73,5.8,14.74,7.58
										C350.77,196.84,362.63,194.32,364.88,183.63z"/>
								</g>
								<g>
									<g>
										<path style="fill:#39657D;" d="M371.64,375.37c-2.61,0-5.32-0.27-8.15-0.85c-37.63-7.72-43.41-101.82-43.94-112.28
											c-11.59-4.11-12.89-49.79-13.01-55.11l2.18-0.05c0.3,14.3,3.05,51.73,12.05,53.23l0.87,0.15l0.04,0.88
											c0.04,1.03,4.89,103.38,42.24,111.04c27.24,5.59,42.86-18.46,56.63-39.69c5.18-7.98,10.07-15.51,15.11-20.56
											c18.13-18.13,29.47-18.4,29.94-18.41l0.01,2.18c-0.1,0-11.02,0.38-28.41,17.77c-4.88,4.88-9.71,12.32-14.83,20.2
											C410.27,352.57,395.47,375.37,371.64,375.37z"/>
									</g>
									<g>
										<path style="fill:#FFFFFF;" d="M310.28,207.1c0,1.46-1.18,2.64-2.64,2.64c-1.46,0-2.64-1.18-2.64-2.64
											c0-1.46,1.18-2.64,2.64-2.64C309.1,204.47,310.28,205.65,310.28,207.1z"/>
									</g>
								</g>
							</g>
							<g>
								<path style="fill:#FFFFFF;" d="M269.16,251.86c0,0,26.81,6.66,45.92,33.85c16.16,23,16.48,163.61,16.48,163.61l-118.17,0.61
									c0,0,11.3-32.4,16.14-63.15c5.26-33.47,6.11-85.11,14.71-105.64C257.33,249.83,269.16,251.86,269.16,251.86z"/>
								<path style="fill:#F0EDF2;" d="M287.26,428.07c-11.83,1.07-24.19-9.68-24.73-1.08c-0.29,4.63-2.76,14.1-3.55,22.69
									l72.57-0.37c0,0-1.63-137.41-17.79-160.4c-6.58-9.37-25.11-17.78-31.93-21.79c-16.56,3.58-20.5,3.17-27.36,15.82
									c0,0-5.91,10.21,15.05,42.46s45.69,51.6,51.06,61.28c5.38,9.68,3.76,25.8-6.99,28.49c-10.75,2.69-43.54-33.33-41.39-23.11
									C274.36,402.27,299.09,427,287.26,428.07z"/>
								<path style="fill:#F0EDF2;" d="M269.16,251.86c0,0,13.87,8.73,22.69,25.64c8.82,16.9,5.14,18.37,5.14,18.37l17.64,5.14
									l-14.7,8.82l30.29,87.88c0,0-2.37-78.33-8.98-99.64c-6.61-21.31-44.09-54.38-44.09-54.38L269.16,251.86z"/>
							</g>
						</g>
						<g>
							<g>
								<path style="fill:#DD4C38;" d="M386.19,416.22c0,0-2.31-0.34,2.11,7.07c4.42,7.41,9.73,10.75,11.33,9.95
									c1.6-0.8,4.75-5.53,1.92-11.37C398.71,416.03,386.19,416.22,386.19,416.22z"/>
								<path style="fill:#DF9296;" d="M402.39,429.8c0,0-6.7,3.27-7.8,4.21c-1.1,0.95-3.37,5.38-9.99,9.09
									c-5.77,3.24-10.46,6.86-12.03,5.02c-1.58-1.83,4.58-5.43,6.35-6.96c1.77-1.52,2.27-4.27,2.27-4.27s-3.86-0.3-8.76,1.05
									c-4.9,1.35-10.39,9.48-12.41,8.67c-3.08-1.24,5.51-10.64,5.51-10.64s-8.77,8.83-10.13,7.25
									c-1.37-1.59,7.52-10.93,7.52-10.93s4.8-4.64,9.75-6.56c4.94-1.91,10.74-2.24,17.09-4.05c6.35-1.81,14.52-10.28,14.52-10.28
									s12.49,7.85,9.97,11.39C413.01,424.51,402.39,429.8,402.39,429.8z"/>
								<path style="fill:#CD4438;" d="M484.03,272.3c0,0-18.93,6.11-26.75,35.38c-7.82,29.28-12.37,58.4-19.1,67.42
									c-6.74,9.02-51.99,41.12-51.99,41.12s6.62,2.1,11.36,7.61c4.74,5.51,2.08,9.41,2.08,9.41s53.46-21.01,65.39-44.07
									c11.93-23.06,20.56-89.1,21.51-101.89C487.5,274.49,484.03,272.3,484.03,272.3z"/>
								<path style="fill:#DD4C38;" d="M465.02,389.17c8.91-17.21,15.97-58.37,19.38-83.46c-8.46,0.08-16.12,1.59-16.12,1.59
									s-0.67,52.71-8.2,68.83c-6.35,13.6-48.9,40.26-62.06,48.27c4.07,5.2,1.62,8.83,1.62,8.83S453.09,412.23,465.02,389.17z"/>
								<path style="fill:#F7BFC5;" d="M500.47,265.06c0,0,5.93-2.86,7.8-4.74c1.87-1.87,1.02-25.02,1.02-25.02h29.45
									c0,0-2.62,22.58,0,25.2c2.62,2.62,5.48,2.39,5.48,2.39s5.75,16.88-13.96,24.09c-19.71,7.21-33.44-5.19-33.44-13.09
									C496.81,265.99,500.47,265.06,500.47,265.06z"/>
								<path style="opacity:0.5;fill:#F7BFC5;" d="M538.66,235.97c0.05-0.42,0.07-0.67,0.07-0.67h-29.45c0,0,0.54,14.78-0.2,21.67
									C518.24,255.66,534.31,251.2,538.66,235.97z"/>
								<path style="fill:#DD4C38;" d="M500.47,265.06c0,0-7.79,17.33,15.92,19.1c23.71,1.78,27.83-21.27,27.83-21.27
									s22.9,2.07,31.76,21.63c8.87,19.57-2.7,165.47-2.7,165.47H446.36c0,0,18.67-47.79,18.66-76.76
									c-0.01-28.97,2-75.77,8.69-93.17C476.13,273.79,500.47,265.06,500.47,265.06z"/>
								<path style="fill:#DD4C38;" d="M553.16,309.28c0,0,0,33.68,0,53.95c0,20.27-25.09,24.82-23.1,31.49
									c1.99,6.67,15.15,10.83,12.35,19.48c-2.81,8.65-33.31,8.91-33.31,26.14c0,3.16,0.94,6.42,2.62,9.64h61.57
									c0,0,8.04-101.49,5.57-146.53C570.38,300.93,561.53,302.24,553.16,309.28z"/>
								<path style="fill:#FFFFFF;" d="M502.11,264.29c0,0-3.44-2-6.3,2.58c-2.86,4.58-4.87,19.19,15.47,21.48
									c20.34,2.29,29.79-8.02,31.79-11.74c2.01-3.72,4.58-10.31,4.01-12.89c-0.57-2.58-5.23-1.37-5.23-1.37
									s1.37,20.52-24.12,20.81C492.25,283.44,502.11,264.29,502.11,264.29z"/>
								<path style="fill:#DF9296;" d="M512.58,404.99c0,0-12.92,1.52-20.94,0.53c-8.02-0.99-9.62-1.6-19.84,1.72
									c-10.22,3.33-28.79,15.01-24.83,16.76c3.96,1.74,16.03-6.37,16.03-6.37s-13.94,9.75-12.5,11.6
									c1.44,1.85,15.74-7.44,15.74-7.44s-10.68,10.37-7.39,10.78c3.29,0.41,12.07-8.11,12.07-8.11s-7.96,8.62-4.87,9
									c3.08,0.38,10.09-7.31,10.09-7.31s10.48-0.37,13.95-3.07c3.47-2.7,5.86-3.83,8.33-3.53c2.47,0.31,18.44,1.42,18.44,1.42
									L512.58,404.99z"/>
								<path style="fill:#DD4C38;" d="M561.23,268.61c0,0,18.09,6.59,27.96,37.47c10.01,31.33,15.47,96.92,4.66,108.7
									c-10.81,11.78-86.07,11.96-86.07,11.96s-3.54-13.4-3.96-23.28c0,0,62.01-8.86,65.31-12.46c3.3-3.59-17.74-77.72-18.5-95.35
									C549.87,278.02,561.23,268.61,561.23,268.61z"/>
								<path style="fill:#DD4C38;" d="M571.48,275.74c0.14,0.69,0.3,1.39,0.5,2.13c0,0,15.28,72.2,17.48,98.26
									c2.21,26.06-0.58,33.8-25.62,38.08c-17.97,3.07-44.66,2.83-58.31,2.44c1.08,5.65,2.25,10.09,2.25,10.09
									s75.26-0.18,86.07-11.96c10.81-11.78,5.35-77.37-4.66-108.7C584.25,290.62,577.25,281.24,571.48,275.74z"/>
								<g>
									<path style="fill:#DD4C38;" d="M503.82,404c-0.26,0-0.49-0.19-0.54-0.46c-0.05-0.3,0.15-0.58,0.45-0.63
										c0.53-0.09,52.89-8.87,64.55-11.97c8.71-2.32,15.26,1.92,18.23,4.46c-0.92-1.87-2.81-4.59-6.54-6.6
										c-1.6-0.86-2.29-1.55-2.25-2.24c0.02-0.23,0.14-0.66,0.79-0.91c1.98-0.74,8.3,0.5,10.78,2.99c0.21,0.21,0.21,0.56,0,0.77
										c-0.21,0.21-0.56,0.21-0.77,0c-2.38-2.38-8.62-3.3-9.67-2.73c0.11,0.16,0.47,0.53,1.63,1.16c6.71,3.63,7.85,9.28,7.9,9.52
										c0.05,0.24-0.08,0.49-0.3,0.59c-0.22,0.11-0.49,0.05-0.65-0.14c-0.07-0.09-7.56-8.83-18.88-5.81
										c-11.71,3.12-64.12,11.91-64.65,12C503.88,404,503.85,404,503.82,404z"/>
								</g>
								<g>
									<path style="fill:#DD4C38;" d="M555.83,325.01c-0.24,0-0.45-0.15-0.52-0.39c-9.72-32.84-3.31-42.88-3.03-43.29
										c0.17-0.25,0.51-0.31,0.76-0.15c0.25,0.17,0.32,0.51,0.15,0.76l0,0c-0.07,0.1-6.36,10.16,3.17,42.37
										c0.09,0.29-0.08,0.59-0.37,0.68C555.94,325,555.88,325.01,555.83,325.01z"/>
								</g>
							</g>
							<g>
								<path style="fill:#F7BFC5;" d="M486.75,181.95c0,0-9.44,31.47,1.41,57.24c6.42,15.24,18.59,12.8,29.88,9.69
									c12.42-3.42,27.06-14.6,33.94-33.76c6.88-19.16,7.46-40.35-14.24-49.42C516.04,156.62,491.95,168.04,486.75,181.95z"/>
								<path style="fill:#482320;" d="M493.95,215.4c0.05,1.5-1.13,2.75-2.62,2.79c-1.5,0.05-2.75-1.13-2.79-2.62
									c-0.05-1.5,1.13-2.75,2.62-2.79C492.66,212.73,493.91,213.91,493.95,215.4z"/>
								<path style="fill:#482320;" d="M484.13,209.75c0,0,5.67-1.28,11.59-0.36c0,0,0.99-4.6-3.56-4.46
									C487.6,205.07,484.13,209.75,484.13,209.75z"/>
								<path style="fill:#482320;" d="M510.05,216.03c0.05,1.5,1.3,2.67,2.79,2.62c1.5-0.05,2.67-1.3,2.62-2.79
									s-1.3-2.67-2.79-2.62C511.18,213.28,510,214.53,510.05,216.03z"/>
								<path style="fill:#482320;" d="M519.51,209.77c0,0-5.74-0.92-11.59,0.36c0,0-1.27-4.53,3.28-4.67
									C515.75,205.32,519.51,209.77,519.51,209.77z"/>
								<path style="fill:#B56167;" d="M495.22,226.96c0,0,4.61,1.4,9.08,0c0,0-1.96,2.11-5.5,2.11
									C495.27,229.07,495.22,226.96,495.22,226.96z"/>
								<path style="fill:#FFFFFF;" d="M496.15,233.34l12.98-0.64c0,0-4.98,8.22-9.37,6.17
									C495.38,236.81,496.15,233.34,496.15,233.34z"/>
								<path style="fill:#482320;" d="M527.07,186.6c0,0-17.47,10.35-37.36,0.62c0,0-6.06,3.08-6.06,10.63
									c0,5.91-11.26-8.74-7.69-22.42c3.57-13.68,38.96-22.48,51.52-20.68c12.56,1.81,14.15,8.75,16.35,12.5
									c0,0,9.94,0.97,12.81,12.83c2.62,10.81,3.12,31.94-8.29,47.72c-1.56,2.16-5,1.41-5.39-1.23c-0.21-1.43-0.31-6.56,0.59-6.38
									c4.69,0.91,11.21-10.36,7.16-14.85c-5.71-6.34-10.4,1.57-10.4,6.68c0,5.29-4.73-4.57-5.11-9.89
									C534.82,196.82,528.21,196.16,527.07,186.6z"/>
							</g>
						</g>
						<g>
							<g>
								<g>
									<path style="fill:#E4DFE8;" d="M481.53,278.92h-5.3v31.81h5.3c5.86,0,10.6-7.12,10.6-15.9
										C492.13,286.04,487.38,278.92,481.53,278.92z"/>
									<ellipse style="fill:#B1A9B9;" cx="476.23" cy="294.82" rx="10.6" ry="15.9"/>
								</g>
								<g>
									<path style="fill:#E4DFE8;" d="M474.04,284.35h-6.98v20.95h6.98c3.86,0,6.98-4.69,6.98-10.47
										C481.03,289.04,477.9,284.35,474.04,284.35z"/>
									<ellipse style="fill:#B1A9B9;" cx="467.06" cy="294.82" rx="6.98" ry="10.47"/>
								</g>
							</g>
							<path style="fill:#B56167;" d="M420.35,311.51c0,0,11.03-1.64,15.86-5.72c4.82-4.08,11.5-15.59,17.44-17.81
								c5.94-2.23,21.15-8.53,21.52-5.57s-12.62,8.91-12.62,8.91s16.33-5.2,15.59-1.48c-0.74,3.71-15.21,7.42-15.21,7.42
								s16.7,0.37,13.36,2.97c-3.34,2.6-12.99,1.86-12.99,1.86s12.25,2.97,9.28,4.45c-2.97,1.48-10.02,0.37-10.02,0.37
								s-10.02,11.5-21.52,11.13l-15.21,8.16L420.35,311.51z"/>
							<path style="fill:#FFFFFF;" d="M256.28,275.25c-2.74,5.17-2.61,11.39-0.05,16.66c8.9,18.3,49.87,67.27,73.83,69.36
								c20.71,1.81,101.41-27.93,101.41-27.93s2.19-20.58-8.82-23.52l-87.45,17.64c0,0-40.08-50.38-48.43-58.73
								C280.02,261.98,262.72,263.11,256.28,275.25z"/>
							<path style="fill:#F0EDF2;" d="M420.35,327.2c-7.41,3.98-83.59,20.03-90.13,26.57c-3.58,3.58-2.39,6-0.58,7.45
								c0.14,0.01,0.28,0.04,0.41,0.05c20.71,1.81,101.41-27.93,101.41-27.93s1.4-13.17-3.68-19.94
								C427.26,317.31,425.6,324.38,420.35,327.2z"/>
						</g>
						<g>
							<g>
								<path style="fill:#B1A9B9;" d="M167.75,382.85h-3.86v-9.09c0-2.45-1.99-4.45-4.45-4.45h-24.02c-2.45,0-4.45,2-4.45,4.45
									v9.09h-3.86v-9.09c0-4.58,3.73-8.31,8.31-8.31h24.02c4.58,0,8.31,3.73,8.31,8.31V382.85z"/>
							</g>
							<rect x="93.51" y="380.67" style="fill:#FFFFFF;" width="83.63" height="61"/>
							
								<rect x="177.14" y="380.67" transform="matrix(-1 -1.224647e-16 1.224647e-16 -1 378.8498 822.3484)" style="fill:#B1A9B9;" width="24.58" height="61"/>
							<circle style="fill:#75DECB;" cx="135.32" cy="411.17" r="20.25"/>
							<g>
								<rect x="129.05" y="397.51" style="fill:#FFFFFF;" width="13.01" height="27.33"/>
								
									<rect x="129.05" y="397.51" transform="matrix(-1.836970e-16 1 -1 -1.836970e-16 546.7341 275.6141)" style="fill:#FFFFFF;" width="13.01" height="27.33"/>
							</g>
						</g>
						<g>
							<path style="fill:#B1A9B9;" d="M233.92,441.68h-25.9v-77.85c0-7.15,5.8-12.95,12.95-12.95h0c7.15,0,12.95,5.8,12.95,12.95
								V441.68z"/>
							<path style="fill:#E4DFE8;" d="M238.65,441.68h-25.9v-77.85c0-7.15,5.8-12.95,12.95-12.95h0c7.15,0,12.95,5.8,12.95,12.95
								V441.68z"/>
							<rect x="220.97" y="358.4" style="fill:#FFFFFF;" width="10.02" height="83.27"/>
							<g>
								<g>
									<rect x="222.83" y="360.08" style="fill:#39657D;" width="0.55" height="81.6"/>
								</g>
								<g>
									<g>
										<rect x="224.43" y="361.87" style="fill:#39657D;" width="4.17" height="0.55"/>
									</g>
									<g>
										<rect x="224.43" y="363.36" style="fill:#39657D;" width="2.51" height="0.55"/>
									</g>
									<g>
										<rect x="224.43" y="364.85" style="fill:#39657D;" width="2.51" height="0.55"/>
									</g>
									<g>
										<rect x="224.43" y="366.34" style="fill:#39657D;" width="2.51" height="0.55"/>
									</g>
									<g>
										<rect x="224.43" y="367.84" style="fill:#39657D;" width="2.51" height="0.55"/>
									</g>
								</g>
								<g>
									<g>
										<rect x="224.43" y="369.37" style="fill:#39657D;" width="4.17" height="0.55"/>
									</g>
									<g>
										<rect x="224.43" y="370.86" style="fill:#39657D;" width="2.51" height="0.55"/>
									</g>
									<g>
										<rect x="224.43" y="372.36" style="fill:#39657D;" width="2.51" height="0.55"/>
									</g>
									<g>
										<rect x="224.43" y="373.85" style="fill:#39657D;" width="2.51" height="0.55"/>
									</g>
									<g>
										<rect x="224.43" y="375.34" style="fill:#39657D;" width="2.51" height="0.55"/>
									</g>
								</g>
								<g>
									<g>
										<rect x="224.43" y="376.88" style="fill:#39657D;" width="4.17" height="0.55"/>
									</g>
									<g>
										<rect x="224.43" y="378.37" style="fill:#39657D;" width="2.51" height="0.55"/>
									</g>
									<g>
										<rect x="224.43" y="379.86" style="fill:#39657D;" width="2.51" height="0.55"/>
									</g>
									<g>
										<rect x="224.43" y="381.35" style="fill:#39657D;" width="2.51" height="0.55"/>
									</g>
									<g>
										<rect x="224.43" y="382.85" style="fill:#39657D;" width="2.51" height="0.55"/>
									</g>
								</g>
								<g>
									<g>
										<rect x="224.43" y="384.38" style="fill:#39657D;" width="4.17" height="0.55"/>
									</g>
									<g>
										<rect x="224.43" y="385.87" style="fill:#39657D;" width="2.51" height="0.55"/>
									</g>
									<g>
										<rect x="224.43" y="387.37" style="fill:#39657D;" width="2.51" height="0.55"/>
									</g>
									<g>
										<rect x="224.43" y="388.86" style="fill:#39657D;" width="2.51" height="0.55"/>
									</g>
									<g>
										<rect x="224.43" y="390.35" style="fill:#39657D;" width="2.51" height="0.55"/>
									</g>
								</g>
								<g>
									<g>
										<rect x="224.43" y="391.88" style="fill:#39657D;" width="4.17" height="0.55"/>
									</g>
									<g>
										<rect x="224.43" y="393.38" style="fill:#39657D;" width="2.51" height="0.55"/>
									</g>
									<g>
										<rect x="224.43" y="394.87" style="fill:#39657D;" width="2.51" height="0.55"/>
									</g>
									<g>
										<rect x="224.43" y="396.36" style="fill:#39657D;" width="2.51" height="0.55"/>
									</g>
									<g>
										<rect x="224.43" y="397.86" style="fill:#39657D;" width="2.51" height="0.55"/>
									</g>
								</g>
								<g>
									<g>
										<rect x="224.43" y="399.39" style="fill:#39657D;" width="4.17" height="0.55"/>
									</g>
									<g>
										<rect x="224.43" y="400.88" style="fill:#39657D;" width="2.51" height="0.55"/>
									</g>
									<g>
										<rect x="224.43" y="402.38" style="fill:#39657D;" width="2.51" height="0.55"/>
									</g>
									<g>
										<rect x="224.43" y="403.87" style="fill:#39657D;" width="2.51" height="0.55"/>
									</g>
									<g>
										<rect x="224.43" y="405.36" style="fill:#39657D;" width="2.51" height="0.55"/>
									</g>
								</g>
								<g>
									<g>
										<rect x="224.43" y="406.89" style="fill:#39657D;" width="4.17" height="0.55"/>
									</g>
									<g>
										<rect x="224.43" y="408.39" style="fill:#39657D;" width="2.51" height="0.55"/>
									</g>
									<g>
										<rect x="224.43" y="409.88" style="fill:#39657D;" width="2.51" height="0.55"/>
									</g>
									<g>
										<rect x="224.43" y="411.37" style="fill:#39657D;" width="2.51" height="0.55"/>
									</g>
									<g>
										<rect x="224.43" y="412.87" style="fill:#39657D;" width="2.51" height="0.55"/>
									</g>
								</g>
								<g>
									<g>
										<rect x="224.43" y="414.4" style="fill:#39657D;" width="4.17" height="0.55"/>
									</g>
									<g>
										<rect x="224.43" y="415.89" style="fill:#39657D;" width="2.51" height="0.55"/>
									</g>
									<g>
										<rect x="224.43" y="417.38" style="fill:#39657D;" width="2.51" height="0.55"/>
									</g>
									<g>
										<rect x="224.43" y="418.88" style="fill:#39657D;" width="2.51" height="0.55"/>
									</g>
									<g>
										<rect x="224.43" y="420.37" style="fill:#39657D;" width="2.51" height="0.55"/>
									</g>
								</g>
								<g>
									<g>
										<rect x="224.43" y="421.9" style="fill:#39657D;" width="4.17" height="0.55"/>
									</g>
									<g>
										<rect x="224.43" y="423.4" style="fill:#39657D;" width="2.51" height="0.55"/>
									</g>
									<g>
										<rect x="224.43" y="424.89" style="fill:#39657D;" width="2.51" height="0.55"/>
									</g>
									<g>
										<rect x="224.43" y="426.38" style="fill:#39657D;" width="2.51" height="0.55"/>
									</g>
									<g>
										<rect x="224.43" y="427.88" style="fill:#39657D;" width="2.51" height="0.55"/>
									</g>
								</g>
								<g>
									<g>
										<rect x="224.43" y="429.41" style="fill:#39657D;" width="4.17" height="0.55"/>
									</g>
									<g>
										<rect x="224.43" y="430.9" style="fill:#39657D;" width="2.51" height="0.55"/>
									</g>
									<g>
										<rect x="224.43" y="432.39" style="fill:#39657D;" width="2.51" height="0.55"/>
									</g>
									<g>
										<rect x="224.43" y="433.89" style="fill:#39657D;" width="2.51" height="0.55"/>
									</g>
									<g>
										<rect x="224.43" y="435.38" style="fill:#39657D;" width="2.51" height="0.55"/>
									</g>
								</g>
							</g>
							<g>
								<rect x="208.02" y="431.45" style="fill:#0055AA;" width="73.18" height="10.23"/>
								<rect x="208.02" y="431.45" style="fill:#1A78C6;" width="58.61" height="10.23"/>
							</g>
						</g>
					</g>
					<path style="fill:#482320;" d="M688.47,441.68H70.59c-4.55,0-8.25,3.69-8.25,8.25c0,4.55,3.69,8.25,8.25,8.25h617.88
						c4.55,0,8.25-3.69,8.25-8.25C696.71,445.37,693.02,441.68,688.47,441.68z"/>
				</g>
				<g>
					<rect x="146.31" y="140.95" style="fill:#FFB0C9;" width="86.23" height="117.93"/>
					<rect x="151.4" y="147.91" style="fill:#FFFFFF;" width="76.04" height="104"/>
					<path style="fill:#DD4C38;" d="M202.1,143.26c-1.83-0.27-2.98-2.12-2.43-3.89c0.61-1.94-0.84-3.92-2.87-3.92h-7.37h-7.37
						c-2.04,0-3.49,1.98-2.87,3.92c0.56,1.77-0.6,3.61-2.43,3.89l-5.7,0.85v5.9h18.37h18.37v-5.9L202.1,143.26z"/>
					<g>
						<rect x="160.05" y="159.97" style="fill:#75DECB;" width="17.94" height="17.94"/>
						<polygon style="fill:#FFFFFF;" points="161.58,165.53 163.94,165.53 169.02,171.32 177.06,161.28 169.02,173.57 						"/>
						<g>
							<rect x="181.12" y="162.36" style="fill:#091143;" width="37.69" height="0.65"/>
						</g>
						<g>
							<polyline style="fill:#091143;" points="181.12,169.27 181.12,168.61 218.8,168.61 218.8,169.27 							"/>
						</g>
						<g>
							<rect x="181.12" y="174.86" style="fill:#091143;" width="37.69" height="0.65"/>
						</g>
					</g>
					<g>
						<rect x="160.05" y="182.1" style="fill:#75DECB;" width="17.94" height="17.94"/>
						<polygon style="fill:#FFFFFF;" points="161.58,187.66 163.94,187.66 169.02,193.45 177.06,183.41 169.02,195.7 						"/>
						<g>
							<rect x="181.12" y="184.49" style="fill:#091143;" width="37.69" height="0.65"/>
						</g>
						<g>
							<polyline style="fill:#091143;" points="218.8,190.74 218.8,191.39 181.12,191.39 181.12,190.74 							"/>
						</g>
						<g>
							<rect x="181.12" y="196.99" style="fill:#091143;" width="37.69" height="0.65"/>
						</g>
					</g>
					<g>
						<rect x="160.05" y="204.23" style="fill:#75DECB;" width="17.94" height="17.94"/>
						<polygon style="fill:#FFFFFF;" points="161.58,209.79 163.94,209.79 169.02,215.58 177.06,205.54 169.02,217.82 						"/>
						<g>
							<rect x="181.12" y="206.62" style="fill:#091143;" width="37.69" height="0.65"/>
						</g>
						<g>
							<polyline style="fill:#091143;" points="218.8,212.87 218.8,213.52 181.12,213.52 181.12,212.87 							"/>
						</g>
						<g>
							<rect x="181.12" y="219.12" style="fill:#091143;" width="37.69" height="0.65"/>
						</g>
					</g>
					<g>
						<rect x="160.05" y="226.35" style="fill:#75DECB;" width="17.94" height="17.94"/>
						<polygon style="fill:#FFFFFF;" points="161.58,231.92 163.94,231.92 169.02,237.71 177.06,227.66 169.02,239.95 						"/>
						<g>
							<rect x="181.12" y="228.75" style="fill:#091143;" width="37.69" height="0.65"/>
						</g>
						<g>
							<polyline style="fill:#091143;" points="218.8,235 218.8,235.65 181.12,235.65 181.12,235 							"/>
						</g>
						<g>
							<rect x="181.12" y="241.25" style="fill:#091143;" width="37.69" height="0.65"/>
						</g>
					</g>
				</g>
				<g>
					<path style="fill:#DD4C38;" d="M602.81,120.62L602.81,120.62c-4.62-9.41-16.7-12.21-24.98-5.79l-1.84,1.42l-1.84-1.42
						c-8.28-6.42-20.37-3.61-24.98,5.79l0,0c-2.81,5.73-2.07,12.58,1.9,17.58l24.92,21.61l24.92-21.61
						C604.89,133.2,605.63,126.36,602.81,120.62z"/>
					<g>
						<path style="fill:#FFFFFF;" d="M584.79,148.72L584.79,148.72c-0.37,0-0.68-0.25-0.77-0.6l-6.34-25.22l-7.75,21.33
							c-0.12,0.34-0.46,0.55-0.81,0.52c-0.36-0.03-0.65-0.29-0.72-0.64l-3.21-16.68l-3.45,8.46c-0.12,0.3-0.41,0.5-0.74,0.5h-25.02
							c-0.44,0-0.8-0.36-0.8-0.8c0-0.44,0.36-0.8,0.8-0.8h24.48l4.26-10.45c0.13-0.33,0.46-0.53,0.82-0.49
							c0.35,0.03,0.64,0.3,0.7,0.64l3.17,16.49l7.65-21.06c0.12-0.33,0.44-0.54,0.79-0.52c0.35,0.02,0.65,0.26,0.73,0.6l6.2,24.68
							l4.67-18.49c0.09-0.35,0.4-0.6,0.77-0.6c0,0,0,0,0.01,0c0.36,0,0.68,0.24,0.77,0.59l2.32,8.63h22.67c0.44,0,0.8,0.36,0.8,0.8
							c0,0.44-0.36,0.8-0.8,0.8h-23.28c-0.36,0-0.68-0.24-0.77-0.59l-1.68-6.27l-4.7,18.59
							C585.47,148.47,585.15,148.72,584.79,148.72z"/>
					</g>
				</g>
				<g>
					
						<ellipse transform="matrix(0.2272 -0.9739 0.9739 0.2272 252.3511 764.7433)" style="fill:#75DECB;" cx="608.02" cy="223.37" rx="26.34" ry="26.34"/>
					<g>
						<rect x="599.86" y="205.6" style="fill:#FFFFFF;" width="16.93" height="35.55"/>
						
							<rect x="599.86" y="205.6" transform="matrix(-1.836970e-16 1 -1 -1.836970e-16 831.6999 -384.9543)" style="fill:#FFFFFF;" width="16.93" height="35.55"/>
					</g>
				</g>
				<g>
					
						<ellipse transform="matrix(0.1587 -0.9873 0.9873 0.1587 122.7398 346.6563)" style="fill:#75DECB;" cx="264.77" cy="101.31" rx="30.8" ry="30.8"/>
					<g>
						<g>
							<path style="fill:#DD4C38;" d="M257.93,76.43c-4.73,0-8.57,3.84-8.57,8.57v12.26h17.14V85
								C266.5,80.27,262.67,76.43,257.93,76.43z"/>
							<path style="fill:#FFFFFF;" d="M257.93,118.08c-4.73,0-8.57-3.84-8.57-8.57V97.26h17.14v12.26
								C266.5,114.25,262.67,118.08,257.93,118.08z"/>
						</g>
						<g>
							<path style="fill:#DD4C38;" d="M283.77,94.73c-3.28-3.42-8.7-3.53-12.12-0.26l-8.85,8.48l11.86,12.38l8.85-8.48
								C286.93,103.57,287.05,98.14,283.77,94.73z"/>
							<path style="fill:#FFFFFF;" d="M253.7,123.55c-3.28-3.42-3.16-8.84,0.26-12.12l8.85-8.48l11.86,12.38l-8.85,8.48
								C262.4,127.08,256.97,126.97,253.7,123.55z"/>
						</g>
					</g>
				</g>
				<circle style="fill:#FFB0C9;" cx="419.29" cy="177.39" r="29.98"/>
				<g>
					<g>
						
							<rect x="428.24" y="153.22" transform="matrix(0.7071 -0.7071 0.7071 0.7071 21.266 358.3332)" style="fill:#75DECB;" width="29.88" height="0.55"/>
					</g>
					
						<rect x="383.52" y="200.74" transform="matrix(0.7071 0.7071 -0.7071 0.7071 258.9568 -218.6542)" style="fill:#FFFFFF;" width="19.8" height="5.04"/>
					
						<rect x="412.17" y="153.55" transform="matrix(0.7071 0.7071 -0.7071 0.7071 249.9933 -240.29)" style="fill:#B1A9B9;" width="5.76" height="56.16"/>
					
						<rect x="412.11" y="159.54" transform="matrix(0.7071 0.7071 -0.7071 0.7071 248.6778 -243.4728)" style="fill:#FFFFFF;" width="12.24" height="37.8"/>
					
						<rect x="399.36" y="190.34" transform="matrix(0.7071 0.7071 -0.7071 0.7071 253.9625 -230.7142)" style="fill:#B1A9B9;" width="12.24" height="1.71"/>
					
						<rect x="393.19" y="191.07" transform="matrix(0.7071 0.7071 -0.7071 0.7071 254.9504 -228.327)" style="fill:#FFFFFF;" width="19.8" height="5.04"/>
					<g>
						<g>
							<g>
								
									<rect x="428.15" y="163.2" transform="matrix(0.7071 -0.7071 0.7071 0.7071 8.4192 351.46)" style="fill:#39657D;" width="0.62" height="4.74"/>
							</g>
							<g>
								
									<rect x="426.28" y="164.67" transform="matrix(0.7071 -0.7071 0.7071 0.7071 7.4948 350.2976)" style="fill:#39657D;" width="0.62" height="2.86"/>
							</g>
							<g>
								
									<rect x="425.08" y="165.87" transform="matrix(0.7071 -0.7071 0.7071 0.7071 6.2948 349.8006)" style="fill:#39657D;" width="0.62" height="2.86"/>
							</g>
							<g>
								
									<rect x="423.88" y="167.07" transform="matrix(0.7071 -0.7071 0.7071 0.7071 5.0953 349.3038)" style="fill:#39657D;" width="0.62" height="2.86"/>
							</g>
							<g>
								
									<rect x="422.68" y="168.27" transform="matrix(0.7071 -0.7071 0.7071 0.7071 3.8909 348.7963)" style="fill:#39657D;" width="0.62" height="2.86"/>
							</g>
						</g>
						<g>
							<g>
								
									<rect x="422.12" y="169.23" transform="matrix(0.7071 -0.7071 0.7071 0.7071 2.3872 348.9615)" style="fill:#39657D;" width="0.62" height="4.74"/>
							</g>
							<g>
								
									<rect x="420.25" y="170.71" transform="matrix(0.7071 -0.7071 0.7071 0.7071 1.4672 347.8095)" style="fill:#39657D;" width="0.62" height="2.86"/>
							</g>
							<g>
								
									<rect x="419.05" y="171.91" transform="matrix(0.7071 -0.7071 0.7071 0.7071 0.2629 347.3021)" style="fill:#39657D;" width="0.62" height="2.86"/>
							</g>
							<g>
								
									<rect x="417.85" y="173.1" transform="matrix(0.7071 -0.7071 0.7071 0.7071 -0.9366 346.8052)" style="fill:#39657D;" width="0.62" height="2.86"/>
							</g>
							<g>
								
									<rect x="416.65" y="174.3" transform="matrix(0.7071 -0.7071 0.7071 0.7071 -2.1366 346.3082)" style="fill:#39657D;" width="0.62" height="2.86"/>
							</g>
						</g>
						<g>
							
								<rect x="416.09" y="175.26" transform="matrix(0.7071 -0.7071 0.7071 0.7071 -3.6447 346.463)" style="fill:#39657D;" width="0.62" height="4.74"/>
						</g>
					</g>
					<g>
						<g>
							<g>
								
									<rect x="414.22" y="176.74" transform="matrix(0.7071 -0.7071 0.7071 0.7071 -4.5732 345.2903)" style="fill:#39657D;" width="0.62" height="2.86"/>
							</g>
							<g>
								
									<rect x="413.02" y="177.94" transform="matrix(0.7071 -0.7071 0.7071 0.7071 -5.7693 344.8029)" style="fill:#39657D;" width="0.62" height="2.86"/>
							</g>
							<g>
								
									<rect x="411.82" y="179.14" transform="matrix(0.7071 -0.7071 0.7071 0.7071 -6.9645 344.3171)" style="fill:#39657D;" width="0.62" height="2.86"/>
							</g>
							<g>
								
									<rect x="410.62" y="180.34" transform="matrix(0.7071 -0.7071 0.7071 0.7071 -8.1685 343.8097)" style="fill:#39657D;" width="0.62" height="2.86"/>
							</g>
						</g>
						<g>
							<g>
								
									<rect x="410.05" y="181.29" transform="matrix(0.7071 -0.7071 0.7071 0.7071 -9.6768 343.964)" style="fill:#39657D;" width="0.62" height="4.74"/>
							</g>
							<g>
								
									<rect x="408.19" y="182.77" transform="matrix(0.7071 -0.7071 0.7071 0.7071 -10.6013 342.8014)" style="fill:#39657D;" width="0.62" height="2.86"/>
							</g>
							<g>
								
									<rect x="406.99" y="183.97" transform="matrix(0.7071 -0.7071 0.7071 0.7071 -11.797 342.3155)" style="fill:#39657D;" width="0.62" height="2.86"/>
							</g>
							<g>
								
									<rect x="405.79" y="185.17" transform="matrix(0.7071 -0.7071 0.7071 0.7071 -13.0043 341.7979)" style="fill:#39657D;" width="0.62" height="2.86"/>
							</g>
							<g>
								
									<rect x="404.59" y="186.37" transform="matrix(0.7071 -0.7071 0.7071 0.7071 -14.2004 341.3112)" style="fill:#39657D;" width="0.62" height="2.86"/>
							</g>
						</g>
					</g>
				</g>
			</g>
		</g>
	</g>
</g>
</svg>
