<?xml version="1.0" encoding="utf-8"?>
<!-- Generator: Adobe Illustrator 25.1.0, SVG Export Plug-In . SVG Version: 6.00 Build 0)  -->
<svg version="1.1" id="Layer_1" xmlns="http://www.w3.org/2000/svg" xmlns:xlink="http://www.w3.org/1999/xlink" x="0px" y="0px"
	 viewBox="0 0 1920 1080" style="enable-background:new 0 0 1920 1080;" xml:space="preserve">
<style type="text/css">
	.st0{fill:#FFFFFF;}
	.st1{clip-path:url(#SVGID_2_);}
	.st2{fill:url(#SVGID_3_);}
	.st3{fill:url(#SVGID_4_);}
	.st4{fill:url(#SVGID_5_);}
	.st5{fill:url(#SVGID_6_);}
	.st6{fill:url(#SVGID_7_);}
	.st7{fill:url(#SVGID_8_);}
	.st8{fill:#61EEDE;}
	.st9{fill:url(#SVGID_9_);}
	.st10{fill:#278996;}
	.st11{fill:url(#SVGID_10_);}
	.st12{fill:url(#SVGID_11_);}
	.st13{fill:url(#SVGID_12_);}
	.st14{fill:url(#SVGID_13_);}
	.st15{fill:#B55B74;}
	.st16{fill:url(#SVGID_14_);}
	.st17{fill:url(#SVGID_15_);}
	.st18{fill:#A7A9AC;}
	.st19{fill:url(#SVGID_16_);}
	.st20{fill:url(#SVGID_17_);}
	.st21{fill:url(#SVGID_18_);}
	.st22{fill:#7F3951;}
	.st23{fill:url(#SVGID_19_);}
	.st24{fill:url(#SVGID_20_);}
	.st25{fill:url(#SVGID_21_);}
	.st26{fill:#027D60;}
	.st27{fill:#E6E7E8;}
	.st28{fill:#D1D3D4;}
	.st29{fill:#7C4D56;}
	.st30{fill:url(#SVGID_22_);}
	.st31{fill:url(#SVGID_23_);}
	.st32{fill:url(#SVGID_24_);}
	.st33{fill:url(#SVGID_25_);}
	.st34{fill:#12A088;}
	.st35{fill:url(#SVGID_26_);}
	.st36{fill:url(#SVGID_27_);}
	.st37{fill:#81EAAC;}
	.st38{fill:url(#SVGID_28_);}
	.st39{fill:#5ACF8B;}
	.st40{fill:url(#SVGID_29_);}
	.st41{fill:url(#SVGID_30_);}
	.st42{clip-path:url(#SVGID_32_);}
	.st43{fill:url(#SVGID_33_);}
	.st44{fill:#39C481;}
	.st45{fill:url(#SVGID_34_);}
	.st46{fill:url(#SVGID_35_);}
	.st47{fill:#1C7F8C;}
	.st48{fill:url(#SVGID_36_);}
	.st49{fill:url(#SVGID_37_);}
</style>
<g>
	<g>
		<rect class="st0" width="1920" height="1080"/>
		<g>
			<defs>
				<path id="SVGID_1_" d="M0,0v1080h1249.51c-75.17-57.95-12.76-119.35-65.46-198.98c-27.54-41.61-48.88-87.34-59.14-136.34
					c-11.71-55.9-4.32-112.62,1.35-168.77c9.39-92.94,6.87-201.18-77.56-260.45c-71.55-50.23-172.33-42.71-234.55-108.32
					C762.94,153.15,747.45,68.15,776.32,0H0z"/>
			</defs>
			<clipPath id="SVGID_2_">
				<use xlink:href="#SVGID_1_"  style="overflow:visible;"/>
			</clipPath>
			<g class="st1">
				<linearGradient id="SVGID_3_" gradientUnits="userSpaceOnUse" x1="675.9769" y1="-97.2" x2="675.9769" y2="470.0225">
					<stop  offset="0" style="stop-color:#FFF0B3"/>
					<stop  offset="1" style="stop-color:#9BFAE2"/>
				</linearGradient>
				<rect class="st2" width="1351.95" height="1080"/>
				<g>
					<linearGradient id="SVGID_4_" gradientUnits="userSpaceOnUse" x1="279.5946" y1="312.1596" x2="281.6705" y2="568.9436">
						<stop  offset="0" style="stop-color:#9BFAE2"/>
						<stop  offset="1" style="stop-color:#61EEDE"/>
					</linearGradient>
					<path class="st3" d="M401.24,290.69l-6.73,3.94c4.37,8.33,5.05,18.18,2.96,27.3c-2.07,9.14-6.79,17.7-13.22,24.15
						c-6.57,6.62-14.76,11.51-23.62,14.88c-5.25,1.99-10.72,3.46-16.31,4.5c0.09-0.4,0.19-0.8,0.27-1.2
						c2.1-9.83,3.25-19.52,4.35-29.01c0.54-4.73,1.09-9.45,1.72-14c0.68-4.57,1.48-9.09,2.48-13.56c2.05-8.89,4.9-17.55,9.2-25.31
						c2.19-3.84,4.69-7.48,7.62-10.71c2.98-3.18,6.35-5.96,10.05-8.28l-3.94-7.15c-4.57,2.42-8.83,5.45-12.62,8.97
						c-3.75,3.58-6.96,7.62-9.8,11.87c-5.57,8.58-9.38,17.97-12.29,27.46c-1.42,4.75-2.63,9.54-3.69,14.34
						c-1.02,4.83-1.9,9.54-2.78,14.23c-1.75,9.35-3.52,18.52-6.03,27.19c-2.51,8.66-5.83,16.78-10.42,23.67
						c-2.34,3.4-4.92,6.55-7.84,9.31c-2.97,2.72-6.21,5.16-9.69,7.27c-11.79,6.97-26.07,10.2-40.61,10.96
						c-5.77-27.06-11.06-54.11-15.27-81.3c-8.82-56.86-12.9-114.57-6.42-171.74l-14.81-2.19c-10.68,58.39-10.51,118.34-5.43,177.13
						c3.63,42.13,9.69,83.83,16.12,125.21c-12.31-0.05-24.95-3.08-36.18-9.16c-17.04-9.17-31.17-25.55-37.81-45.14l-8.92,2.22
						c3.89,22.72,16.62,44.34,35.95,59.22c14.53,11.14,32.38,18.19,51.21,20.03c1.16,7.36,2.32,14.72,3.46,22.06
						c8.94,57.38,16.73,114.54,18.29,171.06c1.6,56.41-3.32,112.27-19.25,163.96l60.37,16.13c7.14-30.54,10.96-61.49,12.23-92.17
						c1.27-30.69,0.03-61.12-2.84-91.08c-5.77-59.97-17.86-118.03-30.75-175.16c-4.99-22.07-10.07-44.05-14.93-65.99
						c0.78-0.11,1.57-0.19,2.35-0.31c5.13-0.86,10.23-1.96,15.29-3.38c5.05-1.48,10.05-3.27,14.93-5.45
						c4.86-2.25,9.59-4.88,14.08-7.96c4.46-3.15,8.63-6.76,12.39-10.78c3.74-4.08,6.91-8.58,9.63-13.24
						c1.56-2.76,2.92-5.57,4.13-8.41c9.93-1.91,19.71-4.92,28.95-9.41c10.18-4.94,19.71-11.81,27.07-20.69
						c7.47-9.03,12.17-19.91,13.72-31.24C409.43,312.48,407.51,300.39,401.24,290.69z"/>
					<linearGradient id="SVGID_5_" gradientUnits="userSpaceOnUse" x1="508.7419" y1="270.8965" x2="508.7419" y2="537.2555">
						<stop  offset="0" style="stop-color:#9BFAE2"/>
						<stop  offset="1" style="stop-color:#61EEDE"/>
					</linearGradient>
					<path class="st4" d="M529.47,199.86c1.16-0.93,2.27-1.9,3.35-2.88c1.78,0.75,3.59,1.35,5.39,1.76
						c4.35,0.97,8.69,1.07,12.81,0.56c8.21-1.06,15.15-4.18,21.48-7.3c12.8-6.36,24.58-14.42,34.97-23.83l-3.08-3.94
						c-11.29,7.51-23.49,13.38-36.12,17.46c-6.34,2.06-12.57,3.61-18.14,3.42c-2.11-0.05-4.16-0.4-6.03-0.97
						c1.54-2.17,2.97-4.39,4.29-6.63c4.83-8.25,7.89-16.36,10.8-23.99c2.9-7.67,5.53-14.95,8.75-21.55c1.61-3.3,3.33-6.46,5.3-9.35
						c1-1.43,1.99-2.86,3.14-4.18l1.68-2.02l1.84-1.9c4.92-5.1,11-9.35,17.65-12.94c13.34-7.25,28.82-11.66,44.36-15.89l-1.64-8.05
						c-16.06,2.31-32.51,4.7-48.67,10.96c-5.96,2.31-11.89,5.18-17.47,8.84c0.9-5.18,2.55-10.35,4.96-15.24
						c4.46-9.07,11.44-17.27,20.42-22.99l-1.84-3.67c-10.69,4.11-20.31,11.48-27.6,20.93c-6.48,8.4-11.21,24.09-13.18,36.37
						c-2.41,2.91-4.58,5.95-6.59,9.01c-4.85,7.43-8.68,15.01-12.43,22.08c-3.75,7.09-7.41,13.77-11.52,19.03
						c-4.16,5.42-9.07,10-13.99,12.95c-1.79,1.04-3.53,1.81-5.2,2.36c-5.28-38.38-11.57-76.58-18.9-114.55l-17.07,2.7
						c7.1,57.39,11.82,114.99,14.22,172.61c-0.25-0.05-0.49-0.09-0.74-0.15c-3.99-0.97-8.25-3.06-12.22-6.01
						c-8.34-6.07-16.04-16.06-26-25.22c-19.77-18.11-44.58-29.35-69.83-32.46l-1.06,5.04c23.28,7.15,43.58,21.55,57.52,39.81
						c6.99,8.93,12.62,20.22,22.56,31.02c5.1,5.46,11.31,10.41,18.88,13.96c3.62,1.68,7.6,3.02,11.91,3.79
						c5.22,188.25-14.43,376.35-58.2,557.74l68.22,13.99c26.12-153.07,35.63-308.32,28.84-462.31c1.88-3.8,3.87-7.39,6.12-10.67
						c2.38-3.5,5.14-6.65,8.53-10.03c3.34-3.35,7.1-6.8,10.78-10.72c7.49-7.95,13.32-17.31,17.15-27.22
						c3.84-9.92,5.76-20.44,5.58-30.83l-6.98-0.37c-1.24,9.38-4.37,18.36-8.93,26.36c-4.57,8.01-10.58,14.95-17.6,20.47
						c-3.57,2.82-7.57,5.53-11.74,8.61c-1.48,1.09-3,2.28-4.52,3.52c-2.69-46.12-6.84-92.11-12.45-137.87
						c1.35-0.4,2.68-0.85,3.96-1.36C520.59,205.99,525.34,203.09,529.47,199.86z"/>
					<linearGradient id="SVGID_6_" gradientUnits="userSpaceOnUse" x1="47.0528" y1="395.4572" x2="47.0528" y2="672.848">
						<stop  offset="0" style="stop-color:#9BFAE2"/>
						<stop  offset="1" style="stop-color:#61EEDE"/>
					</linearGradient>
					<path class="st5" d="M142.78,717.76c-6.92-56.02-18.7-111.27-34.94-165c-2.19-7.29-4.5-14.55-6.88-21.79
						c2.87-31.19,12.62-62.68,29.07-91.35l-5.58-4.2c-14.97,15.56-28.01,33.44-38.58,53.04c-1.88-4.98-3.77-9.94-5.69-14.87
						c-7.56-19.48-15.33-38.7-22.84-57.9c5.3-4.25,9.84-9.25,13.5-14.75c2.91-4.42,5.29-9.19,6.97-14.08
						c1.65-4.84,2.62-9.42,3.6-13.68c0.97-4.27,1.93-8.23,3.37-11.85c1.45-3.57,3.44-7.06,6.02-10.18
						c5.08-6.31,12.26-11.27,20.5-13.82l-0.55-2.96c-9.21,0.77-18.43,4.38-26.06,10.48c-3.85,3.01-7.25,6.71-10.13,10.88
						c-2.84,4.18-4.95,8.58-6.88,12.7c-1.93,4.12-3.72,8-5.73,11.26c-1.97,3.21-4.31,6.03-6.93,8.56c-1.96,1.87-4.09,3.54-6.31,4.98
						c-9.16-24.25-17.54-48.62-24.08-73.4c-6.89-26-11.76-52.48-13.38-79.24l-17.28,0.39c-0.2,28.22,3.06,56.38,8.41,83.94
						c5.34,27.58,12.76,54.59,20.87,81.12c3.92,12.85,7.98,25.6,12.05,38.29c-32.56-24.19-59.63-56.36-77.67-93.35l-6.98,3.15
						c11.37,27.3,27.51,52.7,47.38,74.95c-7.04,1.95-14.73,2.44-22.35,1.36c-10.04-1.41-20-5.51-28.2-12.26l-3.52,3.51
						c7.44,8.91,17.65,15.69,29.06,19.55c10.47,3.54,26.74,4.46,39.02,2.4c9.76,9.42,20.24,18.11,31.36,25.99
						c1.61,5.06,3.22,10.11,4.8,15.16c8.19,26.06,15.56,51.91,21.57,78.19c12.09,52.49,19.75,105.85,22.73,159.33
						c2.9,53.48,1.28,107.04-4.87,159.89l61.36,5.09C151.74,830.55,149.62,773.79,142.78,717.76z"/>
				</g>
				<g>
					<g>
						
							<linearGradient id="SVGID_7_" gradientUnits="userSpaceOnUse" x1="98.1716" y1="463.4875" x2="98.1716" y2="622.9442" gradientTransform="matrix(0.9235 0.3836 -0.3836 0.9235 492.6789 184.267)">
							<stop  offset="0" style="stop-color:#FFEB8A"/>
							<stop  offset="1" style="stop-color:#1BA365"/>
						</linearGradient>
						<path class="st6" d="M147.89,759.71c12.15,4.82,25-5.24,32.8-15.73c7.8-10.49,15.14-23.14,27.78-26.47
							c18.41-4.85,40.45,12.49,55.47,0.79c11.46-8.92,9.2-28.99,21.19-37.18c6.57-4.49,15.36-3.82,22.7-6.89
							c11.24-4.71,16.91-16.92,23.66-27.07c6.75-10.15,18.64-19.82,30.02-15.47c9.8,3.75,13.3,15.75,14.1,26.2
							c0.8,10.46,0.52,21.92,7.08,30.11c10.86,13.56,32.34,9.52,48.44,16.02c12.09,4.88,21.03,15.81,33.25,20.34
							c14.88,5.52,31.71,0.58,47.24,3.88c22.47,4.77,39.46,68.3,35.68,90.96l-373.3-36.3L147.89,759.71z"/>
					</g>
					<g>
						
							<linearGradient id="SVGID_8_" gradientUnits="userSpaceOnUse" x1="622.499" y1="1770.7008" x2="615.3771" y2="1893.986" gradientTransform="matrix(0.9529 -0.3032 0.3032 0.9529 -551.4945 -800.3797)">
							<stop  offset="0" style="stop-color:#61EEDE"/>
							<stop  offset="1" style="stop-color:#146D6B"/>
						</linearGradient>
						<path class="st7" d="M623.67,784.79c4.89-1.82,8.55-4.72,11.26-7.75c0-2.75-0.12-5.51-0.36-8.25
							c-0.2-2.27-0.49-4.54-0.85-6.79c-8.51,16.14-19.13,16.3-19.13,16.3c8.81-5.76,14.07-15.87,17.21-25.36
							c-4.31-16.47-12.83-31.89-23.89-44.72c-8.68-10.08-19.06-18.56-30.72-24.96c-0.16-0.09-0.31-0.12-0.46-0.12
							c-0.34-0.05-0.67,0.1-0.83,0.53c-5.06,13.49-10.18,27.21-13.68,41.25c2.63,5.36,5.94,10.96,9.86,15.43
							c0,0-6.41-1.31-12.1-5.11c-1.4,7.66-2.21,15.42-2.16,23.3c0.08,12.16,2.15,24.72,7.42,35.76
							c4.39,9.19,12.35,16.54,20.55,22.33c9.19,6.48,19.71,11.74,30.82,13.88c0.32,0.14,0.7,0.09,0.98-0.28
							c10.43-13.77,16.15-30.52,17.17-47.64C629.02,784.04,623.67,784.79,623.67,784.79z"/>
						<path class="st8" d="M576.73,683.13c-0.34-0.05-0.67,0.1-0.83,0.53c-0.02,0.05-0.03,0.09-0.05,0.14
							c15.02,42.88,5.6,91.76,29.57,132.05c2.96,4.97,6.25,9.72,9.73,14.33c0.49,0.11,0.98,0.22,1.48,0.31
							c0.31,0.13,0.68,0.09,0.95-0.26c-2.72-3.56-5.33-7.2-7.78-10.96c-6.81-10.49-11.77-21.83-14.96-33.92
							c-6.21-23.55-6.44-48.11-10.06-72.09c-1.52-10.08-3.66-20.06-6.98-29.67c-0.2-0.11-0.4-0.23-0.61-0.34
							C577.02,683.16,576.87,683.13,576.73,683.13z"/>
					</g>
					<g>
						<g>
							
								<linearGradient id="SVGID_9_" gradientUnits="userSpaceOnUse" x1="35.0827" y1="-782.317" x2="24.1162" y2="-701.4925" gradientTransform="matrix(0.8971 0.4417 -0.4417 0.8971 312.8747 1404.1088)">
								<stop  offset="0" style="stop-color:#115A69"/>
								<stop  offset="1" style="stop-color:#164A62"/>
							</linearGradient>
							<path class="st9" d="M653.05,804.24c2.63,1,5.48,1.26,8.29,1.09c10.02-11.1,17.96-24.33,23.75-38.14
								c10.91-26.03,15.1-54.29,19.2-82.21c-14.1,12.21-27.88,24.79-41.34,37.7c-2.04,6.7-3.51,13.86-2.45,18.47
								c0,0-5.23-2.91-7.39-8.88c-2.27,2.26-4.53,4.55-6.73,6.89c0.31,8.26,2.11,19.13,8.64,25.84c0,0-9.25-5.38-14.8-19.01
								c-6.87,8.03-12.88,16.68-16.9,26.42c-7.13,17.27-9.2,39.76,3.22,53.71l3.36,2.59c11.29-5.05,21.19-12.5,29.68-21.46
								C655.79,805.84,653.05,804.24,653.05,804.24z"/>
						</g>
						<path class="st10" d="M702.46,686.56c-9.94,22.75-20.21,45.47-33.69,66.38c-7.5,11.64-16.46,21.97-24.95,32.87
							c-7.2,9.24-14.67,20.11-15.68,32.13c-0.27,3.23-0.13,6.46,0.31,9.66l1.44,1.1c0.05-0.02,0.09-0.04,0.14-0.06
							c-0.59-3.63-0.79-7.31-0.45-10.97c1.16-12.64,9.7-23.98,17.36-33.54c7.88-9.83,15.87-19.42,22.73-30.01
							c6.97-10.75,13.09-22.02,18.75-33.5c5.55-11.27,10.64-22.75,15.67-34.26c0.07-0.46,0.14-0.92,0.2-1.39
							C703.67,685.51,703.07,686.04,702.46,686.56z"/>
					</g>
					<g>
						
							<linearGradient id="SVGID_10_" gradientUnits="userSpaceOnUse" x1="345.6537" y1="56.6956" x2="323.1532" y2="100.7033" gradientTransform="matrix(0.9823 0.1875 -0.1875 0.9823 142.0682 592.8147)">
							<stop  offset="0" style="stop-color:#018673"/>
							<stop  offset="1" style="stop-color:#0D4E50"/>
						</linearGradient>
						<path class="st11" d="M418.98,762.54c-4.55-20.76-5.98-42.2-4.22-63.38c8.75,15.45,12.37,33.76,10.15,51.38
							c11.06-24.3,23.6-50.22,47.05-62.98c-9.65,24.17-22.24,47.16-37.4,68.3c18.59-28.71,48.39-49.94,81.6-58.15
							c-17.24,27.39-40.58,50.92-67.82,68.39c20.55-14.82,44.9-24.32,70.06-27.34c-15.21,17.22-36.2,29.26-58.74,33.69
							L418.98,762.54z"/>
					</g>
					<g>
						<linearGradient id="SVGID_11_" gradientUnits="userSpaceOnUse" x1="364.8392" y1="732.902" x2="364.8392" y2="824.3964">
							<stop  offset="0" style="stop-color:#1BA365"/>
							<stop  offset="1" style="stop-color:#018673"/>
						</linearGradient>
						<path class="st12" d="M118.54,842.62c-8.02-15.29,3.77-34.75,19.46-41.95c15.69-7.2,33.73-5.98,50.99-6.26
							c17.26-0.29,36.07-2.97,47.93-15.52c7.8-8.26,11.35-19.53,16.75-29.52c5.41-9.99,14.35-19.67,25.71-19.82
							c7.58-0.11,14.58,4.09,22.1,4.96c24.1,2.8,43.07-27.95,66.99-23.82c22.42,3.87,28.82,34.05,47.87,46.49
							c23.33,15.23,57.12-0.84,81.25,13.08c11.09,6.4,18.17,18.2,29.03,25c14.05,8.8,31.79,7.84,48.24,9.81
							c16.46,1.96,35,9.65,38.86,25.77L118.54,842.62z"/>
					</g>
					<g>
						<linearGradient id="SVGID_12_" gradientUnits="userSpaceOnUse" x1="869.1622" y1="617.5" x2="869.1622" y2="776.9595">
							<stop  offset="0" style="stop-color:#FFEB8A"/>
							<stop  offset="1" style="stop-color:#1BA365"/>
						</linearGradient>
						<path class="st13" d="M681.13,817.7c13.07-0.21,21.08-14.43,24.25-27.11c3.17-12.68,5.1-27.18,15.5-35.11
							c15.14-11.54,42.15-3.99,51.53-20.55c7.16-12.64-2.62-30.3,5.31-42.46c4.35-6.66,12.72-9.42,18.32-15.08
							c8.58-8.66,9.12-22.11,11.46-34.08c2.34-11.96,9.61-25.46,21.79-25.81c10.48-0.3,18.33,9.44,23.08,18.79
							c4.75,9.35,8.89,20.05,18.09,25.09c15.23,8.36,33.51-3.61,50.88-3.79c13.03-0.13,25.48,6.53,38.51,6.03
							c15.86-0.61,29.51-11.63,45.11-14.54c22.58-4.21,47.04,11.78,52.24,34.15L714.14,829.08L681.13,817.7z"/>
					</g>
				</g>
				<g>
					<g>
						<linearGradient id="SVGID_13_" gradientUnits="userSpaceOnUse" x1="628.0676" y1="620.0724" x2="583.4422" y2="420.5641">
							<stop  offset="0" style="stop-color:#018673"/>
							<stop  offset="1" style="stop-color:#0D4E50"/>
						</linearGradient>
						<path class="st14" d="M575.91,334.6c-20.2-0.08-40.77-0.11-60.06,5.86c-19.3,5.97-37.47,19.01-44.54,37.93
							c-4.22,11.31-4.46,24.37-11.68,34.04c-8.43,11.29-23.58,14.49-36.61,19.84c-17.95,7.37-34.52,21.71-38.09,40.78
							c-4.62,24.69,14.2,48.58,36.63,59.89c22.43,11.31,48.13,13.6,72.64,19.12c24.51,5.53,50,15.85,63.16,37.25
							c10.51,17.1,13.51,41.18,31.7,49.68c13.07,6.11,28.6,0.98,41.2-6.04c12.6-7.02,24.67-16.09,38.93-18.28
							c18.4-2.83,36.42,6.34,54.96,8.07c26.27,2.46,52.68-10.89,69.07-31.58c16.39-20.69,23.37-47.82,22.62-74.19
							c-0.75-26.38-8.77-52.12-19.8-76.1c-12.18-26.47-28.31-51.46-49.78-71.16c-21.47-19.7-48.57-33.89-77.52-37.19L575.91,334.6z"
							/>
					</g>
					<path class="st15" d="M680.03,1106.63c-20.39-29.41-36.7-61.02-49.21-93.46c-12.6-32.44-21.56-65.68-27.96-98.97
						c-6.35-33.32-10.17-66.72-12.11-99.98c-1.94-33.21-2.12-66.15-1.57-98.84c1.2-65.35,5.58-129.65,6.28-193.62
						c0.18-8.08,0.02-15.76-0.24-23.71c-0.27-7.9-0.65-15.82-1.15-23.74c-1-15.83-2.41-31.66-4.36-47.35
						c-1.96-15.68-4.44-31.27-7.94-46.4c-1.76-7.55-3.78-14.98-6.25-22.06c-2.46-7.03-5.43-13.85-9.05-19.13l17.09-12.73
						c2.99,3.87,5.41,7.82,7.52,11.78c2.12,3.97,3.94,7.95,5.6,11.95c3.3,7.99,5.96,16.02,8.32,24.07
						c4.68,16.09,8.17,32.25,11.13,48.45c2.95,16.2,5.31,32.43,7.26,48.73c0.97,8.15,1.83,16.31,2.57,24.51
						c0.37,4.1,0.7,8.21,1,12.35l0.84,12.29c4.61,65.05,5.5,129.84,9.56,193.52c2.07,31.81,4.85,63.38,9.23,94.39
						c4.36,30.96,10.45,61.45,18.64,91.01c8.23,29.53,18.6,58.13,31.64,84.92c12.96,26.83,28.7,51.75,47,74L680.03,1106.63z"/>
					<path class="st15" d="M600.06,485.94c0.66-5.64,2.39-11,4.76-15.73c2.36-4.76,5.37-8.88,8.63-12.51
						c3.27-3.63,6.83-6.77,10.55-9.55c1.86-1.36,3.79-2.68,5.71-3.86c1.9-1.17,3.8-2.27,5.7-3.29c7.62-4.1,15.08-7.16,22-10.33
						c6.95-3.15,13.14-6.43,19.15-10.57c11.9-8.29,22.29-19.1,30.36-31.6c7.97-12.55,13.62-26.74,16.17-41.65l8.91,1.02
						c-1.15,16.36-5.74,32.53-13.23,47.38c-7.59,14.8-18.08,28.27-31.01,39.33c-6.44,5.49-13.79,10.35-20.82,14.4
						c-7.03,4.09-13.83,7.73-19.72,11.72c-1.48,0.99-2.89,2.01-4.25,3.05c-1.35,1.03-2.56,2.07-3.78,3.15
						c-2.38,2.19-4.51,4.53-6.27,6.95c-3.6,4.85-9.62,14.55-9.6,18.92L600.06,485.94z"/>
					<path class="st15" d="M604.27,545.05c-14.11-4.28-27.32-10.63-39.26-18.53c-11.95-7.9-22.65-17.34-31.88-27.89
						c-18.44-21.08-31.04-46.8-35.39-73.62l8.7-2.07c7.74,24.16,22.62,45.29,41.24,61.08c18.61,15.81,41.13,26.31,63.91,29.58
						L604.27,545.05z"/>
					<path class="st15" d="M542.19,503.72c-25.18-0.94-49.54-9.33-69.44-23.46l2.34-3.71c20.59,11.4,44.22,16.46,66.9,14.75
						L542.19,503.72z"/>
					<path class="st15" d="M515.76,451.86c14.36-10.73,25.14-27.54,28.78-46.38l6.62,0.69c-0.52,20.87-8.98,41.97-24.21,58.04
						L515.76,451.86z"/>
					<path class="st15" d="M616.55,596.32c20.88-6.73,39.79-24.02,48.53-46.54l7.63,2.12c-2.38,13.07-7.86,25.76-15.85,36.93
						c-7.99,11.16-18.53,20.86-31.11,27.87L616.55,596.32z"/>
					<path class="st15" d="M606.8,715.79c-3.74-0.59-7.3-1.78-10.42-3.33c-3.13-1.54-5.85-3.41-8.21-5.37
						c-4.73-3.95-8.11-8.23-11.07-12.38c-1.49-2.09-2.76-4.13-4.01-6.13c-1.28-2-2.46-4.06-3.68-6.09
						c-2.36-4.11-4.63-8.25-6.73-12.45c-4.2-8.42-7.9-17.02-10.98-25.79c-3.12-8.75-5.63-17.66-7.62-26.62l5.94-1.96
						c3.71,8.11,7.85,15.97,12.47,23.46c4.59,7.52,9.66,14.67,15.08,21.46c2.71,3.4,5.54,6.68,8.42,9.89
						c1.48,1.58,2.91,3.18,4.43,4.71c1.51,1.56,2.99,3.08,4.44,4.4c2.9,2.66,5.83,4.91,8.46,6.17c2.65,1.29,4.73,1.49,6.17,1.16
						L606.8,715.79z"/>
					<path class="st15" d="M582.34,691.89c-11.81,2.49-23.6,1.44-34.05-2.12c-10.46-3.56-19.7-9.71-26.43-17.6l2.94-3.35
						c8.07,5.08,17.24,7.59,26.07,7.79c8.83,0.22,17.36-1.91,24.16-5.85L582.34,691.89z"/>
					<g>
						<linearGradient id="SVGID_14_" gradientUnits="userSpaceOnUse" x1="471.4466" y1="319.4975" x2="472.6971" y2="527.05">
							<stop  offset="0" style="stop-color:#1BA365"/>
							<stop  offset="1" style="stop-color:#018673"/>
						</linearGradient>
						<path class="st16" d="M572.98,349.97c4.91,12.95,9.89,26.3,9.66,40.15c-0.24,13.85-6.92,28.52-19.59,34.11
							c-12.54,5.54-27.31,1.1-40.64,4.31c-15.15,3.65-27,18.13-27.57,33.7c-0.4,11.01,4.22,21.71,3.98,32.72
							c-0.35,15.82-11.92,30.74-27.14,35.02c-15.23,4.28-32.88-2.43-41.42-15.75c-4.29-6.69-6.44-14.76-11.74-20.69
							c-10.37-11.59-28.75-11.15-41.86-19.53c-17.91-11.44-20.58-40.55-5.06-55.06c7.3-6.82,18.07-11.33,20.61-21
							c3.04-11.59-7.64-21.65-13.26-32.23c-8.57-16.11-4.5-37.89,9.29-49.83s35.94-12.82,50.65-2.02L572.98,349.97z"/>
					</g>
					<linearGradient id="SVGID_15_" gradientUnits="userSpaceOnUse" x1="732.6906" y1="413.3448" x2="731.4402" y2="582.1374">
						<stop  offset="0" style="stop-color:#1BA365"/>
						<stop  offset="1" style="stop-color:#018673"/>
					</linearGradient>
					<path class="st17" d="M691.63,583.53c18.02,6.97,38.15,8.35,49.09-9.42c0.12-0.19,1.4-3.29,4.57-10.97
						c1.17-2.84,2.24-5.74,3.22-8.65c3.04-9.06,4.74-11.78,15.1-18.29c9.24-5.81,20.67-6.04,30.88-9.13
						c14.83-4.49,27.07-16.65,30.21-32.06c3.72-18.25-8.5-32.17-22.73-41.75c-7.88-5.3-16.35-10.74-25.33-13.96
						c-8.57-3.07-16.45-2.04-25.22-0.8c-5.75,0.81-11.19,1.09-16.59-1.37c-5.26-2.4-9.49-6.39-14.02-9.91
						c-6.05-4.7-12.51-8.21-20.35-8.11c-13.35,0.17-26.86,9.83-29.76,23.16c-1.82,8.35,0.76,16.73,1.12,25.08
						c0.56,12.91-7.66,20.48-16.61,28.34c-13.34,11.71-20.7,25.65-14.12,43.37C648.61,559.36,672.04,575.94,691.63,583.53z"/>
					<g>
						<path class="st18" d="M401.25,422.96c-0.19,4.13,2.02,9.22,6.23,13.35c4.21,4.13,9.34,6.24,13.46,5.97
							c0.19-4.13-2.02-9.22-6.23-13.35C410.5,424.8,405.38,422.69,401.25,422.96z"/>
						<path class="st18" d="M491.58,412.34c3.46,2.27,8.96,2.95,14.66,1.42c5.7-1.53,10.12-4.86,11.99-8.56
							c-3.46-2.27-8.96-2.95-14.66-1.42C497.87,405.31,493.45,408.65,491.58,412.34z"/>
						<path class="st18" d="M460.96,461.74c-3.96-1.21-9.43-0.33-14.47,2.73c-5.05,3.06-8.36,7.5-9.12,11.56
							c3.96,1.21,9.43,0.33,14.47-2.73C456.88,470.24,460.2,465.8,460.96,461.74z"/>
						<path class="st18" d="M405.23,328.62c-2.83,0.79-5.78,3.42-7.63,7.18c-1.85,3.76-2.14,7.7-1.04,10.42
							c2.83-0.79,5.78-3.42,7.63-7.18C406.04,335.29,406.33,331.35,405.23,328.62z"/>
						<path class="st18" d="M440.43,404.64c0.75,2.85,3.33,5.83,7.06,7.74c3.73,1.91,7.66,2.26,10.41,1.2
							c-0.75-2.85-3.33-5.83-7.06-7.74C447.1,403.93,443.17,403.59,440.43,404.64z"/>
						<path class="st18" d="M455.61,482.03c0.75,2.85,3.33,5.83,7.06,7.74c3.73,1.91,7.66,2.26,10.41,1.2
							c-0.75-2.85-3.33-5.83-7.06-7.74S458.36,480.97,455.61,482.03z"/>
						<path class="st18" d="M546.66,405.45c2.85-0.74,5.84-3.31,7.76-7.04c1.92-3.73,2.28-7.65,1.23-10.4
							c-2.85,0.74-5.84,3.31-7.76,7.04C545.97,398.78,545.61,402.71,546.66,405.45z"/>
					</g>
					<g>
						<path class="st18" d="M690.39,450.59c0.44,4.11,3.39,8.8,8.18,12.25c4.79,3.44,10.17,4.76,14.21,3.86
							c-0.44-4.11-3.39-8.8-8.18-12.25C699.81,451.01,694.43,449.7,690.39,450.59z"/>
						<path class="st18" d="M782.68,502.04c3.96,1.19,9.43,0.28,14.46-2.81c5.03-3.08,8.32-7.54,9.06-11.61
							c-3.96-1.19-9.43-0.28-14.46,2.81C786.71,493.51,783.42,497.97,782.68,502.04z"/>
						<path class="st18" d="M657.11,517.42c1.98,3.63,6.5,6.83,12.25,8.18c5.74,1.35,11.22,0.5,14.61-1.87
							c-1.98-3.63-6.5-6.83-12.25-8.18C665.98,514.2,660.5,515.05,657.11,517.42z"/>
						<path class="st18" d="M687.01,552.57c2.57,0.64,6.03-0.11,9.14-2.23c3.12-2.12,5.08-5.07,5.43-7.69
							c-2.57-0.64-6.03,0.11-9.14,2.23C689.33,547.01,687.36,549.95,687.01,552.57z"/>
						<path class="st18" d="M724.29,494c0.58,2.58,2.8,5.34,6.1,7.17c3.29,1.83,6.81,2.27,9.31,1.4c-0.58-2.58-2.8-5.34-6.1-7.17
							C730.31,493.57,726.79,493.14,724.29,494z"/>
						<path class="st18" d="M768.16,461.21c-2.35,1.21-4.47,4.05-5.42,7.69c-0.95,3.65-0.5,7.16,0.96,9.36
							c2.35-1.21,4.47-4.05,5.42-7.69C770.07,466.93,769.62,463.42,768.16,461.21z"/>
					</g>
					<path class="st18" d="M551.05,448.02c-0.11,4.07,2.02,8.41,5.99,11.27c3.97,2.86,8.76,3.5,12.59,2.1
						c0.11-4.07-2.02-8.41-5.99-11.27C559.67,447.25,554.88,446.61,551.05,448.02z"/>
					<path class="st18" d="M649.72,397.68c-3.78-1.53-8.59-1.04-12.65,1.69c-4.06,2.73-6.33,6.99-6.35,11.07
						c3.78,1.53,8.59,1.04,12.65-1.69C647.43,406.02,649.7,401.75,649.72,397.68z"/>
					<path class="st18" d="M779.12,569.07c-3.78-1.53-8.59-1.04-12.65,1.69c-4.06,2.73-6.33,6.99-6.35,11.07
						c3.78,1.53,8.59,1.04,12.65-1.69S779.1,573.14,779.12,569.07z"/>
					<path class="st18" d="M528.11,529.81c-2.28-1.49-5.48-1.79-8.49-0.53c-3.01,1.26-5.05,3.76-5.58,6.42
						c2.28,1.49,5.48,1.79,8.49,0.53C525.53,534.98,527.57,532.48,528.11,529.81z"/>
					<path class="st18" d="M739.03,601c-2.28-1.49-5.48-1.79-8.49-0.53c-3.01,1.26-5.05,3.76-5.58,6.42
						c2.28,1.49,5.48,1.79,8.49,0.53C736.46,606.16,738.49,603.67,739.03,601z"/>
					<path class="st18" d="M581.05,485.11c-1.18-2.45-3.77-4.37-6.99-4.85c-3.23-0.48-6.26,0.6-8.1,2.61
						c1.18,2.45,3.77,4.37,6.99,4.85C576.17,488.2,579.21,487.12,581.05,485.11z"/>
					<path class="st18" d="M751.41,415.29c-1.18-2.45-3.77-4.37-6.99-4.85c-3.23-0.48-6.26,0.6-8.1,2.61
						c1.18,2.45,3.77,4.37,6.99,4.85C746.54,418.38,749.57,417.29,751.41,415.29z"/>
					<path class="st18" d="M572.29,562.75c-0.26-4.27-2.89-8.6-7.31-11.21c-4.41-2.61-9.48-2.84-13.34-1.02
						c0.26,4.27,2.89,8.6,7.31,11.21C563.36,564.35,568.42,564.57,572.29,562.75z"/>
					<linearGradient id="SVGID_16_" gradientUnits="userSpaceOnUse" x1="625.3171" y1="201.9595" x2="625.3171" y2="428.2668">
						<stop  offset="0" style="stop-color:#FFEB8A"/>
						<stop  offset="1" style="stop-color:#1BA365"/>
					</linearGradient>
					<path class="st19" d="M815.21,338.93c-11.94-17.75-28.64-26.7-46.44-37.48c-9.1-5.51-16.61-11.91-21.7-21.4
						c-5.11-9.51-7.75-20.11-11.75-30.1c-6.84-17.1-17.78-31.09-34.29-39.78c-36.22-19.07-77.91-7.94-108.91,15.85
						c-16.04,12.31-27.97,30.29-45.21,40.87c-19.87,12.19-37.59-0.64-56.96-6.61c-37.06-11.42-72.38,20.76-69.92,58.46
						c2.79,42.61,50.88,86.96,94.14,68.75c11.05-4.65,20.72-12.21,32.05-16.22c9.65-3.42,19.94-4.52,30.12-3.59
						c10.08,0.92,19.98,3.94,28.88,8.76c5.86,4.29,8.03,13.22,10.23,19.6c2.89,8.38,6.62,16.96,13.6,22.76
						c6.25,5.19,14.28,6.79,22.07,4.53c7.46-2.17,17.92-12.71,25.87-9.29c8.93,3.85,9.22,19.68,12.02,27.39
						c3.33,9.16,9.19,17.07,16.78,23.15c16.42,13.15,38.38,15.85,58.41,10.73c37.09-9.48,65.01-44.71,66.43-82.84
						C831.36,373.69,825.68,354.49,815.21,338.93z"/>
					<g>
						<path class="st18" d="M517.82,293.25c-5.24-1.54-12.44-0.31-19.06,3.79c-6.62,4.1-10.93,10-11.89,15.37
							c5.24,1.54,12.44,0.31,19.06-3.79C512.55,304.52,516.87,298.62,517.82,293.25z"/>
						<path class="st18" d="M635.46,328.89c-1.44,5.27-0.05,12.45,4.18,18.98c4.23,6.53,10.22,10.73,15.61,11.57
							c1.44-5.27,0.05-12.45-4.18-18.98C646.84,333.92,640.85,329.73,635.46,328.89z"/>
						<path class="st18" d="M759.78,328.69c-4.65,2.86-8.56,9.04-9.95,16.69c-1.39,7.66,0.11,14.82,3.46,19.12
							c4.65-2.86,8.56-9.04,9.95-16.69C764.63,340.16,763.14,333,759.78,328.69z"/>
						<path class="st18" d="M526.24,327.99c-2.32-2.42-6.55-3.97-11.33-3.8c-4.78,0.16-8.89,1.99-11.04,4.57
							c2.32,2.42,6.55,3.97,11.33,3.8C519.98,332.39,524.09,330.57,526.24,327.99z"/>
						<path class="st18" d="M603.65,329.45c1.18-3.14,0.75-7.62-1.46-11.86c-2.21-4.24-5.63-7.16-8.89-7.99
							c-1.18,3.14-0.75,7.62,1.46,11.86S600.4,328.62,603.65,329.45z"/>
						<path class="st18" d="M729.83,370.61c-3.24-0.89-7.65-0.04-11.67,2.55c-4.02,2.6-6.61,6.27-7.13,9.59
							c3.24,0.89,7.65,0.04,11.67-2.55C726.72,377.6,729.31,373.92,729.83,370.61z"/>
						<path class="st18" d="M742.64,348.69c-0.13-3.35-2.27-7.31-5.96-10.36c-3.69-3.05-7.98-4.4-11.3-3.9
							c0.13,3.35,2.27,7.31,5.96,10.36C735.03,347.84,739.32,349.19,742.64,348.69z"/>
					</g>
				</g>
				<g>
					<g>
						<linearGradient id="SVGID_17_" gradientUnits="userSpaceOnUse" x1="188.4888" y1="344.9284" x2="207.7025" y2="84.0976">
							<stop  offset="0" style="stop-color:#018673"/>
							<stop  offset="1" style="stop-color:#0D4E50"/>
						</linearGradient>
						<path class="st20" d="M62.36,37.72c-21.29,7.71-43,15.65-60.76,29.71C-16.15,81.49-29.59,103-28.1,125.6
							c1.61,24.4,19.69,49.63,8.15,71.18c-6.38,11.92-19.81,17.81-31.21,25.07c-11.4,7.26-22.47,19.48-19.36,32.64
							c2.65,11.2,14.45,17.61,25.55,20.64c11.1,3.03,23.17,4.33,32.38,11.23c23.58,17.66,16.37,61.85,42.96,74.54
							c24.74,11.81,52.36-16.32,79.43-11.98c19.86,3.18,32.48,22.38,49.03,33.82c23.01,15.92,54.86,16.06,79.95,3.68
							c25.09-12.38,43.61-35.88,53.77-61.95c8.74-22.44,12.43-48.01,28.93-65.56c27.35-29.08,76.47-22.96,109.06-46.01
							c17.18-12.15,28.16-31.54,34.06-51.74c5.9-20.2,7.22-41.41,8.49-62.42c1.54-25.29,3.07-50.57,4.61-75.86L62.36,37.72z"/>
					</g>
					<g>
						<path class="st18" d="M96.47,101.66c-6.6-2.93-15.14-2.35-22.48,2.24c-7.34,4.59-11.6,12.01-11.86,19.23
							c6.6,2.93,15.14,2.35,22.48-2.24C91.95,116.3,96.2,108.88,96.47,101.66z"/>
						<path class="st18" d="M217.23,98.51c-0.56-7.2-5.12-14.44-12.65-18.72c-7.53-4.28-16.08-4.5-22.55-1.31
							c0.56,7.2,5.12,14.44,12.65,18.72C202.21,101.48,210.76,101.7,217.23,98.51z"/>
						<path class="st18" d="M419.55,160.81c-0.56-7.2-5.12-14.44-12.65-18.72c-7.53-4.28-16.08-4.5-22.55-1.31
							c0.56,7.2,5.12,14.44,12.65,18.72C404.53,163.78,413.08,164,419.55,160.81z"/>
						<path class="st18" d="M59.25,293.88c-0.39-4.99-3.55-10.01-8.77-12.97c-5.22-2.97-11.14-3.12-15.63-0.91
							c0.39,4.99,3.55,10.01,8.77,12.97C48.84,295.94,54.76,296.1,59.25,293.88z"/>
						<path class="st18" d="M197.79,188.91c4.8,1.43,10.61,0.28,15.26-3.53c4.64-3.8,6.91-9.28,6.45-14.27
							c-4.8-1.43-10.61-0.28-15.26,3.53C199.6,178.45,197.33,183.92,197.79,188.91z"/>
						<path class="st18" d="M415.94,198.52c4.8,1.43,10.61,0.28,15.26-3.53c4.64-3.8,6.91-9.28,6.45-14.27
							c-4.8-1.43-10.61-0.28-15.26,3.53C417.76,188.06,415.49,193.53,415.94,198.52z"/>
						<path class="st18" d="M206.38,370.96c4.8,1.43,10.61,0.28,15.26-3.53c4.64-3.8,6.91-9.28,6.45-14.27
							c-4.8-1.43-10.61-0.28-15.26,3.53C208.19,360.5,205.92,365.97,206.38,370.96z"/>
						
							<ellipse transform="matrix(0.7734 -0.6339 0.6339 0.7734 -150.7367 66.2132)" class="st18" cx="17.25" cy="243.96" rx="20.01" ry="9.9"/>
						<path class="st18" d="M106.06,179.96c1.17-3.54,0.45-7.9-2.28-11.44c-2.73-3.54-6.75-5.36-10.48-5.13
							c-1.17,3.54-0.45,7.9,2.28,11.44C98.31,178.37,102.33,180.19,106.06,179.96z"/>
					</g>
					<linearGradient id="SVGID_18_" gradientUnits="userSpaceOnUse" x1="132.4812" y1="780.3598" x2="175.982" y2="199.7297">
						<stop  offset="0" style="stop-color:#B55B74"/>
						<stop  offset="1" style="stop-color:#994760"/>
					</linearGradient>
					<path class="st21" d="M426.36,70.54c-17.95,13.33-39.1,21.68-60.64,24.87c-14.4,2.14-29,1.92-43-0.55
						c16.19-14.3,31.22-29.44,46.28-44.23c18.44-18.13,37.06-35.85,57.81-50.86l-4.55-6.84c-22.5,13.73-42.97,30.39-62.88,47.12
						c-19.92,16.74-39.44,33.63-60.14,48.14c-20.53,14.37-42.79,26.18-65.92,33.1c-15.69,4.72-31.82,6.94-47.29,5.93
						c0.31-1.85,0.58-3.7,0.9-5.55c4.04-21.68,9.15-43.14,15.56-64.21c6.68-20.95,14.67-41.47,24.05-61.41l-30.61-16.42
						c-11.93,20.63-22.43,42.08-31.54,64.13c-8.83,22.14-16.26,44.79-22.56,67.73c-6.07,22.98-10.93,46.21-14.92,69.54
						c-3.57,21.88-6.29,43.83-8.46,65.79c-2.3-1.03-4.6-2.32-6.82-3.94c-3.61-2.6-7.03-5.82-10.08-9.43
						c-1.55-1.79-2.96-3.72-4.29-5.69c-1.35-1.99-2.66-4.24-3.91-6.46c-5-9.05-9.05-19.41-13.6-30.17
						c-2.28-5.38-4.73-10.87-7.55-16.32c-1.35-2.74-3.06-5.39-4.6-8.06c-1.5-2.71-3.31-5.22-5.1-7.74
						c-14.31-20.11-33.72-35.98-55.57-46.04c-21.79-10.12-46.03-14.77-69.71-12.58l0.52,8.93c22.04-0.31,43.8,5.74,62.68,16.36
						c12.49,6.95,23.62,16.08,32.89,26.64c-4.59,8.47-11.58,16.03-20.08,21.65c-9.88,6.56-21.79,10.56-34.03,10.7l-0.63,10.05
						c14.22,1.82,29.03-0.85,42.23-7.17c9.22-4.41,17.74-10.68,24.83-18.54c0.15,0.25,0.33,0.49,0.48,0.75
						c1.35,2.26,2.73,4.49,3.8,6.89c1.12,2.38,2.38,4.63,3.36,7.11c2.06,4.88,3.89,10,5.66,15.3c3.57,10.59,6.92,21.91,12.09,33.35
						c1.33,2.87,2.69,5.68,4.31,8.57c1.63,2.91,3.39,5.75,5.37,8.46c3.9,5.45,8.44,10.53,13.77,15.06
						c5.3,4.53,11.52,8.46,18.63,11.21c0.95,0.37,1.91,0.71,2.89,1.02c-1.04,14.92-1.87,29.82-2.49,44.71
						c-0.85,23.36-1.31,46.58-1.57,69.7c-0.45,46.2-0.29,91.92-1.42,136.94c-2.32,89.87-10.39,177.79-39.11,255.9
						c-7.26,19.49-15.39,38.46-24.74,56.52c-9.56,17.91-20.02,35.05-31.68,50.89c-11.86,15.65-24.66,30.14-38.45,43.08
						c-14.03,12.64-28.93,23.7-44.53,33.19l69.77,105.73c22.34-16.22,42.79-34.49,61.14-54.28c18.05-20.03,33.86-41.46,47.8-63.66
						c13.69-22.33,25.22-45.48,35.26-68.96c9.78-23.57,17.73-47.56,24.44-71.69c6.42-24.2,11.37-48.57,15.16-73
						c3.51-24.59,5.72-48.73,7.1-72.86c1.18-24.09,1.51-48,1.23-71.72c-0.41-23.69-1.38-47.18-2.68-70.49
						c-3.33-57.73-8.81-114.29-12.32-170.21c2.05-0.71,4.09-1.45,6.08-2.28c10.7-4.43,20.47-10.48,29.07-17.75
						c8.59-7.27,16.01-15.78,21.92-25.2c5.9-9.42,10.27-19.78,12.65-30.55l-19.26-5.6c-6.16,16.13-18.11,29.59-32.37,38.4
						c-6.29,3.91-13.06,6.9-19.95,8.88c-1.04-22.83-1.61-45.57-1.41-68.26c0.26-22.3,1.11-44.55,2.84-66.68
						c0.86-9.92,1.9-19.81,3.11-29.68c6.52,0.09,13-0.25,19.36-1.02c14.29-1.73,28.01-5.47,40.97-10.46
						c21.39-8.3,40.76-19.88,58.5-33.2c22.99,4.6,46.57,3.49,68.5-2.37c23.41-6.25,45.13-17.99,62.45-34.21L426.36,70.54z"/>
					<g>
						<g>
							<path class="st22" d="M375.24,108.91c21-6.58,40.4-17.61,56.16-32.36l-5.04-6.01c-16.95,12.59-36.77,20.68-57.07,24.24
								C371.54,99.24,373.39,104.11,375.24,108.91z"/>
						</g>
						<g>
							<path class="st22" d="M359.37,40.04c-15.68,13.17-31.11,26.42-47.05,38.54c1.45,0.18,2.92,0.31,4.4,0.34
								c8.55,0.17,17.35-2.33,25.76-2.39c8.97-8.6,17.75-17.31,26.51-25.91c8.56-8.41,17.17-16.73,26-24.74l-13.61-3.91
								C373.92,27.9,366.61,33.96,359.37,40.04z"/>
						</g>
						<g>
							<path class="st22" d="M-13.23,184.06l5.52,11.01c6.5-0.43,12.96-1.7,19.21-3.78c-0.22-5.18-0.78-10.39-1.3-15.44
								C3.09,180.02-4.9,182.89-13.23,184.06z"/>
						</g>
						<g>
							<path class="st22" d="M196.14,80.33c1.98-7.66,4.05-15.29,6.36-22.86c6.68-20.95,14.67-41.47,24.05-61.41l-30.61-16.42
								c-11.93,20.63-22.43,42.08-31.54,64.13c-5.59,14.01-10.61,28.22-15.15,42.59c13.05-0.84,26.33-0.7,39.01-3.74
								C190.91,81.99,193.53,81.2,196.14,80.33z"/>
						</g>
						<g>
							<path class="st22" d="M0.45,125.68c5.63,3.13,10.97,6.73,16.01,10.69c1.14-1.58,2.45-3.07,3.96-4.42
								c2.82-2.53,6-4.32,9.4-5.66c-7.21-5.16-14.87-9.62-22.86-13.3c-11.77-5.47-24.25-9.32-36.97-11.38l-5.72,10.38
								C-23.02,114.69-10.78,119.37,0.45,125.68z"/>
						</g>
					</g>
					<g>
						<linearGradient id="SVGID_19_" gradientUnits="userSpaceOnUse" x1="-16.6146" y1="188.8643" x2="7.7219" y2="28.6899">
							<stop  offset="0" style="stop-color:#5ACF8B"/>
							<stop  offset="1" style="stop-color:#018673"/>
						</linearGradient>
						<path class="st23" d="M119.11-35.27c0.37,63.4-40.57,125.1-99.14,149.39c-10.26,4.25-21.79,8.09-27.59,17.56
							c-5.14,8.38-4.35,19.12-1.79,28.61c2.57,9.49,6.73,18.6,7.91,28.36c2.91,24.18-16.01,48.9-40.1,52.42
							c-7.87,1.15-15.9,0.3-23.8,1.1c-7.91,0.8-16.22,3.69-20.66,10.28V-35.27H119.11z"/>
					</g>
					<g>
						<linearGradient id="SVGID_20_" gradientUnits="userSpaceOnUse" x1="296.7327" y1="64.771" x2="296.7327" y2="-53.7677">
							<stop  offset="0" style="stop-color:#5ACF8B"/>
							<stop  offset="1" style="stop-color:#34A7A4"/>
						</linearGradient>
						<path class="st24" d="M18.39-3.54C7.8,19.52,19.96,48.55,41.12,62.57c21.15,14.02,48.63,15.28,73.44,9.97
							c43.31-9.28,85.18-36.98,128.4-27.26c19.33,4.35,37.17,16.1,56.99,15.85c23.53-0.29,47.85-17.39,68.85-6.79
							c15.71,7.93,20.78,27.42,30.58,42.04c17.67,26.36,53.61,36.97,84.4,29.33c30.8-7.64,56.1-31.03,71.37-58.85
							c15.27-27.81,21.46-59.76,23.82-91.4L18.39-3.54z"/>
					</g>
					<path class="st18" d="M483.78,125.73c30.8-7.64,56.1-31.03,71.37-58.85c15.27-27.81,21.46-59.76,23.82-91.4l-28.15,1.05
						c-6.98,22.79-16.61,44.39-29.31,64.8c-10.89,17.5-26.98,44.02-49,46.86c-27.21,3.5-50.43-22.25-74.52-30.73
						c-9.31-3.28-19.8-4.5-30.04-3.5c0.28,0.13,0.56,0.25,0.84,0.39c15.71,7.93,20.78,27.42,30.58,42.04
						C417.05,122.75,452.98,133.37,483.78,125.73z"/>
					<path class="st18" d="M18.39-3.54C7.8,19.52,19.96,48.55,41.12,62.57c21.15,14.02,48.63,15.28,73.44,9.97
						c35.89-7.69,70.79-28,106.29-29.22c-4.52-2.05-9.29-3.71-14.29-4.89c-27.56-6.52-55.38,0.73-82.07,7.7
						c-22.56,5.89-49.06,12.98-71.1,1.41c-19.48-10.23-22.4-32-18.82-51.69L18.39-3.54z"/>
					<g>
						<path class="st18" d="M387.84,17.19c-2.52-5.75-8.94-11.19-17.44-13.98c-8.5-2.79-16.9-2.23-22.34,0.91
							c2.52,5.75,8.94,11.19,17.44,13.98C374.01,20.9,382.4,20.34,387.84,17.19z"/>
						<path class="st18" d="M502.4-36.82c-7.36-0.49-16.51,3.26-24.03,10.62c-7.52,7.36-11.48,16.42-11.15,23.79
							c7.36,0.49,16.51-3.26,24.03-10.62C498.77-20.39,502.73-29.45,502.4-36.82z"/>
						<path class="st18" d="M265.72-19.18c-6.12-1.4-14.31,0.53-21.61,5.71c-7.3,5.17-11.84,12.26-12.55,18.5
							c6.12,1.4,14.31-0.53,21.61-5.71C260.48-5.86,265.01-12.94,265.72-19.18z"/>
						<path class="st18" d="M160.42,7.02c-3.51-0.8-8.2,0.3-12.39,3.27c-4.19,2.97-6.79,7.03-7.2,10.6c3.51,0.8,8.2-0.3,12.39-3.27
							C157.41,14.65,160.01,10.59,160.42,7.02z"/>
						<path class="st18" d="M313.97,36.52c0.62-3.55-0.73-8.18-3.91-12.2c-3.18-4.03-7.37-6.41-10.96-6.63
							c-0.62,3.55,0.73,8.18,3.91,12.2C306.18,33.91,310.37,36.3,313.97,36.52z"/>
						<path class="st18" d="M458.69,51.81c0.62-3.55-0.73-8.18-3.91-12.2c-3.18-4.03-7.37-6.41-10.96-6.63
							c-0.62,3.55,0.73,8.18,3.91,12.2C450.9,49.2,455.09,51.59,458.69,51.81z"/>
						<path class="st18" d="M99.43,13.52c1.04-5.98-1.24-13.79-6.6-20.59c-5.37-6.79-12.44-10.82-18.5-11.19
							c-1.04,5.98,1.24,13.79,6.6,20.59C86.3,9.12,93.37,13.14,99.43,13.52z"/>
					</g>
					<g>
						<path class="st22" d="M212.45,301.21c0.79,5.95,0.52,12.05-0.96,17.87c-1.76,6.96-5.08,13.44-6.91,20.38
							c-0.42,1.58-0.73,3.22-0.95,4.87c3.65-2.42,7.14-5.03,10.44-7.83c8.59-7.27,16.01-15.78,21.92-25.2
							c5.9-9.42,10.27-19.78,12.65-30.55l-19.26-5.6C225.63,284.98,219.72,293.81,212.45,301.21z"/>
					</g>
					
						<linearGradient id="SVGID_21_" gradientUnits="userSpaceOnUse" x1="67.5209" y1="-282.7639" x2="113.0668" y2="-398.7778" gradientTransform="matrix(0.9803 0.1978 -0.1978 0.9803 173.5306 558.5374)">
						<stop  offset="0" style="stop-color:#5ACF8B"/>
						<stop  offset="1" style="stop-color:#34A7A4"/>
					</linearGradient>
					<path class="st25" d="M410.48,222.3c-12.85-20.75-32.17-42-51.48-56.86c-20.8-16.01-46.24-19.01-70.32-8.43
						c-10.66,4.69-19.1,11.04-26.32,20.18c-8.72,11.05-15.58,23.17-26.94,31.88c-0.01,0.01-0.01,0.01-0.02,0.02
						c-13.43,2.83-20.6,18.06-18.8,31.92c1.45,11.18,7.04,21.08,10.97,31.48c5.71,15.11,2.11,25.93,0.3,41.07
						c-2.11,17.67,10.74,29.91,28.48,27.14c24.75-3.87,34.8-35.67,60.11-37.13c23.51-1.36,41.21,21.78,65.58,18.34
						c18.62-2.62,34.19-17.8,39.75-35.37C428.69,264.78,422.16,241.15,410.48,222.3z"/>
					<path class="st18" d="M403.74,298.78c-23.35,17.69-46.49-2.56-70.3-7.79c-14.31-3.14-28.17-1.87-41.28,4.91
						c-12.67,6.55-25.19,23.52-39.88,25.03c-12.28,1.26-9.33-13.08-10.22-21.44c-1.32-12.31-5.92-25.25-16.54-32.11
						c0.71,1.7,1.42,3.4,2.07,5.12c5.71,15.11,2.11,25.93,0.3,41.07c-2.11,17.67,10.74,29.91,28.47,27.14
						c24.75-3.87,34.8-35.67,60.11-37.13c23.51-1.36,41.21,21.78,65.58,18.34c18.62-2.62,34.19-17.8,39.75-35.37
						c1.99-6.28,2.83-12.72,2.78-19.15C420.69,279.64,414.37,290.73,403.74,298.78z"/>
					<g>
						<path class="st18" d="M338.75,243.59c-1.84-4.66-6.34-8.52-12.19-9.82c-5.86-1.3-11.57,0.29-15.21,3.73
							c1.84,4.66,6.34,8.52,12.19,9.82C329.4,248.63,335.11,247.03,338.75,243.59z"/>
						<path class="st18" d="M280.83,258.36c-4.19-0.45-8.82,1.39-12.08,5.25c-3.26,3.85-4.3,8.73-3.16,12.78
							c4.19,0.45,8.82-1.39,12.08-5.25C280.93,267.29,281.97,262.41,280.83,258.36z"/>
						<path class="st18" d="M303.04,183.04c-6.94-0.03-14.23,3.77-18.93,10.64c-4.69,6.87-5.58,15.05-3.03,21.5
							c6.94,0.03,14.23-3.77,18.93-10.64C304.71,197.67,305.59,189.49,303.04,183.04z"/>
						<path class="st18" d="M395.55,266.82c1.77-3.32,1.79-7.78-0.31-11.77c-2.11-3.99-5.8-6.48-9.55-6.89
							c-1.77,3.32-1.79,7.78,0.31,11.77C388.11,263.92,391.81,266.41,395.55,266.82z"/>
					</g>
				</g>
				<g>
					<path class="st26" d="M477.7,895.87c0,0,371.81-242.13,816.77-231.33l-27.53,198.72L477.7,895.87z"/>
					<g>
						<path class="st27" d="M702.29,783.01c48.97,9.87,101.82,1.4,144.16-25.3c15.95-10.06,32.66-23.04,51.35-20.5
							c17.59,2.39,30.89,18.11,48.31,21.54c24.11,4.74,45.26-14.77,67.01-26.19c28.45-14.94,62.36-16.56,94.02-11.06
							c31.66,5.5,61.72,17.62,91.72,29.11c26.08,9.99,58.04,18.77,79.81,1.27c1.52-1.23,2.93-2.55,4.26-3.95l11.55-83.39
							C1063.41,658.93,852.08,721.53,702.29,783.01z"/>
					</g>
					<path class="st28" d="M787.13,770.39c-5.52,4.08-11.04,8.16-16.56,12.24c-3.32,2.45-0.09,8.08,3.27,5.6
						c5.52-4.08,11.04-8.16,16.56-12.24C793.72,773.54,790.49,767.91,787.13,770.39L787.13,770.39z"/>
					<path class="st28" d="M716.03,807.86c4.32,0.49,8.64,0.98,12.96,1.47c4.14,0.47,4.1-6.01,0-6.48
						c-4.32-0.49-8.64-0.98-12.96-1.47C711.9,800.91,711.93,807.39,716.03,807.86L716.03,807.86z"/>
					<path class="st28" d="M787.29,810.94c2.4,0,4.8,0,7.2,0c4.17,0,4.18-6.48,0-6.48c-2.4,0-4.8,0-7.2,0
						C783.12,804.46,783.11,810.94,787.29,810.94L787.29,810.94z"/>
					<path class="st28" d="M1239.42,717.73c2.63,2.42,5.25,4.83,7.88,7.25c3.06,2.82,7.66-1.75,4.58-4.58
						c-2.63-2.42-5.25-4.83-7.88-7.25C1240.93,710.33,1236.34,714.9,1239.42,717.73L1239.42,717.73z"/>
					<path class="st28" d="M1214.91,797.17c-6.04,4.27-12.07,8.53-18.11,12.8c-3.38,2.39-0.14,8.01,3.27,5.6
						c6.04-4.27,12.07-8.53,18.11-12.8C1221.56,800.38,1218.32,794.76,1214.91,797.17L1214.91,797.17z"/>
					<path class="st28" d="M1224.23,817.9c4.82,1.63,9.63,3.26,14.45,4.89c3.96,1.34,5.66-4.92,1.72-6.25
						c-4.82-1.63-9.63-3.26-14.45-4.89C1222,810.31,1220.3,816.57,1224.23,817.9L1224.23,817.9z"/>
				</g>
				<g>
					<path class="st29" d="M-86.07,812.48c0,0,583.2-69.04,1108.08,64.25L-23.43,1057.54L-86.07,812.48z"/>
					<g>
						<path class="st27" d="M238.11,812.24c39.73,7.06,77.84,24.77,118.19,24.59c35.42-0.15,69.58-14.16,104.99-15.31
							c43.89-1.43,86,16.89,129.7,21.21c45.17,4.47,89.54-6.06,132.64-21.59c-425.43-54.16-809.7-8.67-809.7-8.67l5.78,22.63
							c1.94,0.29,3.87,0.55,5.81,0.78c52.14,6.22,104.65-4.32,156.25-14.07C133.38,812.08,186.41,803.05,238.11,812.24z"/>
					</g>
					<g>
						<path class="st27" d="M385.81,858.93c31.78-5.05,63.12-14.4,95.3-14.56c41.42-0.2,81.31,14.82,122.35,20.43
							c60.37,8.25,123.33-4.94,175.68-36.02c-232.69-34.26-457.63-37.27-619.81-32.27c10.54,10.62,22.21,20.11,34.75,28.12
							C250.01,860.38,320.25,869.34,385.81,858.93z"/>
					</g>
				</g>
				<g>
					<linearGradient id="SVGID_22_" gradientUnits="userSpaceOnUse" x1="551.4363" y1="859.645" x2="554.7273" y2="957.0461">
						<stop  offset="0" style="stop-color:#FFFFFF"/>
						<stop  offset="1" style="stop-color:#9BFAE2"/>
					</linearGradient>
					<path class="st30" d="M1235.32,886.9c0,0-593.4,8.97-1355.95,18.47l-1.54,231.1h1357.49V886.9z"/>
					<linearGradient id="SVGID_23_" gradientUnits="userSpaceOnUse" x1="466.2122" y1="967.7381" x2="466.2122" y2="875.8751">
						<stop  offset="0" style="stop-color:#FFFFFF"/>
						<stop  offset="1" style="stop-color:#9BFAE2"/>
					</linearGradient>
					<path class="st31" d="M-86.57,930.99c0,0,581.33,41.06,1105.56-37.97H811.22c-230.92,3.24-540.07,7.43-886.57,11.78
						L-86.57,930.99z"/>
					<linearGradient id="SVGID_24_" gradientUnits="userSpaceOnUse" x1="644.0499" y1="1079.5444" x2="644.0499" y2="860.2566">
						<stop  offset="0" style="stop-color:#FFFFFF"/>
						<stop  offset="1" style="stop-color:#9BFAE2"/>
					</linearGradient>
					<path class="st32" d="M761.95,1136.47h-18.21c-1.88-2.79-4.06-5.29-6.49-7.53c-1.96-1.79-4.09-3.38-6.31-4.75
						c-1.62,4.09-3.2,8.19-4.76,12.29h-28.22c2.41-8.22,4.93-16.4,7.53-24.53c3.91-12.27,7.98-24.45,12.05-36.57
						c-23.59,16.74-44.28,37.5-60.76,61.1h-11.12c9.66-16.62,21.27-32.27,34.61-46.54c-7.04-1.86-14.73-2.33-22.35-1.3
						c-10.04,1.35-20,5.26-28.2,11.71l-3.52-3.36c7.44-8.51,17.65-14.99,29.06-18.68c10.47-3.38,26.74-4.26,39.02-2.29
						c9.76-8.99,20.24-17.3,31.36-24.82c1.61-4.83,3.22-9.66,4.8-14.48c8.19-24.89,15.56-49.58,21.57-74.68
						c5.46-22.64,9.96-45.46,13.59-68.38c15.52-0.22,30.73-0.43,45.62-0.64c-5.88,26.56-12.93,52.85-21.13,78.77
						c-2.19,6.97-4.5,13.9-6.88,20.81c2.87,29.79,12.62,59.87,29.07,87.25l-5.58,4.01c-14.97-14.86-28.01-31.94-38.58-50.66
						c-1.88,4.76-3.77,9.5-5.69,14.2c-7.56,18.6-15.33,36.97-22.84,55.31c5.3,4.06,9.84,8.84,13.5,14.09
						c2.91,4.22,5.29,8.77,6.97,13.45C760.8,1132.37,761.41,1134.45,761.95,1136.47z M520.29,1136.47
						c1.31-15.51,2.45-31.05,3.41-46.6c1.52,1.19,3.04,2.33,4.52,3.37c4.17,2.94,8.17,5.53,11.74,8.23
						c7.02,5.26,13.02,11.9,17.6,19.55c2.89,4.82,5.19,10.02,6.81,15.46h8.63c-0.77-6.82-2.48-13.59-5.11-20.09
						c-3.82-9.46-9.66-18.4-17.15-26c-3.68-3.74-7.44-7.03-10.78-10.24c-3.39-3.23-6.16-6.23-8.53-9.58
						c-2.25-3.14-4.24-6.56-6.12-10.19c2.51-54.36,2.78-108.89,0.82-163.42c-16.55,0.22-33.31,0.45-50.28,0.68
						c8.59,79.15,12.37,158.95,11.22,238.83H520.29z"/>
				</g>
				<g>
					<g>
						
							<linearGradient id="SVGID_25_" gradientUnits="userSpaceOnUse" x1="82.9635" y1="1546.993" x2="72.8324" y2="1722.3674" gradientTransform="matrix(0.9529 -0.3032 0.3032 0.9529 -551.4945 -800.3797)">
							<stop  offset="0" style="stop-color:#018673"/>
							<stop  offset="1" style="stop-color:#0D4E50"/>
						</linearGradient>
						<path class="st33" d="M83.53,815.49c9.42-3.51,16.48-9.1,21.69-14.94c0-5.3-0.23-10.61-0.69-15.9
							c-0.38-4.38-0.94-8.74-1.64-13.08c-16.4,31.1-36.87,31.4-36.87,31.4c16.97-11.1,27.12-30.58,33.16-48.87
							c-8.31-31.73-24.73-61.45-46.02-86.17c-16.73-19.42-36.73-35.77-59.2-48.1c-0.31-0.17-0.6-0.23-0.88-0.23
							c-0.65-0.09-1.29,0.19-1.6,1.02c-9.74,26-19.62,52.42-26.35,79.48c5.07,10.32,11.44,21.11,19,29.73c0,0-12.36-2.52-23.31-9.84
							c-2.7,14.76-4.27,29.71-4.16,44.89c0.16,23.43,4.14,47.64,14.3,68.91c8.46,17.71,23.8,31.87,39.6,43.02
							c17.71,12.49,37.98,22.61,59.39,26.74c0.62,0.26,1.34,0.17,1.88-0.54c20.1-26.53,31.12-58.81,33.08-91.8
							C93.83,814.04,83.53,815.49,83.53,815.49z"/>
						<path class="st34" d="M-6.92,619.6c-0.65-0.09-1.29,0.19-1.6,1.02c-0.03,0.09-0.07,0.18-0.1,0.27
							C20.32,703.51,2.17,797.7,48.35,875.33c5.7,9.58,12.04,18.73,18.74,27.62c0.95,0.21,1.89,0.42,2.84,0.6
							c0.6,0.26,1.3,0.17,1.84-0.5c-5.24-6.86-10.28-13.87-14.98-21.12c-13.12-20.22-22.69-42.07-28.83-65.37
							c-11.97-45.38-12.42-92.71-19.38-138.91c-2.93-19.41-7.05-38.65-13.46-57.17c-0.39-0.22-0.78-0.44-1.17-0.66
							C-6.35,619.66-6.65,619.6-6.92,619.6z"/>
					</g>
					<g>
						<g>
							
								<linearGradient id="SVGID_26_" gradientUnits="userSpaceOnUse" x1="-585.1613" y1="-889.9785" x2="-606.2813" y2="-734.3217" gradientTransform="matrix(0.8407 0.5415 -0.5415 0.8407 295.3583 1725.4321)">
								<stop  offset="0" style="stop-color:#5ACF8B"/>
								<stop  offset="1" style="stop-color:#34A7A4"/>
							</linearGradient>
							<path class="st35" d="M195.77,817.65c4.81,2.49,10.21,3.62,15.62,3.92c21.62-19.03,39.72-42.6,53.84-67.75
								c26.61-47.39,40.85-100.54,54.85-153.06c-29.66,20.26-58.81,41.28-87.4,63.02c-5.38,12.36-9.78,25.74-8.76,34.79
								c0,0-9.36-6.72-12.19-18.63c-4.85,3.82-9.67,7.71-14.4,11.69c-1.22,15.88-0.19,37.06,10.83,51.34c0,0-16.5-12.34-24.13-39.63
								c-14.92,13.85-28.32,29.08-38.16,46.83c-17.44,31.47-26.37,74.05-5.67,103.48l5.87,5.7c22.72-7.17,43.31-19.24,61.51-34.51
								C200.67,821.32,195.77,817.65,195.77,817.65z"/>
						</g>
						<path class="st8" d="M316.26,603.39c-24.03,41.35-48.7,82.54-79.09,119.58c-16.92,20.62-36.34,38.42-54.98,57.39
							c-15.82,16.1-32.5,35.24-37.08,58.01c-1.23,6.11-1.68,12.33-1.54,18.56l2.5,2.43c0.09-0.03,0.18-0.06,0.27-0.09
							c-0.33-7.08,0.1-14.16,1.55-21.09c5-23.92,23.84-43.74,40.62-60.34c17.24-17.06,34.64-33.65,50.1-52.4
							c15.7-19.03,29.9-39.24,43.25-59.97c13.1-20.34,25.38-41.18,37.53-62.1c0.23-0.87,0.46-1.74,0.69-2.61
							C318.81,601.63,317.54,602.52,316.26,603.39z"/>
					</g>
					<g>
						
							<linearGradient id="SVGID_27_" gradientUnits="userSpaceOnUse" x1="100.0627" y1="60.4586" x2="102.9532" y2="137.4709" gradientTransform="matrix(0.9696 0.2446 -0.2446 0.9696 265.3125 710.9452)">
							<stop  offset="0" style="stop-color:#5ACF8B"/>
							<stop  offset="1" style="stop-color:#1BA365"/>
						</linearGradient>
						<path class="st36" d="M251.24,848.31c-2.3,7.45-1.95,15.46,2.15,22.19c0,0.01,0,0.01,0.01,0.02c1.55,3.43,3.32,6.76,5.41,9.89
							c6.4,9.61,15.89,16.78,27.49,18.46c10.39,1.5,21.05-1.24,30.36-5.83c8.31-4.1,16.22-9.77,22.14-16.96
							c5.57-6.78,8.61-15.42,15.11-21.49c7.4-6.92,18.53-6.14,26.06-12.68c7.08-6.15,8.52-16.08,12.37-24.17
							c4.68-9.83,12.73-17.5,21.07-24.26c4.09-3.31,8.32-6.44,12.51-9.63c3.74-2.85,7.84-5.73,10.22-9.9
							c3.59-6.3,1.18-15.18-6.98-15.35c-3.46-0.07-6.9,1.28-9.87,2.94c-4.68,2.63-8.99,5.92-13.34,9.06
							c-8.38,6.05-17.56,12.21-28.22,12.78c-9.65,0.52-18.1-6.13-27.8-4.64c-9.61,1.47-16.89,8.6-23.51,15.12
							c-4.08,4.02-8.24,7.85-13.08,10.95c-4.93,3.15-10.26,5.63-15.63,7.94c-9.92,4.26-20.19,7.96-29.19,14.04
							C260.69,832.04,254.06,839.17,251.24,848.31z"/>
						<path class="st37" d="M289.54,843.44c-1.41,5.25-3.49,10.23-6.18,14.91c2.98-1.68,5.97-3.37,8.92-5.08
							c6.53-3.8,13.05-7.63,19.54-11.48c-0.04-0.2-0.03-0.41,0.03-0.64c2.01-7.15,4.03-14.31,6.04-21.46
							c0.46-1.65,2.94-0.69,2.48,0.95c-1.81,6.43-3.62,12.86-5.43,19.3c9.92-5.91,19.79-11.88,29.62-17.93
							c3.13-8.61,6.26-17.21,9.38-25.82c0.58-1.61,3.06-0.66,2.48,0.95c-2.74,7.54-5.48,15.08-8.22,22.63
							c4.96-3.06,9.91-6.14,14.85-9.24c4.59-2.88,9.17-5.79,13.74-8.7c-0.01-0.17,0.02-0.34,0.08-0.53c1.1-3.03,2.2-6.06,3.29-9.1
							c0.58-1.61,3.06-0.66,2.48,0.95c-0.78,2.14-1.55,4.29-2.33,6.43c7.24-4.64,14.47-9.31,21.66-14.02
							c1.42-0.93,3.09,1.13,1.66,2.07c-7.63,4.99-15.28,9.94-22.96,14.85c2.98,0.53,5.96,1.06,8.95,1.59
							c1.67,0.3,1.4,2.94-0.29,2.64c-3.88-0.69-7.76-1.38-11.64-2.07c-0.1-0.02-0.19-0.05-0.28-0.08
							c-9.4,5.98-18.84,11.9-28.32,17.76c6.91,1.71,13.82,3.42,20.73,5.13c1.66,0.41,0.69,2.89-0.95,2.48
							c-7.35-1.82-14.7-3.64-22.05-5.46c-0.25-0.06-0.44-0.18-0.57-0.32c-0.1,0.05-0.2,0.08-0.3,0.1
							c-3.43,2.11-6.87,4.22-10.31,6.31c-6.29,3.83-12.6,7.62-18.93,11.4c5.79,2.4,11.58,4.81,17.37,7.21
							c1.58,0.65,0.63,3.14-0.95,2.48c-6.29-2.61-12.57-5.22-18.86-7.83c-0.14-0.06-0.25-0.13-0.35-0.21
							c-4.14,2.46-8.29,4.92-12.44,7.35c-6.59,3.86-13.25,7.61-19.88,11.42c5.52,2.22,11.04,4.44,16.57,6.67
							c1.59,0.64,0.64,3.12-0.95,2.48c-6.18-2.49-12.36-4.97-18.54-7.46c-3.73,2.15-7.44,4.33-11.12,6.56
							c-11.51,6.99-22.85,15.36-28.97,27.71c-0.75,1.52-3.24,0.59-2.48-0.95c5.2-10.5,13.87-18.35,23.47-24.8
							c6.1-4.1,12.46-7.81,18.87-11.44c3.92-5.7,6.79-11.93,8.59-18.61C287.5,840.85,289.98,841.81,289.54,843.44z"/>
					</g>
					<g>
						
							<linearGradient id="SVGID_28_" gradientUnits="userSpaceOnUse" x1="-1082.7986" y1="-1203.2659" x2="-1104.201" y2="-1089.3578" gradientTransform="matrix(0.6978 0.7163 -0.7163 0.6978 193.3531 2401.9258)">
							<stop  offset="0" style="stop-color:#1BA365"/>
							<stop  offset="1" style="stop-color:#018673"/>
						</linearGradient>
						<path class="st38" d="M300.93,800.48c2.96-6.54,3.57-13.76,4.01-20.84c0.5-7.98,0.67-16.35,4.14-23.72
							c2.97-6.31,9.66-12.19,7.56-19.85c-1.75-6.4-8.75-7.02-14.09-4.99c-7.3,2.77-12.83,8.94-18.77,13.75
							c-6.91,5.6-14.61,7.96-22.99,10.42c-6.75,1.98-13.13,4.56-18.21,9.58c-11.75,11.63-13.82,29.49-24.52,41.87
							c-5.97,6.9-14.28,10.9-21.92,15.6c-7.84,4.82-14.46,10.67-18.48,19.11c-7.42,15.57-6.27,34.76-0.31,50.63
							c0.05,0.13,0.12,0.24,0.2,0.33c0,0.01,0.01,0.01,0.01,0.02c0.01,0.01,0.02,0.02,0.02,0.03c0.11,0.14,0.27,0.25,0.48,0.32
							c15.32,4.87,32.16,6.02,47.6,0.94c14.56-4.8,27.29-14.99,33.91-28.95c3.95-8.33,5.96-17.42,9.76-25.81
							c3.84-8.49,9.98-14.64,16.8-20.79C291.85,812.97,297.71,807.61,300.93,800.48z"/>
						<path class="st39" d="M275.37,783.73c4.9-1,9.7-2.37,14.38-4.15c1.58-0.6,0.87-3.14-0.72-2.54
							c-3.54,1.35-7.14,2.46-10.81,3.36c4.58-5.44,8.95-11.05,13.03-16.89c0.97-1.39-1.34-2.67-2.3-1.29
							c-3.88,5.55-8.02,10.88-12.35,16.03c0.62-3.94,0.92-7.92,0.9-11.93c-0.01-1.7-2.65-1.65-2.64,0.05
							c0.03,5.13-0.49,10.18-1.55,15.2c-0.36,0.24-0.5,0.64-0.46,1.05c-7.14,8.15-14.73,15.91-22.49,23.51
							c0.15-4.88,0.29-9.76,0.44-14.64c0.05-1.7-2.59-1.65-2.64,0.05c-0.17,5.7-0.34,11.4-0.51,17.09c0,0.05,0.01,0.09,0.01,0.14
							c-7.45,7.25-15.03,14.39-22.49,21.63c1.03-3.69,2.05-7.38,3.08-11.07c0.45-1.63-2.11-2.27-2.56-0.63
							c-1.36,4.88-2.71,9.76-4.07,14.64c-0.01,0.02-0.01,0.04-0.01,0.06c-0.18,0.2-0.27,0.48-0.29,0.77
							c-8.88,8.73-17.52,17.67-25.5,27.19c0.06-4.89-0.44-9.74-1.48-14.55c-0.36-1.66-2.9-0.94-2.54,0.72
							c1.24,5.68,1.63,11.4,1.25,17.19c-4.71,5.81-9.17,11.83-13.27,18.17c-8.07,12.46-14.5,25.92-18.44,40.25
							c-0.45,1.64,2.11,2.27,2.56,0.63c5.96-21.65,17.17-40.18,30.85-57.08c0.17-0.06,0.32-0.16,0.45-0.28
							c6.52,0.5,13.03,0.99,19.55,1.49c1.69,0.13,1.63-2.51-0.05-2.64c-5.89-0.45-11.78-0.9-17.67-1.34
							c8.17-9.8,17.13-19.07,26.33-28.11c5.1,0.51,10.2,0.54,15.32,0.09c1.68-0.15,1.65-2.79-0.05-2.64
							c-4.27,0.38-8.53,0.41-12.79,0.12c7.82-7.63,15.78-15.11,23.54-22.63c6.12-0.73,12.24-1.47,18.36-2.2
							c1.67-0.2,1.64-2.84-0.05-2.64c-5.07,0.61-10.14,1.22-15.22,1.83c3.42-3.35,6.78-6.7,10.07-10.09
							C266.96,793.12,271.24,788.49,275.37,783.73z"/>
					</g>
					<g>
						
							<linearGradient id="SVGID_29_" gradientUnits="userSpaceOnUse" x1="161.6172" y1="815.1509" x2="119.9682" y2="896.61" gradientTransform="matrix(0.9998 -0.0207 0.0207 0.9998 -28.6437 -57.8915)">
							<stop  offset="0" style="stop-color:#5ACF8B"/>
							<stop  offset="1" style="stop-color:#018673"/>
						</linearGradient>
						<path class="st40" d="M74.61,862.88c-16.22-35.83-27.06-74.1-32.03-113.12c21.79,24.61,35.38,56.36,38.15,89.11
							c10.68-48.24,23.4-100.01,60.96-132.12c-8.17,47.47-22.12,93.93-41.44,138.05c22.62-59.13,68.41-109.04,125.36-136.67
							c-20.68,56.22-53.87,107.8-96.47,149.92c31.51-34.73,71.94-61.3,116.33-76.45c-20.92,37.03-54.28,66.89-93.39,83.6
							L74.61,862.88z"/>
					</g>
					<g>
						<linearGradient id="SVGID_30_" gradientUnits="userSpaceOnUse" x1="197.3604" y1="816.8096" x2="173.986" y2="956.1205">
							<stop  offset="0" style="stop-color:#FFEB8A"/>
							<stop  offset="1" style="stop-color:#1BA365"/>
						</linearGradient>
						<path class="st41" d="M-26.28,918.04c-9.83-17.95-0.03-43.62,19.25-50.46c19.16-6.79,40.9,3.58,60.48-1.89
							c21.45-6,34.63-29.31,56.08-35.29c22.9-6.37,45.75,9.03,63.93,24.34c18.19,15.32,38.71,32.48,62.37,30.23
							c9.39-0.89,18.17-4.86,27.31-7.18c9.14-2.32,19.58-2.76,27.25,2.72c14.28,10.21,11.04,34.14,24.2,45.76
							c10.26,9.06,25.93,6.92,39.04,10.84c18.59,5.56,31.77,25.38,29.71,44.67L-26.28,918.04z"/>
					</g>
					<path class="st26" d="M-245.29,877.28c0,0,158.75-12.96,592.89,87.48c434.14,100.44,592.89,171.71,592.89,171.71H-245.29
						V877.28z"/>
					<g>
						<path class="st27" d="M-47.7,949.39c3.26,15.41,2.44,32.21,10.46,45.76c11.34,19.16,37.11,25.2,59,21.19
							c21.9-4.01,41.42-15.81,61.66-25.09c20.23-9.28,43.22-16.22,64.56-9.86c25.23,7.52,42.54,31.95,67.61,40.01
							c28.66,9.21,58.87-4.98,87.02-15.64c37.21-14.09,76.62-22.13,116.35-24.17c-22.92-5.51-46.67-11.12-71.35-16.83
							C145.25,917.94,2.74,895.77-91.77,885.43C-70.54,901.5-53.17,923.49-47.7,949.39z"/>
					</g>
					<g>
						<path class="st27" d="M-39.88,981.49c2.24,16.06,2.15,33.2,10.56,47.06c11.48,18.91,36.12,26.18,58.15,24.06
							c22.02-2.13,42.48-11.79,63.11-19.78c20.63-8,43-14.51,64.67-10.01c23.51,4.88,42.41,21.86,64.07,32.22
							c56.85,27.17,123.52,6.28,184.75-8.59c50.54-12.27,105.31-23.58,159.8-28.1c-63.22-16.63-135.49-34.59-217.63-53.59
							C143.79,917.6,0.67,895.44-93.82,885.2C-65.11,909.48-45.08,944.19-39.88,981.49z"/>
					</g>
					<g>
						<path class="st28" d="M182.28,986.31c4.32,2.88,8.64,5.76,12.96,8.64c3.4,2.27,8.37,0.66,10.34-2.71
							c2.17-3.71,0.69-8.07-2.71-10.34c-4.32-2.88-8.64-5.76-12.96-8.64c-3.4-2.27-8.37-0.66-10.34,2.71
							C177.4,979.67,178.87,984.04,182.28,986.31L182.28,986.31z"/>
						<path class="st28" d="M428.54,1052.15c5.4,3.96,10.81,7.91,16.21,11.87c3.3,2.41,8.43,0.56,10.34-2.71
							c2.24-3.83,0.59-7.92-2.71-10.34c-5.4-3.96-10.81-7.91-16.21-11.87c-3.3-2.41-8.43-0.56-10.34,2.71
							C423.59,1045.64,425.24,1049.73,428.54,1052.15L428.54,1052.15z"/>
						<path class="st28" d="M568.42,1079.26c10.08-1.09,20.16-2.18,30.24-3.27c9.57-1.04,9.68-16.17,0-15.12
							c-10.08,1.09-20.16,2.18-30.24,3.27C558.85,1065.17,558.75,1080.31,568.42,1079.26L568.42,1079.26z"/>
						<path class="st28" d="M95.37,1076.98c8.24-0.32,16.03-2.45,23.26-6.43c8.53-4.69,0.91-17.76-7.63-13.06
							c-4.87,2.68-10.07,4.15-15.62,4.37C85.67,1062.24,85.62,1077.36,95.37,1076.98L95.37,1076.98z"/>
						<path class="st28" d="M-17.63,940.08c2.15,1.09,4.31,2.19,6.46,3.28c3.52,1.79,8.36,1.04,10.34-2.71
							c1.82-3.45,1.05-8.43-2.71-10.34c-2.15-1.09-4.31-2.19-6.46-3.28c-3.52-1.79-8.36-1.04-10.34,2.71
							C-22.16,933.18-21.39,938.16-17.63,940.08L-17.63,940.08z"/>
						<path class="st28" d="M239.94,1078.87c6.84-2.52,13.68-5.04,20.52-7.56c3.83-1.41,6.43-5.13,5.28-9.3
							c-1.01-3.69-5.45-6.7-9.3-5.28c-6.84,2.52-13.68,5.04-20.52,7.56c-3.83,1.41-6.43,5.13-5.28,9.3
							C231.65,1077.28,236.09,1080.29,239.94,1078.87L239.94,1078.87z"/>
						<path class="st28" d="M533.28,1045.71c1.8,1.08,3.6,2.16,5.4,3.24c3.39,2.04,8.45,0.87,10.34-2.71
							c1.93-3.66,0.91-8.17-2.71-10.34c-1.8-1.08-3.6-2.16-5.4-3.24c-3.39-2.04-8.45-0.87-10.34,2.71
							C528.63,1039.02,529.65,1043.53,533.28,1045.71L533.28,1045.71z"/>
					</g>
				</g>
			</g>
		</g>
		<g>
			<defs>
				<path id="SVGID_31_" d="M1436.54,785.37c-22.76-0.6-44.59,6.1-63.81,17.53c-23.34-31.13-28.17-72.2-30.35-110.01
					c-2.54-43.87-4.31-87.17-17.57-129.42c-23.09-73.59-71.94-140.86-140.78-177.57c-69.08-36.84-154.26-42.91-225.77-9.36
					c-74.44,34.93-124.28,107.29-166.25,175.1c-90.61,146.38-148.93,331.55-74.31,497.32c4.76,10.58,10.13,20.95,16.05,31.05h544.46
					c4.28-8.37,8.12-17.02,11.5-25.95c27.3-72.3,24.13-175.68,96.85-221.76c15.25-9.66,31.86-14.99,49.98-14.52
					C1457.4,818.31,1457.39,785.91,1436.54,785.37z"/>
			</defs>
			<clipPath id="SVGID_32_">
				<use xlink:href="#SVGID_31_"  style="overflow:visible;"/>
			</clipPath>
			<g class="st42">
				<g>
					
						<linearGradient id="SVGID_33_" gradientUnits="userSpaceOnUse" x1="-5789.4951" y1="-151.5852" x2="-5742.2476" y2="15.476" gradientTransform="matrix(-0.9748 -0.2231 -0.2231 0.9748 -4496.7134 -525.2159)">
						<stop  offset="0" style="stop-color:#5ACF8B"/>
						<stop  offset="1" style="stop-color:#34A7A4"/>
					</linearGradient>
					<path class="st43" d="M1080.91,743.64c-11.37-3.19-20.18-9.05-26.84-15.37c-0.52-6.21-0.77-12.44-0.74-18.68
						c0.02-5.17,0.25-10.33,0.65-15.47c22.22,34.81,46.21,33.16,46.21,33.16c-20.95-11.33-34.72-33.15-43.57-53.97
						c6.64-37.95,22.95-74.33,45.47-105.34c17.69-24.35,39.5-45.44,64.6-62.07c0.34-0.23,0.68-0.33,1-0.35
						c0.75-0.16,1.53,0.1,1.98,1.04c13.93,29.48,28.07,59.44,38.59,90.46c-4.93,12.57-11.33,25.83-19.35,36.65
						c0,0,14.22-4.16,26.33-13.79c4.6,17.01,7.89,34.36,9.25,52.13c2.1,27.43-0.2,56.16-10.03,82.05
						c-8.18,21.55-24.75,39.62-42.16,54.21c-19.51,16.35-42.25,30.17-66.9,37.08c-0.7,0.37-1.55,0.34-2.26-0.45
						c-26.11-29.1-42.15-65.8-47.65-104.22C1068.71,742.95,1080.91,743.64,1080.91,743.64z"/>
					<path class="st44" d="M1167.69,505.55c0.75-0.16,1.53,0.1,1.98,1.04c0.05,0.1,0.1,0.2,0.14,0.3
						c-25.83,99.53,4.59,207.99-41.9,303.35c-5.74,11.77-12.27,23.1-19.25,34.15c-1.09,0.33-2.17,0.67-3.27,0.98
						c-0.68,0.36-1.51,0.33-2.2-0.4c5.47-8.54,10.68-17.24,15.48-26.18c13.39-24.94,22.46-51.45,27.38-79.31
						c9.59-54.28,5.5-109.71,9.15-164.47c1.53-23.01,4.48-45.92,10.18-68.22c0.44-0.29,0.87-0.6,1.3-0.89
						C1167.03,505.68,1167.36,505.58,1167.69,505.55z"/>
				</g>
				<g>
					
						<linearGradient id="SVGID_34_" gradientUnits="userSpaceOnUse" x1="-5621.1436" y1="-159.2551" x2="-5661.0967" y2="-81.1131" gradientTransform="matrix(-0.9649 -0.2627 -0.2627 0.9649 -4294.7456 -582.4286)">
						<stop  offset="0" style="stop-color:#018673"/>
						<stop  offset="1" style="stop-color:#0D4E50"/>
					</linearGradient>
					<path class="st45" d="M1215.51,859.64c23.44-29.57,42.43-62.66,56.14-97.82c-26.01,17.83-46.04,44.21-56.24,74.05
						c1.29-47.38,1.5-98.52-25.98-137.14c-3.44,46.07-1.28,92.56,6.44,138.12c-7.29-60.29-38.28-117.4-84.86-156.37
						c6.16,57.14,25.04,112.86,54.89,161.97c-21.24-39.66-52.68-73.79-90.46-98.22c10.85,39.33,34.94,74.89,67.46,99.53
						L1215.51,859.64z"/>
				</g>
				<g>
					
						<linearGradient id="SVGID_35_" gradientUnits="userSpaceOnUse" x1="1041.9041" y1="1958.6877" x2="931.6638" y2="2174.3008" gradientTransform="matrix(0.9334 -0.3589 0.3589 0.9334 -675.0604 -769.8643)">
						<stop  offset="0" style="stop-color:#115A69"/>
						<stop  offset="1" style="stop-color:#164A62"/>
					</linearGradient>
					<path class="st46" d="M1062.81,857.39c-6.11-12.63-15.18-23.42-23.5-34.61c-4.5-6.06-8.84-12.28-12.31-19
						c-3.4-6.59-5.56-13.57-7.51-20.7c-3.17-11.57-6.68-24.25-16.45-32.12c-9.87-7.95-23.61-6-34.05-12.84
						c-11.53-7.55-17.79-20.38-23.22-32.56c-2.82-6.32-5.5-12.78-9.02-18.76c-2.23-3.79-5.21-7.53-9.11-9.69
						c-9.23-5.1-17.68,3.26-17.75,12.62c-0.05,6.2,2.67,12.07,5,17.68c2.6,6.27,5.3,12.52,7.72,18.86
						c4.94,12.95,8.96,26.74,7.81,40.75c-0.95,11.53-5.78,23.55-1.86,35.01c4.17,12.18,17.09,18.53,20.88,31.05
						c3.32,10.99,1.11,22.61,2.94,33.79c1.94,11.86,7.1,23.33,13.72,33.29c7.41,11.15,17.54,21.13,30.12,26.19
						c14.03,5.64,29.28,3.8,42.66-2.79c4.36-2.15,8.49-4.72,12.45-7.54c0.01-0.01,0.01-0.01,0.02-0.02
						c8.94-4.86,14.52-13.58,16.79-23.38C1070.89,880.58,1068.11,868.33,1062.81,857.39z"/>
					<path class="st47" d="M1028.5,862.36c-1.83,6.77-2.74,13.69-2.76,20.66c-2.24-3.81-4.48-7.63-6.66-11.46
						c-4.83-8.47-9.62-16.97-14.38-25.49c0.17-0.2,0.3-0.44,0.38-0.73c2.39-9.29,4.78-18.59,7.17-27.88
						c0.55-2.14-2.84-2.67-3.38-0.55c-2.15,8.36-4.3,16.71-6.44,25.07c-7.24-13.03-14.4-26.1-21.45-39.23
						c2.09-11.64,4.17-23.28,6.26-34.92c0.39-2.18-2.99-2.72-3.38-0.55c-1.83,10.2-3.66,20.4-5.49,30.6
						c-3.55-6.64-7.08-13.28-10.59-19.95c-3.26-6.2-6.49-12.41-9.7-18.63c0.12-0.18,0.21-0.39,0.25-0.65
						c0.74-4.1,1.48-8.2,2.22-12.29c0.39-2.18-2.99-2.72-3.38-0.55c-0.52,2.9-1.05,5.79-1.57,8.69c-5.08-9.87-10.12-19.77-15.1-29.7
						c-0.98-1.95-4.19-0.74-3.2,1.23c5.28,10.52,10.62,21.01,16.01,31.46c-3.67-1.34-7.35-2.68-11.02-4.02
						c-2.06-0.75-3.47,2.37-1.39,3.13c4.78,1.74,9.56,3.49,14.34,5.23c0.12,0.05,0.24,0.07,0.36,0.09
						c6.62,12.78,13.32,25.5,20.11,38.19c-8.82-2.57-17.65-5.14-26.47-7.71c-2.12-0.62-2.64,2.77-0.55,3.38
						c9.39,2.73,18.78,5.47,28.17,8.2c0.32,0.09,0.6,0.09,0.84,0.02c0.08,0.12,0.17,0.22,0.27,0.31c2.46,4.58,4.93,9.16,7.42,13.74
						c4.54,8.35,9.13,16.68,13.75,25c-8.02-1.07-16.05-2.14-24.07-3.21c-2.19-0.29-2.74,3.09-0.55,3.38
						c8.71,1.16,17.42,2.32,26.13,3.48c0.19,0.03,0.36,0.01,0.52-0.01c3.03,5.43,6.07,10.86,9.13,16.28
						c4.85,8.58,9.86,17.09,14.79,25.63c-7.61-1.1-15.21-2.2-22.82-3.3c-2.19-0.32-2.74,3.07-0.55,3.38
						c8.52,1.23,17.03,2.46,25.55,3.69c2.77,4.82,5.5,9.66,8.16,14.54c8.31,15.27,15.57,31.96,14.39,49.72
						c-0.14,2.19,3.24,2.75,3.38,0.55c1-15.09-3.6-29.48-10.13-42.92c-4.15-8.53-8.85-16.8-13.65-25.01
						c-0.69-8.9,0.15-17.72,2.48-26.35C1032.46,860.78,1029.07,860.24,1028.5,862.36z"/>
				</g>
				<g>
					
						<linearGradient id="SVGID_36_" gradientUnits="userSpaceOnUse" x1="1163.5887" y1="1684.402" x2="1053.5177" y2="1899.684" gradientTransform="matrix(0.9588 -0.2842 0.2842 0.9588 -501.4139 -627.0318)">
						<stop  offset="0" style="stop-color:#61EEDE"/>
						<stop  offset="1" style="stop-color:#146D6B"/>
					</linearGradient>
					<path class="st48" d="M1096.71,717.28c-3.14-8.01-8.84-14.58-14.54-20.88c-6.43-7.1-13.49-14.26-16.91-23.4
						c-2.93-7.83-2.39-18.5-10.72-23.11c-6.96-3.85-13.35,1.65-16.08,7.93c-3.73,8.59-3.06,18.51-3.9,27.63
						c-0.97,10.62-5.39,19.21-10.29,28.47c-3.94,7.46-7.07,15.09-7.01,23.67c0.15,19.83,13.77,36.55,15.45,56.11
						c0.94,10.91-2.59,21.39-4.94,31.89c-2.42,10.77-2.94,21.35,0.94,31.87c7.16,19.4,24.61,34.49,43.24,42.64
						c0.16,0.07,0.31,0.1,0.45,0.1c0.01,0,0.02,0,0.02,0c0.01,0,0.03,0,0.04,0c0.21,0.02,0.44-0.02,0.67-0.14
						c17.01-9.09,32.09-22.59,40.65-40.11c8.07-16.53,9.97-35.99,3.51-53.37c-3.85-10.37-9.97-19.7-14.01-29.99
						c-4.08-10.41-4.23-20.83-3.79-31.84C1099.85,735.54,1100.14,726.02,1096.71,717.28z"/>
					<path class="st8" d="M1060.93,725.23c3.25-5.05,6.08-10.32,8.47-15.83c0.8-1.86-1.97-3.38-2.78-1.51
						c-1.8,4.17-3.86,8.19-6.16,12.09c-0.84-8.49-2-16.94-3.6-25.33c-0.38-2-3.41-1.08-3.03,0.9c1.52,7.98,2.63,15.99,3.44,24.03
						c-2.87-3.83-6.03-7.42-9.5-10.76c-1.47-1.41-3.63,0.89-2.16,2.31c4.44,4.27,8.34,8.94,11.75,14.05
						c-0.1,0.51,0.13,0.97,0.52,1.28c1.03,12.96,1.34,25.97,1.38,39c-4.07-4.21-8.14-8.42-12.21-12.63
						c-1.42-1.46-3.58,0.84-2.16,2.31c4.75,4.92,9.5,9.83,14.26,14.75c0.04,0.04,0.08,0.07,0.13,0.11
						c-0.01,12.47-0.22,24.96-0.24,37.42c-2.31-3.97-4.62-7.94-6.94-11.91c-1.02-1.76-3.71-0.09-2.68,1.67
						c3.06,5.25,6.11,10.5,9.17,15.74c0.01,0.02,0.03,0.04,0.04,0.06c0.02,0.32,0.18,0.64,0.42,0.89
						c0.07,14.94,0.52,29.84,2.01,44.66c-4.15-4.14-8.73-7.78-13.74-10.9c-1.73-1.08-3.23,1.71-1.51,2.78
						c5.91,3.69,11.16,8.14,15.82,13.31c1.05,8.9,2.49,17.78,4.5,26.61c3.95,17.36,10.14,34.15,19.15,49.54
						c1.03,1.76,3.72,0.09,2.68-1.67c-13.61-23.24-20.15-48.38-23.22-74.28c0.08-0.2,0.13-0.41,0.14-0.63
						c5.88-5.18,11.76-10.37,17.64-15.55c1.53-1.34-0.79-3.5-2.31-2.16c-5.31,4.69-10.63,9.37-15.94,14.06
						c-1.58-15.22-2.05-30.68-2.11-46.16c4.71-3.96,9.01-8.31,12.9-13.08c1.28-1.57-1.01-3.75-2.31-2.16
						c-3.25,3.98-6.79,7.67-10.6,11.09c0-13.1,0.23-26.2,0.26-39.16c4.49-5.87,8.98-11.75,13.47-17.62c1.22-1.6-1.07-3.78-2.31-2.16
						c-3.72,4.87-7.44,9.73-11.17,14.6c-0.01-5.73-0.08-11.44-0.24-17.1C1061.96,740.31,1061.56,732.76,1060.93,725.23z"/>
				</g>
				<g>
					<linearGradient id="SVGID_37_" gradientUnits="userSpaceOnUse" x1="1199.0327" y1="985.5081" x2="1135.5851" y2="780.4468">
						<stop  offset="0" style="stop-color:#61EEDE"/>
						<stop  offset="1" style="stop-color:#FFEB8A"/>
					</linearGradient>
					<path class="st49" d="M1391.06,854.52c-1.23-6.81-8.32-11.3-15.21-11.9c-6.9-0.6-13.66,1.78-20.19,4.08
						c-15.81,5.56-31.91,10.87-48.6,12.27s-34.27-1.47-48.01-11.06c-20.31-14.19-31.75-42.18-56.05-47.05
						c-21.44-4.3-41.24,12.12-55.39,28.8s-28.31,36.06-49.61,41.01c-11.84,2.75-24.19,0.5-36.34,0.15
						c-12.15-0.35-25.54,1.83-33.49,11.03c-8.58,9.94-8.05,24.49-10.42,37.41c-3.31,18.06-12.94,34.21-21.63,50.39
						c-8.69,16.18-16.76,33.55-16.49,51.91s11.29,37.78,29.17,41.97l382.26-124.57V854.52z"/>
				</g>
				<path class="st29" d="M958.94,1094.35c0,0,139.31-200.87,411.46-217.07l39.56,217.07H958.94z"/>
				<g>
					<path class="st27" d="M993.88,1053.13c12.03,2.24,24.05,4.57,36.16,6.14c27.87,3.6,57.76,2.72,81.89-11.67
						c20.68-12.32,34.68-32.98,49.41-52.01c14.74-19.03,32.27-37.94,55.57-43.97c15.79-4.08,32.78-1.79,48.43-6.4
						c27.5-8.1,44.34-35.18,53.97-62.59C1154.71,907.47,1045.65,998.87,993.88,1053.13z"/>
				</g>
				<g>
					<path class="st27" d="M1027.79,1020.47c25.13,8.79,50.31,17.68,76.71,20.37c33.16,3.38,69.73-4.91,90.99-30.58
						c11.16-13.47,18-31.37,33.17-40.09c18.79-10.79,42.88-3.33,63.78-9.03c19.8-5.4,34.8-22.37,42.96-41.2
						c5.59-12.9,8.45-26.7,10.43-40.67C1197.36,894.53,1090.97,964.44,1027.79,1020.47z"/>
				</g>
			</g>
		</g>
	</g>
</g>
</svg>
